<?xml version="1.0"?>
<svg xmlns:rdf="http://www.w3.org/1999/02/22-rdf-syntax-ns#" xmlns="http://www.w3.org/2000/svg" xmlns:cc="http://creativecommons.org/ns#" xmlns:dc="http://purl.org/dc/elements/1.1/" xmlns:svg="http://www.w3.org/2000/svg" id="svg1" viewBox="0 0 455 455" version="1.0">
  <path id="path2" d="m35.195 172.53h5l-1-5 8 4v-5l8 2c-17.517 11.56-43.562 16.1-48 41l5-2v8l4-4h5v4c4.081-1.33 5.499-5.45 9.019-7.89 14.551-10.1 32.977-22.76 50.981-18.11v1c-8.752 4.17-13.329 12.5-21 18.08-5.065 3.67-10.776 4.54-13 10.92l10-2-8 16 5-3h1l5 17h4l-1-6 10 9 1-6 3 6h4c-0.425-5.43-0.53-10.54-0.065-16 1.548-18.15 13.691-24.58 28.98-15.09 7.93 4.92 13.76 13.46 20.17 20.05 10.41 10.7 21.2 21.46 32.92 30.76 8.35 6.63 18.23 11.6 26.99 17.79 4.84 3.42 9.35 4.33 11 10.49-9.64 2.21-19.21 2.86-29 0.71-4.77-1.04-9.07-4.15-14-4.43-2.9-0.17-23.01-1.58-15 3.72v2l-20 6v2l7 1c-5.7 9.94-12.96 13.33 3 13l1 11c8.24-3.91 12.59-5 22-5l-1 6c7.9-1.21 15.9-6.46 24-8.48 9.66-2.41 19.26-1.26 29-0.43 4.19 0.36 18.64 2.57 14.93 9.59-2.95 5.59-9.63 5.78-14.93 6.65-13 2.13-24.69-2.27-38 1.67v2l5 3-15 5v2l7 2-10 16 23 1c-2.6 3.31-3.67 5.05-2 9h1c6.99-4.33 17.64-7.22 18 4 12.84-2.15 24.44-19.73 36-25.86 13.9-7.37 32.25-8.22 46.97-13.77 5.51-2.08 7.36-8.88 13.03-10.72 3.16-1.03 6.75 0.41 10 0.17 9.94-0.75 18.89-3.88 26-10.82 5.07 8 17.97 4.94 26 4.17 22.58-2.15 44.62-8.89 67-10.54 6.89-0.51 22.71-4.52 22.71-13.63 0-9.22-17.56-7.69-23.71-8.03-27.17-1.52-53.62-4.47-80-10.97 12.73-41.77 2.91-100.1-29.28-131.79-11.13-10.95-23.89-14.34-36.72-21.57-16.92-9.54-34.2-14.89-52-22.51-17.18-7.35-34.63-16.159-53-20.112-10.56-2.274-21.32-1.87-32-3.198-16.69-2.078-34.05-11.431-50.995-9.643-31.332 3.306-56.593 20.504-67.88 49.823-1.929 5.02-7.296 9.28-6.647 15 0.811 7.16 5.625 7.36 9.839 11.56 4.316 4.3 9.854 12.02 12.688 17.44m166 208l-1 1 1-1z"/>
  <metadata>
    <rdf:RDF>
      <cc:Work>
        <dc:format>image/svg+xml</dc:format>
        <dc:type rdf:resource="http://purl.org/dc/dcmitype/StillImage"/>
        <cc:license rdf:resource="http://creativecommons.org/licenses/publicdomain/"/>
        <dc:publisher>
          <cc:Agent rdf:about="http://openclipart.org/">
            <dc:title>Openclipart</dc:title>
          </cc:Agent>
        </dc:publisher>
        <dc:title>Beaver contour</dc:title>
        <dc:date>2008-02-19T11:36:21</dc:date>
        <dc:description>Black silhouette defining a beaver body shape.</dc:description>
        <dc:source>http://openclipart.org/detail/14480/beaver-contour-by-nicubunu</dc:source>
        <dc:creator>
          <cc:Agent>
            <dc:title>nicubunu</dc:title>
          </cc:Agent>
        </dc:creator>
        <dc:subject>
          <rdf:Bag>
            <rdf:li>animal</rdf:li>
            <rdf:li>beaver</rdf:li>
            <rdf:li>clip art</rdf:li>
            <rdf:li>clipart</rdf:li>
            <rdf:li>image</rdf:li>
            <rdf:li>mammal</rdf:li>
            <rdf:li>media</rdf:li>
            <rdf:li>outline</rdf:li>
            <rdf:li>png</rdf:li>
            <rdf:li>public domain</rdf:li>
            <rdf:li>silhouette</rdf:li>
            <rdf:li>svg</rdf:li>
            <rdf:li>wild</rdf:li>
          </rdf:Bag>
        </dc:subject>
      </cc:Work>
      <cc:License rdf:about="http://creativecommons.org/licenses/publicdomain/">
        <cc:permits rdf:resource="http://creativecommons.org/ns#Reproduction"/>
        <cc:permits rdf:resource="http://creativecommons.org/ns#Distribution"/>
        <cc:permits rdf:resource="http://creativecommons.org/ns#DerivativeWorks"/>
      </cc:License>
    </rdf:RDF>
  </metadata>
</svg>
