<?xml version="1.0"?>
<svg xmlns:rdf="http://www.w3.org/1999/02/22-rdf-syntax-ns#" xmlns="http://www.w3.org/2000/svg" xmlns:cc="http://web.resource.org/cc/" xmlns:xlink="http://www.w3.org/1999/xlink" xmlns:dc="http://purl.org/dc/elements/1.1/" xmlns:svg="http://www.w3.org/2000/svg" id="eagle_xA0_Image_1_" style="enable-background:new 0 0 530.799 238.107" xml:space="preserve" viewBox="0 0 530.799 238.107" version="1.1" y="0px" x="0px">
<g clip-rule="evenodd" fill-rule="evenodd">
	<path d="m504 23.502c3.355 1.531 8.537 2.493 7.439 7.68h-0.72c-0.977-0.34-1-1.329-1.44-2.16-0.088-0.167-0.439-0.915-0.479-0.96-0.247-0.276-0.634-0.019-0.96-0.24-0.238-0.161-0.344-0.882-0.48-0.96-0.486-0.279-1.44 0.025-1.439-0.96h-1.92c-0.014-0.787-0.683-0.917-0.48-1.92 0.41 0.088 0.45-0.188 0.48-0.48z"/>
	<path d="m373.44 40.302c0.898-0.397 3.392-2.187 5.04-0.24-0.043 0.592 0.112 1.322-0.24 1.92-0.087 0.148-0.653 0.023-1.199 0.48-0.632 0.529-0.154 0.644-1.2 0.96-0.509 0.154-0.823 1.006-0.72 0.96-0.979 0.438-2.599 0.3-3.841 0.48-0.046-0.753-0.949-0.651-0.72-1.68-0.194-0.914 0.703-0.736 0.72-1.44-0.42-0.779-1.225-1.175-1.68-1.92-3.086-0.099-6.303 0.365-8.64 2.16 0.445 1.759 0.199 3.742-1.2 4.32-1.11-0.089-1.84-0.56-2.16-1.44-2.773 0.266-4.602 1.479-6.24 2.88-1.623 0.263-1.828-0.891-2.16-1.92 0.138-0.743 0.854-0.906 1.2-1.44 0.061-0.7-0.452-0.828-0.72-1.2 0.1-0.894-0.216-1.982 0.24-2.64 0.835-1.204 0.96-1.263 2.16-2.4 1.033-0.98 2.973-3.013 4.08-3.84 0.613-0.458 1.147-0.728 1.92-1.2-0.091-1.51 0.383-2.821 1.199-3.6 0.406-0.387 1.022-0.419 1.44-0.72 1.173-0.846 1.585-1.408 2.16-1.44 2.696-0.148 3.874 3.137 3.84 5.76-1.583 0.577-3.112 1.208-4.32 2.16-0.041 0.681 0.812 0.468 0.48 1.44 4.16-0.963 11.86-2.718 10.56 3.6zm-12.96-5.04v-0.96c-0.92-0.189-0.92 1.149 0 0.96zm-6.96 6.72c1.363 0.003 2.245-0.475 2.16-1.92-0.33 0.01-0.527-0.113-0.72-0.24-0.4 0.803-1.08 1.319-1.44 2.16z"/>
	<path d="m345.36 33.822c-1.079 0.314-1.938-0.047-2.88-0.72-0.897-0.641-3.571-0.765-4.319-1.92v-1.44c1.734-2.276 7.128-1.836 10.079-0.96 1.78 2.956-2.19 3.089-2.88 5.04z"/>
	<path d="m298.56 34.542c-0.322-2.745 2.18-2.916 4.08-3.84 1.115-0.542 1.511-1.207 3.36-0.96 1.331 1.203 1.164 2.034 0 3.36-0.56 0.637-1.033 1.442-1.681 2.4-1.71 2.532-4.16 1.337-5.76-0.96z"/>
	<path d="m346.32 37.662c0.264 0.696 0.696 1.224 0.96 1.92-0.291 0.988-0.999 1.561-1.439 2.4-2.683-0.283-2.791 2.009-5.76 1.44-1.06-4.145 2.22-5.909 6.24-5.76z"/>
	<path d="m61.68 39.582h0.48v0.48h-0.48v-0.48z"/>
	<path d="m339.6 44.382c-0.253 1.693 0.424 2.456 0.48 3.84-0.516 0.364-0.718 1.043-1.681 0.96-0.213 1.018 0.63 1.7 0 2.4 1.143-0.319 2.949-1.286 4.561-2.16 0.811-0.44 1.511-0.595 2.64-1.2 1.957-1.049 4.057 0.443 4.561 3.12-1-0.066-0.261 0.813-0.48 1.2-0.494 0.87-1.797 0.956-2.4 1.68-7.256-0.947-13.792 3.38-16.56 9.12-0.993-0.287-1.633-0.927-1.92-1.92 0.308-1.763 4.379-3.977 1.439-5.28-1.624 0.856-2.017 2.943-4.56 2.88-0.405-0.955-0.188-2.532-0.24-3.84 2.052-2.508 4.178-4.942 6.24-7.44 1.293 0.093 1.208-1.192 2.64-0.96 0.876-1.444 3.214-1.427 4.08-2.88 0.91-0.348 0.46 0.659 1.2 0.48z"/>
	<path d="m259.68 46.302c-0.039 1.88-1.63 2.21-3.36 2.4v-1.68c1.2-0.18 1.98-1.441 3.36-0.72z"/>
	<path d="m376.08 46.782c0.459 3.531-3.381 4.838-5.521 3.6-0.22-3.092 3.47-5.051 5.52-3.6z"/>
	<path d="m367.44 47.742c0.609 0.679 0.945 1.695 0.721 2.88-0.223 1.168-1.822 2.047-3.12 3.12-0.232 0.192-0.041 0.512-0.24 0.72-0.356 0.372-1.409 0.572-1.92 0.96-0.57 0.433-0.43 1.092-1.44 1.2-0.923 0.099-1.3-0.431-1.92-0.48-1.235-2.975 0.003-4.925 1.92-6.24 0.45-0.309 1.16-0.407 1.681-0.72 2.01-1.209 2.09-1.39 4.32-1.44z"/>
	<path d="m306.72 67.902c-0.825 0.105-1.346-0.095-1.92-0.24-2.02-2.723 0.462-8.426 2.64-4.32-0.01 1.747 0.21 3.732-0.72 4.56z"/>
	<path d="m331.44 89.502c-0.021 1.258-0.897 1.663-0.72 3.12-1.31 0.371-2.248 1.112-3.6 1.44-0.439 1.08-1.062 1.979-1.681 2.88-1.894-0.294-1.946 1.254-3.84 0.96-0.196-0.764-0.95-0.97-0.96-1.92-2.194 0.115-3.949-0.211-5.28-0.96-2.506 0.934-3.524 3.355-6.96 3.36 0.042-0.602-0.537-0.583-0.72-0.96 0.044-1.076 0.85-1.39 1.44-1.92 0.546-1.614 2.184-2.136 2.64-3.84 1.296-0.256 1.78 0.299 2.64 0.48 0.537-0.103 0.098-1.183 0.24-1.68 2.367-3.09 7.783-0.647 11.76-1.2 1.53-0.213 2.405-1.362 4.32-0.72-0.21 0.769 0.37 0.75 0.72 0.96z"/>
	<path d="m269.28 96.942c-0.729-0.207-2.112-1.031-2.64 0-2.179-0.781-3.472-2.448-3.6-5.28 0.586-0.133 0.877-0.563 1.199-0.96 1.491-0.077 2.165 0.446 2.881-0.48 1.537 0.383 1.799 2.041 2.88 2.88v3.36c-0.53-0.132-0.34 0.458-0.72 0.48z"/>
	<path d="m306.96 96.462c0.106 2.907-2.002 3.598-4.561 3.84 0.042-0.602-0.537-0.583-0.72-0.96-0.006-0.565 0.413-0.707 0.24-1.44 0.789-0.411 1.474-0.927 1.68-1.92h2.88c-0.09 0.41 0.19 0.455 0.48 0.482z"/>
	<path d="m270.48 106.06c-0.2 2.378-2.992 3.713-5.04 2.16-0.83-3.69 3.74-4.61 5.04-2.16z"/>
	<path d="m314.64 108.22v1.92c-2.181 0.939-4.286 1.954-6.479 2.88-1.621 1.339-2.545 3.375-4.08 4.8-0.745-0.296-1.552-0.529-1.681-1.44 0.989-2.371 2.641-4.08 4.561-5.52-0.02-2.019 1.473-2.527 2.399-3.6 1.188 0.312 2.133-0.35 2.88-0.24 1.09 0.16 1.27 1.03 2.4 1.2z"/>
	<path d="m282.48 111.82c-1.464 0.683-2.494-0.466-4.319-0.24-1.223 0.151-2.013 1.238-2.881 1.2-1.354-0.06-2.477-0.989-2.399-3.12 1.257-0.474 3.856-0.784 5.76-0.72 2.02 0.07 4.19 0.44 3.84 2.88z"/>
	<path d="m289.92 116.86c0.116 0.917-0.068 1.532-0.48 1.92-1.655-1.179-3.826 0.733-5.279-0.48-0.56-3.57 4.28-2.4 5.76-1.44z"/>
	<path d="m216 148.06c-0.634 2.36-1.157 5.719-2.64 7.2-0.116 0.115-0.613-0.122-0.72 0-0.828 0.941-2.815 1.881-4.32 2.4-0.298 0.582-0.643 1.117-1.2 1.439-1.352-0.168-1.864-1.176-2.88-1.68 0.674-0.206 0.462-1.298 0.48-2.16 2.003-1.356 2.023-4.696 4.8-5.28 0.16-4.06 4.06-4.53 6.48-1.92z"/>
	<path d="m120.96 163.18c0.116 0.845 0.756 1.164 0.96 1.92-1.274 0.886-2.023 2.296-3.12 3.36-2.54-0.81-1.67-6.54 2.16-5.28z"/>
	<path d="m105.36 226.54c0.933 0.279 0.065 0.627-0.24 0.96-0.261-0.06-0.163-0.478-0.48-0.48 0.05-0.34 0.72-0.08 0.72-0.48z"/>
	<path d="m344.88 91.182c1.562-0.646 2.286-1.645 3.84-1.44 1.504 0.198 2.776 2.871 5.28 1.92 0.826 0.233 1.174 1.888 1.92 1.44 0.624-2.067-1.618-3.339-2.4-4.8-0.033-1.474 0.518-2.362 0.72-3.6 4.621 0.899 4.519 6.522 4.32 12.24-0.481-0.082-0.751 0.049-0.72 0.48-1.798-0.522-2.74-1.9-3.601-3.36-1.921-0.799-4.486-0.954-6.239-1.92-0.809 0.472-1.301 1.26-2.88 0.96-2.062 2.179-4.755 3.726-8.881 3.84-0.507 1.021-1.62 0.881-2.399 1.44-2.696 1.932-3.884 5.375-5.521 8.4 0.017 0.704 0.733 0.707 0.96 1.2 0.872-0.328 1.511-0.89 1.681-1.92 0.446-0.033 0.802-0.158 0.96-0.48 3.106 0.178 6.837-0.137 8.64-0.48 0.833 0.448 0.872 1.688 1.44 2.4 2.988 1.389 7.782-0.847 9.6 0.96 0.4 1.92-1.565 1.474-1.92 2.64-1.622-0.102-1.988 1.052-3.6 0.96-0.346 0.054-0.084 0.716-0.48 0.72-2.291 0.716-4.698-0.227-6.72 0-2.36 0.265-3.702 1.833-5.04 3.12-4.844-0.043-7.263 2.337-9.12 5.28-2.589-0.509-3.219 0.941-3.84 2.4-2.527-0.207-3.442 1.197-4.32 2.64-0.8 0.417-1.064-0.121-2.16 0-0.33 0.31-0.237 1.043-0.239 1.68-0.601 1.24-2.1 1.581-2.4 3.12-2.092 0.148-2.102 2.379-3.84 2.88 0.481 1.282-1.027 0.573-0.721 1.681 1.594 0.549 2.907-1.251 5.28-0.721 1.109-1.051 2.164-2.155 4.561-1.92 0.772 0.507 0.136 2.424 0.96 2.881-0.106 1.094-1.152 1.247-0.96 2.64-1.959 0.762-3.899 1.541-5.28 2.88-7.455 2.225-13.814 5.546-20.88 8.16 0.783 1.57 0.4 3.387-0.24 4.8 2.104-0.455 3.408-1.712 5.76-1.92 0.347-0.534 1.063-0.697 1.2-1.44 2.931 0.051 4.011-1.749 6.24-2.399 0.765-1.315 2.382-1.778 3.84-2.4 0.289 0.271 0.435 0.686 1.2 0.48 2.456-0.912 7.786-4.706 8.16 0.479 1.477-1.424 2.508-4.115 3.84-6 0.869-1.23 1.9-2.787 2.64-3.359 0.605-0.47 1.325-0.353 1.68-0.96 0.191-0.689 0.817-0.943 0.721-1.921h0.96c-0.332-0.971 0.521-0.759 0.479-1.439 3.741-1.246 6.364-6.814 11.04-4.8 0.001 2.128-0.685 4.043-1.439 6-0.521 1.352-1.037 3.293-1.92 4.56-2.093 3.003 0.608 9.126 0 13.2-0.078 0.518-0.36 0.334-0.48 0.72-0.111 0.36 0.132 0.848 0 1.2-0.176 0.471-0.761 0.735-0.96 1.2-0.245 0.571-0.252 1.334-0.479 1.92-0.487 1.252-1.144 3.025-2.4 4.08 0.01 2.17-1.62 2.699-1.92 4.56-0.704 0.416-1.51 0.73-1.44 1.92h-0.96c0.092 1.852-1.536 1.983-1.92 3.36 0.501 0.715 0.978-0.604 1.681-0.48 3.041 0.913 4.659-1.326 7.439-1.439-0.132 0.532 0.458 0.342 0.48 0.72-0.604 1.557-2.888 1.864-4.32 2.88 2.99 0.608 5.093-0.473 8.16 0.24 0.45-2.189 0.754-4.525 2.16-5.76 0.895-5.698-4.165-7.438-2.641-13.2 0.313-1.186 0.932-2.309 1.2-3.6 0.722-3.47 0.934-7.348 1.44-11.04 0.27-1.965 1.15-3.965 1.439-6.24 0.431-0.689 1.203-1.037 0.96-2.4 0.51 0.21 0.545-0.47 0.72-0.72 0.132-0.188 0.601-0.505 0.721-0.72 0.429-0.771 0.533-2.116 0.96-2.88 0.098-0.176 0.396 0.071 0.479-0.24 0.286-1.071 2.355-2.341 2.4-4.08 1.098-0.902 2.105-1.895 2.4-3.6 1.865-0.935 1.925-3.675 3.6-4.8 2.41 0.39 3.1 2.5 3.6 4.8 1.84-1.121 2.194-3.726 4.08-4.8 0.114-5.006 4.073-6.167 5.76-9.6 1.356 0.076 1.553-1.007 2.881-0.96 2.301 1.991 1.131 6.002 1.92 9.36 0.349 0.371 1.229 0.211 1.92 0.24-0.093 0.707-1.05 0.55-1.44 0.96-0.003 0.803 0.608 0.992 0.96 1.44 0.358 5.037-0.571 11.991-2.64 15.6-0.47 0.819-1.565 1.955-1.68 3.36-1.118 0.496-1.584 2.207-2.4 3.36-0.645 0.908-1.078 1.378-1.44 2.88 1.267 0.066 0.814-1.586 2.16-1.44 0.216-0.505 0.373-1.066 0.721-1.439 3.094-2.186 4.241-6.319 6.239-9.601 1.622-1.098 2.992-2.447 4.561-3.6 0.247-3.272 2.75-4.29 2.88-7.68 1.013 0.373-0.053-1.333 0.96-0.96 0.15-1.316-0.011-2.099 0.479-3.36 0.043-0.108 0.413 0.01 0.48-0.24 0.209-0.782 0.61-1.551 0.96-2.4 0.773-1.88 1.243-2.82 2.16-4.32 0.594-0.972 0.543-1.968 1.68-2.4 1.022-3.538 3.606-5.514 5.521-8.16 3.318-0.601 3.623-4.217 6.96-4.8 0.392-0.808 1.626-0.774 1.68-1.92 2.294-0.171 3.231-2.759 6-1.68 0.986 4.786-0.552 9.537-1.68 14.16-0.404 1.657-0.496 3.458-0.96 4.8-0.37 1.068-1.419 2.184-1.92 3.12-0.638 1.188-1.114 2.278-1.44 3.36-1.261 0.259-1.433 1.607-2.4 2.16 0.979 0.356 2.131-0.464 2.88-1.2 1.633-1.602 2.912-4.123 5.28-4.8 0.608-0.511 0.738-1.502 1.681-1.68 0.871-5.528 6.565-6.235 12-7.2 0.762 1.003 0.839 1.65 0.479 2.88-0.178 0.607-0.782 0.892-0.96 1.44-0.364 1.124-0.088 2.748-0.48 3.84-0.829 2.312-3.384 2.993-4.319 4.56-1.968 0.512-4.124 0.836-5.28 2.16 1.874 1.406 4.316 2.244 7.68 2.16 0.455 0.92 1.321 1.155 1.44 2.16 0.231 1.946-1.515 3.292-3.6 3.359-1.838 1.154-3.649 1.64-5.28 2.641-0.614 0.377-1.045 1.069-1.68 1.439-1.235 0.721-2.659 1.085-3.841 1.681-2.255 1.135-4.126 2.486-6 4.319-0.51 0.499-1.282 2.166-2.159 2.4-1.235 0.33-2.201 2.756-3.841 3.36-0.834 0.307-2.018 0.395-3.12 0.72-1.118 0.33-2.332 0.896-2.88 0.96-4.493 0.521-7.003-1.973-12-1.68-0.668 0.391-1.354 1.707-0.96 2.399 1.269 1.212 4.06 0.9 6 1.44 2.475 2.006 6.469 2.491 9.36 4.08 6.016 0.416 10.018-1.183 15.36-1.44 0.39 0.57 1.019 0.9 1.439 1.44 0.041 3.081-2.216 3.864-3.359 5.76-2.223 0.258-3.041 1.919-5.04 2.4-0.552 1.145-2.58 1.829-4.561 2.64-2.008 0.822-3.404 1.676-5.52 1.92-2.908 0.336-5.522 0.278-7.681 1.68 2.371 3.934 10.106 3.439 15.12 2.16 0.017 0.704 0.733 0.707 0.96 1.2 0.107 2.525-2.152 3.544-3.6 4.56-1.545 1.085-3.204 2.273-5.04 2.88-0.421 0.54-1.05 0.87-1.44 1.44-2.871 0.03-4.771 2.067-7.92 2.4-4.935 0.521-11.175 0.032-17.04-0.24-3.071-0.143-5.713 0.182-7.439-0.96-0.21-0.139-0.658-0.692-0.721-0.72-0.319-0.142-0.9 0.175-1.199 0-0.59-0.346-1.111-1.033-1.681-1.44-0.637-0.456-1.592-0.646-1.68-1.44-1.947 0.268-2.028-1.331-4.08-0.96-1.296 0.864-1.713 2.607-3.6 2.881-0.457 0.873-0.804 2.586 0 3.359 5.356 0.883 8.232 4.247 11.52 7.2 1.944 1.096 3.98 2.1 6 3.12 3.878 0.441 8.036 0.604 12.48 0.479 0.532 0.133 0.342-0.458 0.72-0.479h12.24c0.776 0.297 0.184-0.776 0.96-0.48 0.825-0.024 1.724-0.123 1.92 0.48 1.463-1.045 5.307-0.222 7.439-0.48 0.465-0.056 0.764 0.056 0.721-0.479 0.554 0.405 1.298 0.621 2.399 0.479 1.008-0.936 3.184-0.37 4.32 0 0.407 1.513 0.613 3.227 0.479 5.28-0.408-0.088-0.452 0.188-0.479 0.48-4.917 1.723-12.356 0.923-18.48 1.439-0.532-0.132-0.341 0.458-0.72 0.48-3.432 0.168-7.622-0.423-10.32 0.479-0.978 0.179-0.826-0.773-1.92-0.479-2.099 0.297-6.938 0.873-9.6 0.96-3.684 0.119-7.569-0.908-10.56 0.72 1.456 2.543 5.576 2.423 7.439 4.56 0.265 1.785-1.338 1.702-1.439 3.12-1.978 0.322-8.653 1.051-11.761 0.48-0.802-0.147-1.76-0.991-2.88-1.44-0.344-0.138-0.842 0.102-1.2 0-0.387-0.109-0.908-0.877-1.199-0.96-0.506-0.145-1.245 0.152-1.681 0-0.029-0.01-0.087-0.419-0.239-0.479-0.843-0.337-1.758-0.137-3.12-0.48-0.646-0.163-1.261-0.766-1.92-0.96-1.565-0.462-3.26-0.188-4.801-0.72-1.183-0.409-2.837-1.257-4.56-1.92-3.852 0.079-8.212-0.426-10.8 1.2-0.245 0.153-0.251 0.53-0.48 0.72-0.112 0.093-0.63 0.13-0.72 0.24-0.546 0.665-0.509 1.943-1.44 2.399 0.189 2.284-1.356 5.074 0 6.96v4.8c0.431 0.108 0.117 1.121 0.48 1.44 0.599 0.526 0.05 0.025 0.479 0.96 0.202 0.438 0.245 0.444 0.48 1.44 0.151 0.643 0.218 0.81 0.479 1.92 0.154 0.652 0.275 0.761 0.48 1.92 0.56 3.169 3.057 7.202 0.24 8.16-3.786 1.287-5.458-3.701-8.4-3.36 0.297-0.776-0.776-0.184-0.479-0.96-1.323 0.362-1.275-0.646-2.4-0.48-1.523-1.996-3.995-3.045-6.24-4.319-1.249-2.111-2.871-3.85-4.56-5.521 0.19-2.67-2.125-2.835-1.92-5.52-1.189-1.052-2.154-2.326-3.601-3.12-0.391-2.648-1.942-4.138-2.399-6.72-6.045 0.324-13.041 0.124-19.92 0.96-4.613 0.56-11.337 0.359-17.041 0.72 0.379 5.032 1.394 10.273 0.24 14.88-2.124 1.152-4.827-0.594-5.52-2.4-3.547-1.173-6.282-3.157-9.6-4.56-1.423-2.177-3.43-3.77-4.32-6.48-2.02 1.261-2.291 4.271-4.8 5.04-0.326 0.075-0.199 0.602-0.24 0.96-0.975-0.281-1.371 0.848-1.92 1.2-0.66 0.424-1.614 0.734-2.4 1.2-1.774 1.051-5.338 1.452-7.68 2.16-2.514 1.086-4.357 2.843-6.48 4.32-0.32 1.439-0.855 2.665-1.92 3.359-2.422-4.868 0.646-11.14 2.4-14.88-1.267-0.385-3.026 1.192-4.8 0.72 0.065 0.018-0.234-0.919-0.96-0.479v-1.68c-2.209-2.062-8.565-1.783-11.04-0.24-0.326 0.074-0.199 0.601-0.24 0.96-0.883-0.513-0.978 0.677-1.44 0.96-0.709 0.435-2.581 0.479-2.64 1.92-0.677 0.203-1.443 0.316-1.68 0.96 0.752 1.585 3.695-0.101 5.28 0 0.364 0.436 0.773 0.827 0.96 1.44 0.179 0.739-0.828 0.292-0.48 1.199-0.926 0.034-1.109 0.812-2.16 0.721-2.094 1.733-4.311 3.266-6.72 4.8-0.549 0.35-1.166 1.062-1.68 1.2-0.57 0.151-0.474 0.356-0.96 0.72-0.894 0.668-2.165 0.875-2.64 2.16-1.658 0.262-2.638 1.202-3.36 2.399-1.501 0.419-2.649 1.191-3.36 2.4-1.896 0.253-2.888 1.804-4.08 2.88-0.599 0.541-1.63 0.855-2.4 1.44-0.375 0.284-0.625 0.645-0.96 0.96-1.383 1.304-3.789 2.423-5.52 3.84-0.167 0.137-0.101 0.616-0.24 0.72-0.154 0.115-0.566-0.115-0.72 0-1.176 0.883-2.36 2.024-3.36 3.12-1.582 0.356-4.445 1.385-6 0.24 1.28-1.348 2.165-2.919 3.6-4.32 0.682-0.665 1.57-0.867 1.68-2.16 0.732 0.013 0.575-0.864 1.44-0.72-0.354-1.074 0.703-0.737 0.48-1.68 0.681 0.041 0.468-0.812 1.44-0.48 0.847-1.873 2.304-3.136 3.84-4.32 1.313-2.606 3.385-4.455 5.76-6-0.082-1.201 0.915-1.325 0.72-2.64-2.812 0.389-5.497 2.982-8.64 3.84-1.517 1.764-4.576 1.984-6 3.84h-1.44c-4.759 3.881-10.847 6.434-15.6 10.32-0.557-0.076-0.921 0.039-1.2 0.24-3.411 1.594-6.247 5.35-11.04 4.08 1.815-4.425 6.796-5.685 9.36-9.36 1.15-0.186 1.658-0.917 2.4-1.68 0.199-0.205 0.385 0.113 0.48-0.24 0.21-0.786 2.016-1.838 2.88-2.64 0.847-0.786 1.526-1.91 2.4-2.641 0.297-0.248 1.071-0.188 1.44-0.479 0.355-0.281 0.416-0.738 0.72-0.96 0.716-0.521 1.508-0.86 2.16-1.44 1.01-0.898 1.527-2.205 2.88-2.64 1.719-1.882 3.374-3.826 5.52-5.28-0.896 0.064-1.592 0.329-1.92 0.96-1.444-0.084-2.387 0.333-3.12 0.96-2.263 0.298-4.003 1.117-5.28 2.4h-1.2c-3.908 2.492-9.567 3.232-13.2 6h-1.44c-0.369 0.671-1.656 0.424-1.68 1.439-5.478 0.603-7.593 4.567-13.92 4.32 1.329-1.35 3.096-2.137 4.56-3.36 0.458-0.383 0.754-1.037 1.2-1.439 0.47-0.425 1.333-0.416 1.44-1.2 0.578 0.099 0.521-0.438 1.2-0.24 0.398-1.281 2.339-1.021 2.64-2.399 4.676-1.804 7.321-5.64 12.48-6.96 0.935-2.986 5.123-2.718 6.48-5.28 1.719 0.038 2.328-1.032 2.88-2.16-4.371-1.544-10.883-0.506-16.56-0.72-0.532-0.133-0.341 0.458-0.72 0.479-0.869-0.251-2.785 0.545-2.88-0.479-0.555 1.204-3.765-0.245-4.32 0.96-1.684 0.235-4.363-0.523-5.28 0.479-1.327 0.193-3.502-0.462-4.08 0.48h-12.48c-0.532-0.132-0.342 0.458-0.72 0.479h-4.08c-0.532-0.132-0.342 0.459-0.72 0.48-2.136 0.264-5.362-0.562-6.72 0.479-1.193 0.168-3.144-0.423-3.6 0.48-5.127 0.073-9.483 0.917-14.64 0.96-2.62 1.254-6.564 0.125-7.92-1.44 0.024-2.231-1.337-4.372-0.24-6.239 2.846 0.055 6.406-1.225 8.88 0 1.74-0.773 3.613-0.306 5.52-0.48 0.442-0.04 0.995-0.402 1.44-0.479 2.402-0.418 4.931 0.216 7.44 0 8.165-0.703 17.665-1.26 26.64-2.16 2.002-0.201 4.173 0.117 6.24 0 1.898-0.108 3.709-0.589 5.52-0.72 2.504-0.183 5.085-0.143 7.2-0.24 6.716-0.312 15.504 0.107 22.32-0.24 1.089-0.056 2.123-0.347 3.12-0.24 1.624 0.174 2.61 0.632 4.08-0.479 1.751-1.325 3.87-3.079 6-4.561 1.231-0.855 2.347-1.393 3.6-2.399 0.571-0.459 1.148-0.758 1.92-1.44-0.4-1.119-2.424-0.615-3.84-0.72-0.827 0.933-1.853 1.667-3.84 1.439-0.831 0.53-1.197 1.523-1.68 2.4-3.134 0.249-7.321 1.087-11.28 0.48-0.831-0.128-1.54-0.807-2.4-0.961-3.205-0.571-5.952 0.815-8.64 1.44-0.898-0.222-1.226-1.015-2.4-0.96-1.245 0.675-2.001 1.839-2.88 2.88-3.775 0.024-8.937-3.245-11.52 0-3.964-0.355-7.817-0.822-10.56-2.399-0.245-1.035-0.621-1.94-0.48-3.36-1.334-0.506-2.757-0.923-4.56-0.96-1.025 1.295-2.645 1.995-3.12 3.84-0.425 0.055-1.202-0.242-0.96 0.48-1.186 0.212-2.335-0.094-3.12-0.48-0.131-0.064-0.627 0.105-0.72 0-0.356-0.406-0.47-0.26-1.2-0.72-0.184-0.116-0.364-0.658-0.48-0.721-0.313-0.167-0.874 0.146-1.2 0-0.207-0.093-0.566-0.7-0.96-0.96-0.739-0.486-1.447-0.917-2.4-1.439-1.295-0.71-0.631-0.501-1.68-1.44-0.669-0.6-1.837-1.396-1.92-2.64 0.052-1.068 1.062-1.179 1.2-2.16-0.209-2.098-3.283-0.648-4.56-1.2 0.205-0.765-0.209-0.911-0.48-1.2 0.368-1.712 1.741-2.418 2.4-3.84 1.883-0.116 3.214-0.785 3.84-2.16 1.382-0.218 2.285-0.915 2.88-1.92 2.046-0.193 2.396-2.083 4.32-2.399 0.281-0.039 0.203-0.438 0.24-0.72 2.673-1.087 4.312-3.209 7.44-3.841 0.597-0.362 1.097-0.822 1.2-1.68 1.319-0.255 1.88-1.443 2.88-2.16 0.433-0.31 1.182-0.398 1.68-0.72 1.63-1.052 3.737-2.747 5.76-3.84 0.91-0.492 1.995-0.566 2.4-1.681h1.2c0.346-0.533 1.063-0.696 1.2-1.439h1.2c1.916-1.893 4.562-2.851 6.96-4.32 3.211-1.968 6.537-3.204 8.88-5.76 0.557 0.076 0.921-0.039 1.2-0.24 2.987-1.813 5.915-3.686 9.12-5.28 0.183-0.377 0.762-0.358 0.72-0.96h0.96c1.824-2.016 3.88-3.799 6-5.52v-3.84c-0.942-0.738-2.904-0.456-3.84-1.2 0.344-0.83-0.61-0.973-0.96-1.44-0.098-0.13 0.12-0.614 0-0.72-0.487-0.428-1.236-1.023-1.68-1.92-0.377-0.763-1.695-3.054-1.68-3.6 0.042-1.496 1.542-1.47 1.92-3.12-1.869-2.131-6.043-1.957-8.16-3.84 0.124-1.156 0.292-2.268 1.2-2.64-0.13-1.25 0.072-2.168 0.48-2.88-0.623-1.377-2.927-1.072-4.32-1.68-0.705-1.936-1.17-4.11-0.96-6.96 1.217-1.303 1.247-3.833-0.48-4.56-3.083 0.789-5.596-0.894-6.24-3.84-0.981 0.641-2.772 0.978-3.84 0.24-0.368-0.254 0.084-1.287-0.72-0.72-0.17-1.75-0.793-3.046-2.16-3.6-4.629 2.468-6.059-2.986-11.28-2.16-2.721-1.679-5.805-2.995-8.4-4.8-1.065-3.814-5.368-2.557-9.12-2.88-0.649-1.43-1.052-3.108-2.4-3.84-4.005-0.331-7.407-0.442-10.8 0.72-0.782-1.298-1.529-2.631-1.92-4.32-4.859-0.341-9.863-0.537-14.64-0.96-0.683-0.837-1.141-1.899-1.44-3.12-2.496-1.184-6.189-1.171-8.64-2.4-0.244 0.156-0.248 0.552-0.72 0.48-1.391 0.001-2.372-1.087-3.84-1.44-2.175-0.523-5.198 0.259-6.96-0.72-0.993-0.551-2.855-1.156-3.6-2.16-0.917-1.236-2.182-2.16-3.36-3.36-0.57-0.521 0.819-1.556-0.24-1.92 0.042-1.158 1.825-0.575 1.92-1.68 0.223-1.503-1.656-0.905-2.16-1.68-0.632 0.728-1.799 0.921-2.64 1.44-1.976 0.056-1.906-1.934-3.36-2.4-1.451-4.389-3.973-7.707-6.72-10.8-0.437-2.037 0.632-2.568 0.96-3.84-0.891-2.389-3.579-2.981-4.56-5.28-1.189 0.069-1.504-0.736-1.92-1.44-1.953-0.357-3.151-2.102-4.56-3.36-0.31-0.276-0.788-0.868-1.2-1.2-1.062-0.855-2.147-1.427-2.88-2.88 0.238-2.145 0.013-2.243 0.48-3.6-2.098-0.86-2.618-3.299-4.32-4.558 0.232-1.752-0.156-2.884-0.96-3.6 0.033-1.567 0.271-2.929 0.72-4.08 4.115 0.298 6.734-0.808 9.84 0.24 0.15 0.57 0.323 1.117 0.96 1.2 0.211 0.771-0.791 0.329-0.72 0.96 0.943 0.223 0.605-0.834 1.68-0.48 0.421 0.539 0.594 1.326 0.96 1.92 2.275-0.035 3.698 0.782 4.8 1.92 2.501-0.341 3.1 1.22 5.52 0.96 0.187 1.093 2.064 0.496 2.4 1.44 0.564-0.316 1.091-0.669 2.16-0.48 1.041 0.867 3.358 1.407 4.8 0.48 0.721 0.079 1.233 0.367 1.44 0.96 6.576 0.319 13.42 1.991 19.68 2.88 3.061 0.435 5.974-0.365 7.44 1.44 2.691-0.078 5.236 1.551 7.92 1.68 1.147 0.055 2.246-0.278 3.36-0.24 3.026 0.105 6.313 1.075 9.36 1.44 0.511 0.061 1.174-0.094 1.68 0 1.205 0.224 2.341 1.036 3.6 1.2 0.812 0.105 1.53-0.23 2.4-0.24 1.874-0.021 3.766 0.947 6 1.2 1.019 0.116 2.141-0.117 3.12 0 1.231 0.147 3.229 0.3 5.28 0.48 1.652 0.145 3.411 0.816 5.04 0.96 1.191 0.105 2.407-0.079 3.6 0 1.237 0.082 2.583 0.528 3.6 0.48 0.873-0.041 1.561-0.467 2.4-0.48 0.873-0.013 1.629 0.375 2.64 0.48 2.741 0.287 5.747-0.321 8.64 0 2.465 0.274 4.955 1.168 7.44 1.44 2.25 0.246 4.523-0.193 6.72 0 2.102 0.184 4.174 0.809 6.24 0.96 0.959 0.07 1.986-0.128 2.88 0 0.437 0.062 0.757 0.438 1.2 0.48 1.643 0.157 3.221-0.152 4.8 0 0.531 0.051 0.329 0.369 0.72 0.48 0.928 0.263 2.157-0.111 3.12 0 0.523 0.061 0.331 0.401 0.72 0.48 0.609 0.123 1.474-0.182 2.16 0 0.62 0.164 1.861 0.819 3.36 0.48v1.92c-3.208 0.019-5.927-0.085-8.88-0.48-0.5-0.067-0.352-0.44-0.72-0.48-1.045-0.114-2 0.129-3.12 0-0.526-0.061-0.328-0.384-0.72-0.48-1.777-0.436-4.004 0.192-6 0-0.531-0.051-0.327-0.384-0.72-0.48-1.594-0.391-3.555 0.166-5.28 0-0.531-0.051-0.327-0.383-0.72-0.48-1.637-0.402-3.947 0.175-5.76 0-0.53-0.051-0.33-0.365-0.72-0.48-0.828-0.245-1.967 0.129-2.88 0-0.519-0.073-0.332-0.382-0.72-0.48-1.515-0.384-4.364-0.6-5.04-0.48-0.925 0.164-1.469 1.201-2.4 1.44-1.034-0.006-1.549-0.531-2.16-0.96-3.493-0.272-6.962 0.364-10.32 0-0.969-0.105-1.899-0.6-2.88-0.72-4.158-0.511-8.742-0.15-12.24-0.72-3.798-0.619-7.76-0.533-11.52-0.96-0.973-0.11-1.91-0.573-2.88-0.72-2.08-0.315-4.195-0.016-6.24-0.24-2.247-0.247-4.885-1.003-6.96-1.44-1.464-0.308-3.033-0.414-4.56-0.72-8.251-1.656-19.88-2.673-29.04-4.32-1.744-0.313-3.447-0.705-5.04-1.44h-2.16c-1.724-0.835-3.772-1.348-6.24-1.44v-0.96c-2.915-0.206-5.212-1.028-7.92-1.44-0.794-1.767-2.448-2.672-5.28-2.4-0.839-0.441-1.412-1.148-2.4-1.44v-1.92c-0.575-0.145-1.095-0.345-1.92-0.24-0.494 0.638-1.156 1.372-1.2 2.16-0.069 1.243 1.114 2.124 1.2 3.36h2.4v0.96c2.179-0.419 2.98 0.54 3.36 1.92-0.928 1.472-2.176 2.625-3.36 3.84-0.046 0.926 1.504 0.256 1.92 0.72 0.531 0.749 1.848 0.712 1.92 1.92 1.042-0.242 1.07 0.53 1.44 0.96 1.929 0.551 3.454 1.507 5.52 1.92 0.74 0.18 0.293-0.827 1.2-0.48 1.86 0.3 3.29 1.031 4.8 1.68 0.646-0.313 1.104-0.817 1.68-1.2 2.215-0.185 3.134-1.666 5.76-1.44 0.321 1.279 1.199 2.001 0.96 3.84-0.573 0.547-1.095 1.145-1.44 1.92-0.151 0.602 0.394 0.338 0.72 0.48 0.589 0.256 1.927 0.969 3.36 0.96-0.116 0.836 1.171 0.269 1.2 0.96 0.947 0.138 2.152-0.176 3.36 0 0.515 0.075 0.344 0.33 0.72 0.48 0.937 0.374 2.341 0.286 3.36 0.48 2.261 0.43 4.455 0.989 6.72 1.44 4.606 0.917 9.103 1.472 14.16 1.68 2.816 0.116 5.599 0.066 8.4 0.24 2.812 0.175 5.512 0.83 8.4 1.2 5.776 0.741 11.81 0.996 17.76 1.2 6.371 0.219 12.813 1.019 19.2 0.24-0.547-1.362-0.833-2.602 0-4.08 0.79-0.492 1.83 0.471 2.4 0.96 3.26 0.477 8.071-0.306 9.6 1.68 4.302 0.026 7.368 2.54 11.28 2.16 0.008-1.453-1.527-2.626-1.44-3.36-0.101-0.821 0.719-0.721 0.96-1.2 1.436 0 2.552 1.401 4.08 1.68 1.509 0.275 3.022 0.002 3.84 1.2 0.989 0.188 1.232-0.369 2.16-0.24 0.743 0.137 0.906 0.854 1.44 1.2 3.555 0.412 7.891 0.506 11.28 1.68 1.25-1.194 1.539-2.333 3.36-2.16 0.27 0.025 1.262 0.598 1.68 0.96 0.388 0.336 1.083 0.701 1.92 1.2 0.465 0.277 0.899 0.836 1.2 0.96 1.658 0.684 3.829 0.427 5.52 0.96 0.693 0.218 1.147 1.032 2.64 0.72 0.771 0.75 1.709 1.331 2.64 1.92 1.002 0.202 1.133-0.467 1.92-0.48 2.155 1.125 3.996 2.564 6 3.84 0.956-0.564 2.508-0.532 4.08-0.48 1.085 1.521 0.615 3.874 0 5.52 1.027 1.317 2.938 1.642 5.04 2.88 0.541 0.319 1.876 0.177 2.88 0.48 0.979 0.296 1.983 0.983 2.88 1.44 0.883 0.45 2.263 0.801 2.4 1.92 1.214 0.288 2.874 1.697 3.84 2.64 0.917 0.895 2.177 2.165 1.92 3.6-0.244 0.636-1.441 0.319-1.44 1.2 3.006 1.474 5.569 3.391 8.88 4.56-0.332 0.972 0.521 0.759 0.48 1.44-0.333 0.788-0.676 1.564-1.44 1.92 0.088 0.872 0.775 1.145 0.48 2.4-0.98 0.62-2.265 0.936-2.88 1.92 0.58 1.1 1.895 1.464 2.88 2.16v3.12c0.825 1.095 2.33 1.51 2.64 3.12 1.399 0.36 2.329 1.191 3.6 1.68 0.882 1.306 0.412 3.206-1.44 3.12 1.406 0.754 3.301 1.019 3.84 2.64 0.248 1.368-0.997 1.244-0.96 2.4 1.027 1.612 3.748 1.532 6 1.92-0.126 1.122 1.191 0.643 1.68 0.96 0.461 0.299 0.267 1.644 1.2 0.96v2.88c-1.461 0.459-2.533 1.307-3.6 2.16 0.581 2.219 3.747 1.853 6 2.4 0.121 0.679 0.683 0.917 1.2 1.2 1.287 0.101 1.779-0.953 2.88-0.96 1.984-0.013 2.617 1.459 3.6 2.88 1.194-0.246 2.025-0.855 2.4-1.92 1.206 0.954 2.762 1.558 3.84 2.64 1.453-0.093 2.704 0.016 3.6 0.48 0.19 1.62 1.59 2.761 0.479 4.32-2.387 0.931-4.261 3.254-4.08 6-0.573 1.987-2.391 2.729-2.88 4.801 0.649 0.492 2.168 0.692 2.88 0.479 1.277-0.381 1.489-1.981 2.64-2.16-0.034-5.553 4.379-6.66 10.32-6.24 0.279-0.44 0.92-0.52 1.199-0.96h4.32c0.288-1.122 3.103-1.446 3.6-0.24-0.851 2.669-4.035 3.004-6.479 4.081-0.755 0.274-0.583-0.377-0.96-0.48-1.367 0.473-2.464 1.217-4.08 1.44-0.39 0.569-0.466 1.453-0.72 2.159-1.625 0.775-2.681 2.12-4.32 2.881v1.199c1.224 1.417 5.134 0.146 6.72 1.2 0.624 1.435-0.287 2.1-0.239 3.601 1.1 0.669 1.716-0.924 3.359-0.48 2.607 1.945 0.207 5.704-0.479 7.92 1.708 1.108 3.929 0.721 5.76 1.2 0.94 0.246 1.416 1 2.4 0.96 0.977-0.04 2.445-0.964 3.359-1.68 0.631-0.495 1.035-1.456 1.68-1.92 1.6-1.151 3.735-1.271 5.521-1.921 0.443-0.756 1.853-0.547 2.16-1.439 0.862-0.257 1.978-0.262 2.399-0.96-0.55-1.161-2.47 0.17-3.119 0.479h-1.44c-0.222 0.579-1.219 0.382-1.44 0.96-0.861-0.018-1.954 0.194-2.159-0.479-1.032 0.757-2.044 0.708-3.36 1.439-1.7 0.944-4.014 1.839-6.48 1.44-0.462-0.737-0.969-1.431-1.439-2.16-0.17-2.077 1.138-3.628 0-5.28-0.74-0.379-1.549-0.691-1.92-1.439-0.107-1.066 0.649-1.27 0.96-1.92-1.051-0.458-1.262-1.968-0.96-3.12 2.741-1.264 5.256-3.746 9.12-3.12-0.271 2.851-2.068 4.172-3.36 6 2.34-0.055 3.604-0.369 5.28 0.24 0.507 0.969 0.103 2.078-0.48 2.64-0.97 0.386-3.421-0.526-4.319 0.48 0.234 1.483 0.476 1.683 0.239 3.359 3.918-0.002 4.593-3.247 8.88-2.88 0.431-0.689 1.406-0.834 1.92-1.439 3.208-0.073 5.791-0.77 9.36-0.48 0.237 0.957-0.717 0.723-0.479 1.68 0.179 0.542 1.346 0.095 1.92 0.24 0.023-0.744-0.294-1.146-0.48-1.68-1.108-0.731-2.167-1.513-3.12-2.4-0.364-3.885 2.118-4.922 4.8-5.76 1.012 0.109 1.151 1.089 1.681 1.68 1.014-0.187 1.488-0.911 2.88-0.72 0.746-0.614 1.24-1.479 1.68-2.399 1.334-0.027 1.613-1.108 3.12-0.96 0.788-0.812 1.518-1.683 2.88-1.92 2.908-2.052 4.207-5.713 6.721-8.16 0.49-0.512 0.949 0.068 1.439 0.24 1.003-0.837 0.994-2.687 1.92-3.6 0.275-0.995-0.505-0.935-0.479-1.68 0.463-1.296 2.169-1.351 1.92-3.36 2.455-0.585 3.818-2.261 4.8-4.32 0.765 0.205 0.911-0.209 1.2-0.48 1.237-1.723 1.717-4.204 3.359-5.52 1.38-0.014 2.027 1.965 1.44 3.12-0.142 0.738-1.185 0.576-1.68 0.96-0.104 0.536-0.425 0.856-0.96 0.96 0.192 2.113-1.562 2.278-1.44 4.32 1.08-0.04 1.762-0.478 1.92-1.44 3.383-1.358 6.781-1.332 9.6-3.36 0.897-0.256 0.685 0.596 1.44 0.48 0.54-0.177 0.09-1.344 0.24-1.918zm-311.76-59.76c1.155 0.119 2.844 0.59 3.6-0.24-1.228-0.192-2.462-0.209-3.6 0.24zm80.88 6.72c-3.789-0.254-7.507 0.597-11.28 0.48-4.553-0.141-9.154-0.894-13.68-0.48-0.662 0.061-1.246 0.395-1.92 0.48-3.729 0.473-9.171 0.398-13.92 0-4.413-0.369-9.812-0.308-14.4-0.48-9.919-0.372-20.76-1.492-30.48-1.92-0.755-0.666-1.978-1.939-3.36-1.2-0.133-0.001-0.272 0.194 0 0.24 0.5 1.26 1.595 1.925 2.16 3.12-0.04 0.679 1.479-0.199 1.44 0.48 1.004 2.116 3.66 2.58 5.28 4.08 5.757 0.237 9.493-1.547 14.64-1.92 1.506 1.403 0.962 3.837-0.48 5.04-1.035 0.864-2.704 0.575-3.36 1.68 1.519 0.977 3.387 0.311 5.04 0.48 4.216 0.432 9.349 0.088 14.16 0 4.533-0.083 9.085 0.445 12.72 0 1.597-0.195 3.263 0.148 4.8 0 2.256-0.217 5.982-0.744 7.92-0.96 1.925-0.215 3.711 0.325 5.76 0.48 3.106 0.236 6.308-0.353 9.36-0.48 1.212-0.05 2.372 0.264 3.6 0.24 2.489-0.048 5.022-0.604 7.68-0.72 3.703-0.163 7.509 0.076 10.32-0.48-0.255-1.615 1.344-1.375 0.96-3.12-1.459-0.812-2.72-2.018-2.16-3.6-3.63-0.347-7.08-1.19-10.8-1.44zm14.4-0.96c-1.209 0.108-3.127 0.087-3.12 1.44 0.805 1.573 2.75 0.775 4.32 0.96 0.364 0.042 0.229 0.404 0.72 0.48 0.641 0.098 1.562-0.163 2.16 0 0.524 0.143 0.497 0.437 0.96 0.48 2.231 0.208 4.295-0.332 6.24 0-0.052-1.333 1.277-1.283 0.96-2.88-2.84-0.593-8.96-0.772-12.24-0.48zm19.2 6.24c-1.16-0.145-1.823 0.535-3.12 0.48-0.048 1.071-1.098 1.142-1.92 1.44-1.068 4.451-8.064 2.976-12 4.56 5.145-0.065 11.046 0.232 16.32 0.48 0.158-0.878-0.52-0.921-0.48-1.68 0.913-1.727 3.553-1.728 4.8-3.12-1.03-0.612-2.17-1.981-3.6-2.16zm-84 8.64c-1.378-1.024-3.073-0.487-4.8-0.48-3.33 0.014-7.906-0.583-11.52-0.48-0.647 0.019-1.848-0.427-2.16 0.48 1.211 0.805 2.641 1.184 3.6 1.92 2.084 1.599 4.959 0.956 8.88 0.96 1.878 0.002 3.814 0.423 5.28 0.48 1.107 0.043 2.292-0.599 3.12 0.24 0.411-0.789 2.021-0.379 3.12-0.48-0.057 1.018 1.018 0.903 0.96 1.92-1.017 1.704-4.331 1.109-5.52 2.64 0.825 1.038 2.282 0.372 3.6 0.72 0.622 0.164 1.188 0.861 1.92 0.96 2.142 0.29 4.438-0.593 6.48-0.96 0.457 0.904 2.407 0.313 3.6 0.48 2.479-1.041 6.822-0.218 10.08-0.48 3.537-1.344 10.135 0.375 13.68-0.96 0.238 0.642 0.955 0.805 1.2 1.44 4.181 0.181 7.148-0.852 11.52-0.48-0.179-1.059 0.185-1.575 0.72-1.92 0.187-0.053 0.279-0.201 0.24-0.48 1.936-0.447 3.69-0.236 5.52-0.48 1.466-0.195 3.095-1.28 3.84 0 0.298 1.658-1.839 0.881-1.68 2.4 2.3 0.3 3.171-0.829 5.52-0.48 1.794-2.286 5.363-2.796 7.68-4.56-5.618-0.792-12.73-0.736-18.24-1.2-9.847-0.829-18.608 1.411-27.12 0.48-1.343-0.147-2.519-0.723-3.84-0.72-1.272 0.003-2.312 1.013-3.36 0-0.732-0.228-0.426-1.494-0.48-2.4-6.979 0.167-14.827 0.612-21.84 1.44zm85.2 5.52c-0.031-0.431 0.238-0.562 0.72-0.48 1.041 0.678 2.315-0.155 3.6 0 0.241-1.198 2.453-0.427 2.16-2.16-1.974-0.442-5.36-0.573-6.72-0.24 0.3 0.133-0.99 2.525 0.24 2.88zm56.88 5.28c1.57-0.017 1.908 1.75 3.36 1.92 2.05 0.24 2.552-1.26 3.6-1.92 0.28-0.176 0.905 0.148 0.72-0.48-1.14-1.26-3.219-1.581-3.84-3.36h-0.96c-0.622-1.619-2.885-1.595-3.84-2.88h-1.92c-0.78 3.976 2.21 4.187 2.88 6.72zm-23.28-4.56c-1.15-0.667-0.58 0.787 0 0zm-60 1.2h0.72c0.031-0.431-0.238-0.562-0.72-0.48v0.48zm61.92 0.96h0.48v-0.48h-0.48v0.48zm12 0.96c-0.128 2.448 1.327 3.312 2.16 4.8 0.561-1.603 2.438-3.24 1.44-5.28-0.146-0.3-1.012-0.454-1.2-0.96-0.43 0.851-2.21 0.346-2.4 1.44zm-63.12 1.92c-6.123 0.5-12.753 0.423-19.2 0.96-3.623 0.302-7.62-0.349-10.56 0-0.608 0.072-2.464 0.363-2.4 1.2 1.396 0.364 3.282 0.238 3.36 1.92-0.129 1.391-1.765 1.275-1.68 2.88 1.595 0.297 3.078 1.021 4.8 1.2 4.814 0.501 7.799-0.843 11.52-1.44 7.515-1.207 15.583-0.458 21.6-2.4 0.565-0.005 0.707 0.414 1.44 0.24 1.81-0.954 4.681-0.714 6.96-1.2 0.807-0.172 1.371-1.078 2.16-0.48v-2.88c0.391-0.41 1.347-0.253 1.44-0.96-6.8 0.061-13.42 3.537-19.44 0.96zm68.64 4.08v1.92c1.933 1.188 3.595 2.645 6.48 2.88-1.328-2.353-2.381-4.979-4.56-6.48-0.58 0.619-0.88 1.518-1.92 1.68zm-42.48 0c-2.026 0.717-5.692 1.575-7.2 2.64-0.488 0.345-0.931 0.547-1.2 0.96-2.515-0.18-4.557 0.179-6.96 0.48-1.619 0.203-3.166 0.697-4.8 0.96-2.173 0.349-4.614 0.091-6.96 0.24-3.772 0.239-7.25 1.412-11.52 0.96-1.24 0.882-4.511 1.195-6 1.44-0.644 0.106-1.88-0.441-1.92 0.48 0.182 0.876 1.694 1.311 2.4 1.44 5.002 0.911 12.272-1.87 16.56-0.72-0.275 0.755 0.377 0.583 0.48 0.96 0.35 1.39-0.559 1.521-0.48 2.64 1.296-0.256 1.781 0.299 2.64 0.48 1.06-0.621 2.32-1.04 4.08-0.96 0.725-0.555 1.426-1.134 2.88-0.96 0.37-1.01-1.242-0.038-1.2-0.72-0.024-0.984-0.047-1.967 0.24-2.64 3.583-1.217 7.445-2.155 10.56-3.84 0.284 0.276 0.849 0.271 1.44 0.24 3.14-1.981 8.74-1.5 11.52-3.84-1.68 0.312-4-0.438-4.56-0.24zm53.04 1.44c2.023 1.03 1.469 4.072 0 5.28 0.345 0.375 0.605 0.835 1.2 0.96 0.869-1.583 3.37-0.485 4.56-0.72-1.569-1.471-3.019-3.061-3.12-6-0.99-0.528-2.02-0.04-2.64 0.48zm-24.24 0.96c-0.571 1.275-0.954 1.555-0.48 2.88h4.32c0.098-1.268 0.678-3.315 0.48-4.08-1.36 0.479-2.78 0.903-4.32 1.2zm12.24 7.2c0.536 0.104 0.856 0.424 0.96 0.96 2.444-0.285 2.823 1.497 5.52 0.96 0.535-3.175-1.995-3.286-4.08-3.84 0.208-0.928-0.402-1.038-0.72-1.44-1.11 0.568-2.03 1.33-1.68 3.36zm-48.72-1.2c-0.565 0.005-0.707-0.414-1.44-0.24-0.32 1.239 1.11 0.45 1.44 0.24zm19.92 3.6c-3.818-0.064-8.681 3.206-11.28 0h-5.04c-0.94 0.843-2.095 0.577-3.36 0.96-0.295 0.089-0.226 0.381-0.48 0.48-1.057 0.413-0.653-0.143-1.2 0.48-0.089 0.101-0.591-0.057-0.72 0-1.028 0.453-2.325 0.696-3.12 0.96-4.176 1.386-9.119 0.94-12.24 3.6h2.16c0.738 0.622 1.675 1.044 2.16 1.92 0.709 0.171 0.064 1.696 0.96 1.68 3.864-0.377 6.67-3.89 10.56-5.04 1.395 0.887 1.695 2.47 1.2 4.08 3.361-0.319 5.916-1.444 9.6-1.44 0.846-1.628 0.965-3.047 2.64-3.84 0.312-0.147 0.858 0.073 1.2 0 1.926-0.409 3.966-1.511 5.28-2.4 1.581 0.06 3.113 0.073 3.6-0.96-0.04-0.577-1.71-1.619-1.92-0.48zm40.8 0.96c1.128-0.248 0.924 0.836 2.16 0.48-0.005-0.565 0.414-0.707 0.24-1.44-0.86-0.895-2.5-0.468-2.4 0.96zm-29.52 0.48v-0.96c-1.128 0.248-0.924-0.836-2.16-0.48 0.19 1.014 0.92 1.484 2.16 1.44zm3.36-0.96c-1.106 1.648 0.37 4.054 2.4 4.08 0.392-1.528 1.378-2.462 1.68-4.08-2.12-0.298-1.85-0.152-4.08 0zm11.76 5.52c0.241-0.001 0.286 0.194 0.48 0.24 0-0.241 0.194-0.286 0.24-0.48-0.241 0.001-0.286-0.194-0.48-0.24 0 0.241-0.19 0.286-0.24 0.48zm-24.48 0.72c-1.485 0.553-3.866 0.476-5.76 0.96-1.246 0.319-2.131 1.024-3.12 1.2-1.156 0.206-2.311-0.131-3.36 0-2.763 0.345-5.43 2.051-8.4 1.92-2.36 1.32-5.135 2.226-8.64 2.4-1.451 1.589-3.499 2.582-4.8 4.32 2.557 0.083 4.499 0.781 7.44 0.48 1.729-0.99 4.85-0.59 6.72-1.44h3.12c1.386-1.014 3.763-1.038 6.24-0.96 0.692-1.361 1.9-1.965 3.12-2.64 2.007-1.11 4.135-1.818 6.24-2.4 2.555-0.707 5.274-1.422 8.16-1.68v-1.92c-1.55-1.018-5.46-0.799-6.96-0.24zm11.76 6h3.36c0.019-1.341 1.184-1.536 0.96-3.12-2.76-0.278-3.67 1.292-4.32 3.12zm9.36-0.48c1.102 0.818 2.418 1.422 3.84 1.92 0.98-1.879-2.37-3.256-3.84-1.92zm20.4 0.72c0.133-0.151 0.975-0.725 0.24-0.96-0.13 0.151-0.98 0.725-0.24 0.96zm5.28 3.6c0.869 0.251 2.784-0.544 2.88 0.48 0.696-0.547 1.224-0.547 1.92 0-0.296-0.777 0.777-0.184 0.48-0.96-1.498 0.218-1.96-0.6-2.4-1.44-0.297-0.777 0.776-0.184 0.48-0.96-0.63-0.65-1.316-1.244-2.88-0.96 0.2 1.643-0.19 2.694-0.48 3.84zm181.44-2.64c-0.829 0.568-1.366 1.053-2.4 1.2-0.633 1.127-1.559 1.961-1.92 3.36-4.309 3.211-6.848 8.192-8.88 13.68-0.477 0.003-0.305 0.655-0.96 0.48 0.04 1.528-1.04 3.054-1.439 4.8-0.322 1.402-0.988 3.598 0.479 4.32 1.373-0.787 2.496-1.824 4.56-1.92 0.953-2.088 3.396-2.684 3.841-5.28 1.629-0.371 2.535-1.464 2.88-3.12 0.776 0.296 0.184-0.777 0.96-0.48-0.322-1.088 0.779-1.326 0.96-1.68 0.128-0.251-0.137-0.713 0-0.96 0.141-0.255 0.844-0.424 0.96-0.72 0.1-0.254-0.142-0.731 0-0.96 0.188-0.306 0.783-0.378 0.96-0.72 0.176-0.34 0.071-0.812 0.24-1.2 0.241-0.556 0.496-1.12 0.72-1.68 0.067-0.169 0.461-0.19 0.479-0.24 0.295-0.775 0.14-1.938 0.48-2.88 0.266-0.732 0.841-1.253 0.96-1.92 0.151-0.842-0.051-1.923 0-2.88 0.049-0.919 0.635-1.78 0-2.4h-1.92c0.23 1.212-0.37 0.796-0.96 1.202zm-229.68 1.2c1.841 0.802 4.118 1.465 5.52-0.24-1.61-0.232-4.62-1.655-5.52 0.24zm17.04 6.958c3.275 1.071 4.432-1.837 7.68-0.96 1.061-1.111 0.74-3.146-0.24-4.08-3.77 0.393-6.26 2.06-7.44 5.04zm17.28-2.638c1.447 0.327 1.766-0.474 2.88-0.48-0.377-0.937 0.367-1.747-0.48-1.92-0.76 0.838-2.27 0.929-2.4 2.4zm-1.68 0v-0.96h-0.96c-0.19 0.826 0.13 1.146 0.96 0.96zm-38.16 0.48c-0.577 0.041-0.655-0.405-1.2-0.48-3.376-0.467-5.6 0.799-8.16 1.44-1.091 0.273-2.254 0.176-3.36 0.48-2.164 0.596-4.147 1.96-6.72 1.92-0.902 1.818-3.805 1.635-4.8 3.36 0.22 1.299 1.298 1.742 1.92 2.64 3.727 0.293 6.773-0.233 8.88-0.96 0.925-0.319 2.021-0.204 2.88-0.48 1.694-0.545 4.548-2.181 6-2.64 0.615-0.194 1.445 0.019 2.16-0.24 0.972-0.351 1.585-1.375 2.64-1.2 0.137-0.743 0.854-0.906 1.2-1.44 1.026-0.494 2.314-0.726 2.64-1.92-0.41-0.391-0.253-1.347-0.96-1.44-1.03 0.398-2.06 0.886-3.12 0.962zm160.32 3.358v1.92c0.892-0.228 0.419-1.821 1.92-1.44v-0.96c-1.12-0.32-0.8 0.8-1.92 0.48zm85.44 7.92c1.425-1.635 4.115-1.533 5.521-3.12 0.354-0.401 0.729-1.86 0.96-2.16 0.437-0.566 0.651-1.079 0.479-2.16-0.292-0.027-0.568-0.072-0.479-0.48-4.356 1.004-7.287 3.433-8.16 7.92h1.68zm-219.12-5.28c1.157 0.501 2.712 0.013 2.88-1.2-1.04 0.32-2.34 0.38-2.88 1.2zm-26.16 1.2c-2.292 1.387-4.259 3.101-7.44 3.6-1.158 1.002-2.426 1.894-4.56 1.92-1.414 1.866-5.043 1.516-5.76 4.08 0.377 0.183 0.358 0.762 0.96 0.72 1.728-1.232 4.059-1.861 5.52-3.36 2.321-0.319 3.161-2.119 5.52-2.4 1.499 0.502 1.144 2.12 0.96 3.84 1.236 0.356 1.032-0.728 2.16-0.48 2.306-3.374 6.548-4.812 9.84-7.2 0.896 0.022 0.684 0.269 1.44 0 0.344-0.856 1.445-0.955 1.92-1.68-3.88-0.04-6.32 1.36-10.56 0.96zm49.44 0c-0.893 1.347-0.235 4.245-1.2 5.52 1.097 0.137 0.853-1.067 1.68-1.2 0.604 0.195 2.325-0.548 3.84-0.24 0.066 0.494 0.894 0.226 0.96 0.72-0.15 1.351 0.715 1.685 0.96 2.64 2.536 0.024 5.706-0.586 5.28 2.4 0.477 0.483 1.503 0.417 2.16 0.72 0.42 1.021 0.179 2.701 0.24 4.08-0.613 1.147-2.095 1.426-2.4 2.88 0.767 1.541 2.787 1.145 4.8 0.96 0.449-0.43 0.287-1.473 0.96-1.68 1.898-0.138 2.822 0.698 2.88 2.4-0.124 0.836-0.962 0.957-0.72 2.159 0.855 0.345 1.621 0.779 2.4 1.2 0.056-0.744 0.851-0.749 1.44-0.96-0.254-1.04 0.409-0.944 0.72-1.2 0.238-0.195 0.246-0.53 0.48-0.72 1.917-1.546 5.543 1.179 7.2 0 0.077-1.276-1.157-1.243-1.68-1.92-0.983-1.656-2.199-3.08-3.36-4.56-1.146 1.174-2.79 1.85-5.04 1.92-0.751-0.849-2.003-1.197-2.64-2.16-0.315-1.092 0.133-2.018-0.48-2.4-0.434-0.648-0.88 0.701-1.92 0.24-1.119-1.121-1.474-3.006-1.68-5.04-1.465 0.185-2.13-0.43-2.88-0.96-0.626-2.546 1.587-2.253 2.4-3.36-0.423-0.217-0.743-0.537-0.96-0.96-1.854 0.124-3.134 2.228-5.04 2.64-1.648 0.356-3.055-0.37-5.04-0.48-0.67-1.33-1.29-2.7-3.36-2.64zm122.64 0.72c-3.413 0.909-8.386-0.176-10.561 2.4h-2.16c-0.267-0.453-0.337-1.103-0.96-1.2-1.092 1.286 0.611 2.794-0.479 4.08 2.019-0.359 3.483-2.347 6-2.4 0.857-0.018 2.014 0.661 3.12 0.72 1.573 0.084 3.159-0.374 4.56-0.24 0.402 0.039 0.795 0.411 1.2 0.48 0.863 0.147 2.026-0.305 2.64 0.48 0.204-0.356 0.604-0.516 1.2-0.48 0.855-0.264 2.891 0.651 2.64-0.72-2.87-0.57-5.89-0.98-7.2-3.12zm-130.8 2.4c-1.692 0.388-1.825 2.336-3.6 2.64-0.217 0.983-0.733 1.667-1.92 1.68 0.316 1.117-0.797 0.803-0.48 1.92h1.92c1.224-1.176 1.834-2.966 3.36-3.84v-0.96c0.819-0.586 2.705-2.241 1.92-2.88-0.52 0.37-0.74 1.03-1.2 1.44zm-30 0.24c0.547 0.067 0.902-0.058 0.96-0.48-0.28-0.3-1-0.19-0.96 0.48zm-5.04 3.12c-2.688 0.111-3.239 2.361-5.52 2.88-0.041 0.359 0.085 0.886-0.24 0.96-3.26 0.58-4.997 2.683-8.64 2.88-0.164 0.716-1.049 0.711-0.96 1.68 4.839 0.172 9.539-0.131 13.92-1.44 0.986 0.294 1.735 0.825 3.12 0.721 1.919-0.961 4.218-1.543 5.76-2.88 1.84-0.4 3.498-0.982 4.8-1.92h1.2c0.76-0.76 1.688-1.352 3.12-1.44 0.739-1.418 3.231-1.828 2.64-3.84-2.578 0.013-4.373-0.885-6.48-0.48-2.28 0.439-3.271 2.84-5.52 2.88-1.161 1.559-3.048 2.391-4.32 3.84-1.17 0.21-1.584-0.336-2.16-0.72-0.663-1.89 0.571-3.241 1.44-4.32-0.269 0.024-0.374-0.349-0.48 0-0.67 0.3-1.12 0.8-1.68 1.2zm194.4-2.4c-0.455 0.745-1.029 1.371-1.92 1.68-0.235 1.605-0.768 2.913-1.92 3.6-1.494 4.469-4.635 7.799-4.561 12.959 0.043 2.942 1.114 5.884 0.721 9.601-0.952 0.504-0.319 2.413 0.479 2.64 1.271-0.648 1.602-2.238 1.92-3.84 0.728-0.553 1.357-1.202 1.44-2.4h0.96v-1.439c1.368-0.231 1.15-2.05 2.399-2.4 0.465-1.468 0.26-2.754 0.48-4.319 0.4-2.841 2.204-5.42 2.16-8.16-0.043-2.601-1.549-4.892-1.44-7.92h-0.72zm-170.4 3.84h0.72c0.031-0.431-0.238-0.562-0.72-0.48v0.48zm43.92 1.92h0.72c-0.041-0.359 0.086-0.886-0.24-0.96 0.3 0.78-0.78 0.18-0.48 0.96zm-26.88 0c-1.161-0.021-0.776 0.306-1.2 0.72-0.546 0.533-1.799 1.266-2.16 1.92-0.331 0.601-0.177 1.516-0.48 2.16-0.03 0.063-0.421-0.051-0.48 0-0.112 0.1 0.08 0.587 0 0.72-0.545 0.919-0.59 2.793-0.48 4.32 3.358-1.121 5.074-3.886 6.96-6.479 0.171-1.211-0.738-1.343-0.48-2.641-0.6 0.02-1.12-0.71-1.68-0.72zm-17.76 3.12c0.896 0.942 2.419 0.785 3.36 0 0.099-1.139 0.002-2.082-0.48-2.64-2.38-0.54-2.38 1.31-2.88 2.64zm214.56-1.68c-3.626-0.403-8.593 0.449-10.561 1.92h-1.68c-0.358 0.717-1.022 0.679-1.44 0.96-1.676 1.124-2.686 1.743-3.84 3.12-1.321 1.576-2.436 2.959-3.6 4.319-2.873 1.288-4.797 3.523-8.16 4.32v2.399c2.795 0.953 6.654 0.327 9.6 0 0.408-0.771 1.237-0.989 1.92-1.439 1.041-0.686 1.935-1.291 2.88-1.92 0.366-0.244 0.645-0.777 1.2-0.48 0.27-1.209 1.574-1.16 2.4-1.92 0.569-0.523 1.086-1.733 1.439-1.92 0.394-0.207 0.217-0.255 0.48-0.479 3.904-3.336 7.893-5.332 13.2-6.96-0.23-1.48-2.39-1.76-3.84-1.92zm-162 2.4c0.571-0.438 0.849-1.166 0.48-1.92h-1.2c-0.16 1.04 0.27 1.49 0.72 1.92zm-27.36 0c0.084-0.044-1.574 1.631-1.44 1.44-0.34 0.484-0.168 1.396-0.48 1.92-0.167 0.279-0.861 0.556-1.2 0.96-0.708 0.845-0.882 1.39-1.68 1.68h2.4c0.204-0.836 1.183-0.896 1.92-1.2-0.136-0.648 0.898-1.024 1.44-1.68-0.029 0.035 1.111-2.365 0.96-1.68 0.086-0.39 0.386-1.622-0.48-1.92-0.1 1.08-0.95 0.23-1.44 0.48zm-50.16 4.32c-0.694 0.985-1.878 1.481-3.36 1.68-0.36 1.008-1.357 0.664-2.16 0.96-0.561 0.207-0.952 0.787-1.44 0.96-0.983 0.348-2.292 0.651-3.36 0.96-2.372 0.686-5.396 0.87-5.76 3.36 1.766-0.713 2.819-0.287 3.84 0 1.473 0.414 2.009 0.429 3.6 0.479 0.206-0.674 1.298-0.462 2.16-0.479 0.245-0.635 0.962-0.798 1.2-1.44 2.837-1.402 5.302-3.178 7.92-4.8h0.96c1.521-1.919 4.636-2.244 5.76-4.56-3.84-0.68-5.8 2.49-9.36 2.88zm216.48-0.96c0.041 0.602-0.538 0.582-0.721 0.96-2.694 1.465-4.565 3.755-6.96 5.52 2.646-0.074 3.41-2.03 5.761-2.399-0.18-0.74 0.827-0.293 0.479-1.2 1.54-0.38 2.411-1.429 2.88-2.88h-1.44zm-78.72 4.08c1.651 0.131 0.979-2.062 2.4-2.16-0.175-0.545 0.433-1.873-0.48-1.68-0.82 1.11-2.2 1.64-1.92 3.84zm37.92 3.84c-0.474 1.061-0.585 1.71-1.439 1.92 0.139 1.195-0.728 2.701-0.96 3.12-1.672 3.01-1.046 6.349-1.44 10.56-0.038 0.413-0.423 1.027-0.479 1.44-0.107 0.775 0.105 1.473 0 2.16-0.056 0.358-0.388 0.24-0.48 0.72-0.523 2.707-1.442 6.737 0.96 7.92 1.209-2.071 2.599-3.961 4.32-5.52 0.289-1.631 1.126-2.714 1.92-3.841 0.525-3.081 0.872-6.506 1.44-8.88 0.273-1.145 0.21-2.365 0.479-3.6 0.439-2.012 1.56-3.914 1.68-6 0.13-2.244-0.565-4.212-0.72-6.72-0.053-0.188-0.201-0.279-0.479-0.24-1.22 2.78-3.65 4.39-4.8 6.96zm-192.72 20.4c0.158-0.962 0.84-1.399 1.92-1.439 1.017-1.539 2.463-2.294 4.08-3.36 1.074-0.708 1.929-1.47 2.64-1.92 0.537-0.34 1.498-0.55 2.16-0.479 1.006 0.67 0.272 2.194 0.48 2.88 1.989-0.945 3.081-2.63 4.56-3.84 0.838-0.687 1.874-1.021 2.64-1.681 0.593-0.511 0.843-1.33 1.44-1.92 0.584-0.577 1.461-0.869 1.92-1.439 0.312-0.389 0.222-1.051 0.48-1.44 0.33-0.496 1.232-0.899 1.68-1.439 0.949-1.146 1.588-3.572 3.12-3.841 0.763-1.717 1.648-3.312 2.64-4.8-1.124-0.551-2.186-1.327-3.36-1.2-1.26 0.138-1.432 0.934-2.4 1.681-0.942 0.726-1.791 1.113-2.4 1.68-0.612 0.569-1.293 1.361-1.92 1.68-0.177 0.09-0.559-0.112-0.72 0-0.317 0.223-0.321 0.84-0.72 0.96-0.975 0.295-0.78 0.568-1.44 0.96-0.674 0.401-1.423 0.288-1.92 0.96h-1.2c-0.386 0.914-0.852 1.786-1.68 2.4-0.417 0.31-1.249 0.242-1.68 0.48-0.07 0.038 0.056 0.415 0 0.479-0.099 0.112-0.586-0.079-0.72 0-1.126 0.669-2.288 1.882-3.12 2.64-1.178 1.073-2.112 1.759-3.36 2.641-0.985 2.615-2.424 4.775-4.8 6-1.612-0.709-3.148-1.492-4.08-2.88-3.613-0.827-6.1 1.155-7.92 2.88-1.128-0.248-0.924 0.836-2.16 0.479-0.03 0.689-0.3 1.14-1.2 0.96-0.007 1.593-2.566 2.085-1.2 3.601 0.921-0.845 1.515-0.674 3.36-0.721 3.262-1.377 7.232-2.047 11.04-2.88 0.043 0.917 1.267 0.653 0.96 1.92 0.862 0.019 1.954-0.194 2.16 0.48-0.03-0.43 0.24-0.56 0.72-0.48zm40.32-24.48c-2.792 0.009-3.905 1.695-4.8 3.6-1.043 0.397-1.744 1.137-1.92 2.4-1.914 1.366-3.154 3.405-4.56 5.28-0.946 0.094-1.245 0.835-1.68 1.439-0.704 0.416-1.509 0.73-1.44 1.92 0.933 0.508 1.858 1.022 2.88 1.44 1.937-0.581 3.933-0.714 5.76-2.16 0.571-0.452 1.051-1.449 1.68-1.92 0.241-0.181 0.75-0.1 0.96-0.24 0.892-0.593 1.014-1.934 1.2-3.12-0.579-0.221-0.381-1.219-0.96-1.439 0.55-2.811 3.511-3.21 3.6-6.48-0.35-0.13-0.58-0.37-0.72-0.72zm26.4 1.92c0.733 0.174 0.875-0.245 1.44-0.24-0.146-0.494 0.387-1.667-0.48-1.439 0.01 0.9-1.16 0.6-0.96 1.68zm10.8 0c-0.649-0.585-2.275-1.146-3.12-0.96-0.384 0.085-2.228 1.845-2.64 2.64-0.958 1.849 0.153 3.487 0.96 4.08 1.189 0.874 3.597 2.738 5.76 2.641 0.77-3.32 0.96-6.67-0.96-8.4zm72.24-0.96c-0.017 0.003 0.016 0.223 0 0.24-1.14 1.3 1.15-0.44 0-0.24zm-104.88 5.04c1.891 0.45 1.47-1.41 3.36-0.96 0.074-1.206 1.846-0.714 1.92-1.92-1.724 0.284-1.553-1.328-2.64-1.681-0.76 1.64-2.3 2.5-2.64 4.56zm58.32-2.4c1.158 0.358 1.002-0.598 0.96-1.439-0.83-0.03-1.12 0.49-0.96 1.44zm119.76 0v0.96c1.11 0.23 1.118-0.642 1.68-0.96 0.378-0.022 0.833 0.032 0.721-0.479-1.03-0.06-1.19 0.74-2.4 0.48zm-157.68 0.96c0.536-0.104 0.855-0.424 0.96-0.96h-0.96v0.96zm44.16 2.88c0.335 1.376-1.13 0.951-0.96 2.16 2.046-0.193 4.092-0.388 4.56-2.16-1.54-0.32-2.16-0.62-3.6 0zm66.72 0c-0.167 0.986-0.766 1.837-1.2 2.4-0.731 0.95-2.396 1.964-2.64 2.88-0.078 0.293-0.403 0.084-0.48 0.24-0.773 1.562-1.317 2.807-2.16 4.08-0.632 0.954-1.16 2.41-1.68 3.12-0.635 0.866-1.031 2.308-1.439 2.88-0.44 0.615-0.609 1.229-0.96 1.92-0.96 1.892-2.163 3.927-2.641 5.76-0.407 1.563-0.275 3.162-0.479 4.8 1.762 2.24 0.904 5.403 0.479 8.4 3.317-0.683 3.721-4.279 6.48-5.52 0.072-0.968 0.764-1.316 1.439-1.681 1.695-3.985 3.277-8.082 5.28-11.76-0.377-4.472-0.587-8.078 0-12.48 0.827-1.637 2.632-3.357 2.16-5.52-1.24-0.36-1.03 0.73-2.16 0.48zm-89.04 1.68c1.014 0.985 2.719 1.28 3.12 2.88 2.016-0.117 4.307-0.069 6.24 0.96 1.277-0.357 2.341-3.264 0.24-3.6-0.794 1.126-2.406 1.434-3.84 1.92-1.54-1.07-4.38-6.01-5.76-2.16zm-32.16 0.72c-1.129 2.662-4.782 3.918-7.44 1.92-1.929 0.23-2.616 1.704-4.08 2.4 0.09 1.369-0.985 1.574-1.68 2.16-1.174 1.413-1.002 3.949-1.44 6.239-0.282 1.474-1.501 3.053 0.24 3.601 1.802-0.838 2.002-3.277 5.28-2.641-0.062 0.703 0.543 0.738 0.48 1.44-1.869 2.212-5.34 2.82-7.68 4.56-0.205 0.676-0.775 0.985-0.72 1.92-2.304 2.416-6.267 3.174-9.36 4.801-0.626 1.214-1.525 2.155-2.64 2.88h-0.96c0.033-1.478 0.081-2.533 0.48-4.08 2.538-1.462 4.931-3.069 6.96-5.04 0.612-0.028 1.235-0.045 1.2-0.72-0.294-1.974-2.931-2.792-4.8-2.4-0.241 1.003 0.032 1.982-0.48 3.12-4.338 2.302-8.035 5.245-10.8 9.12-1.013-0.054-1.07 0.85-1.92 0.96-0.33 1.209 0.492 1.268 0.48 2.16-0.516 0.203-0.556 0.883-0.48 1.68-0.681-0.041-0.468 0.812-1.44 0.48 0.281 1.321-1.263 0.816-1.2 1.92-0.907-0.348-0.46 0.659-1.2 0.479-0.975 2.065-3.164 2.916-4.32 4.8 0.077 0.563 0.743 0.537 0.96 0.96 2.25-0.229 2.847-2.112 4.8-2.64 0.041-0.359-0.086-0.886 0.24-0.96 1.167-0.514 2.174-1.187 3.36-1.68 0.08-1.324 0.979-3.049 1.2-3.601 0.327-0.816 0.229-0.723 0.72-1.439 0.636-0.929 0.638-1.859 1.2-2.641 0.417-0.578 1.394-0.779 1.68-1.439 1.969-0.369 1.979 1.221 2.88 1.92-0.531 1.658-1.928 3.633-1.2 5.76 1.854 0.015 2.402-1.278 3.6-1.92 0.25-2.311 2.564-2.556 2.88-4.8 1.228 0.027 1.276-1.124 2.16-1.44 1.255-0.295 1.528 0.392 2.4 0.48 1.94-1.659 3.224-3.976 6-4.8 2.403 1.208 4.607 1.668 6 3.84 1.143 1.782 1.112 4.921 3.84 5.279-0.444-2.117 0.767-4.07 0-5.04 0.925-1.715 2.476-2.804 3.6-4.319 2.573-0.627 3.561-2.84 6.72-2.88 0.735 0.146 1.25 0.51 1.92 0.72 0.66-2.061 1.707-3.733 3.6-4.56 0.4 0.239 0.17 1.109 0.72 1.199-1.323 1.752-1.357 5.406-4.56 4.561-2.681 2.199-6.763 2.996-6.72 7.92 1.11 0.229 1.119-0.642 1.68-0.96 3.801-0.519 4.324-4.316 7.2-5.76 0.443 0.355 1.14 0.459 1.92 0.479 1.502-2.338 3.567-4.112 5.04-6.479h1.2c0.355 1.085 1.043 1.836 1.68 2.64 0.656-1.504 0.471-3.85 0.48-6 1.409-1.23 2.519-2.762 2.88-5.04-0.708-1.829-1.38-2.123-2.64-3.36-1.336-1.312-3.127-3.589-4.8-3.84-2.419-0.363-4.865 2.402-6.24-0.24 0.292-1.491-0.544-1.855-0.479-3.119-3.07-1.32-5.84 0.76-8.4 1.44zm-56.88 0.48c0.187 0.826-0.134 1.146-0.96 0.96v1.68c2.009 0.896 5.452 0.129 5.28-2.64-1.2-1.36-2.75-0.24-4.32 0zm-6.48 0.48c-2.293 0.77-3.71 1.505-5.52 2.4-1.245 0.615-3.173 1.042-3.12 2.399 2.946 0.878 5.047-1.573 7.2-2.64 1.285-0.636 3.304-0.642 3.6-2.4-1.01-0.79-1.8 0.12-2.16 0.24zm108.72 5.76c2.133-0.63 3.259-1.256 5.28-0.96-0.375-0.665-0.607-1.473-1.44-1.68-0.83 1.02-3.85 0.67-3.84 2.64zm-16.56 2.64c3.52-0.16 7.241-0.119 9.12-1.92-1.082-1.657-4.542-0.065-6.24 0-0.92-1.001-1.924-1.916-3.6-2.16-0.21 1.81 0.95 2.26 0.72 4.08zm114.24 6.24c1.444-0.315 2.077-1.442 3.36-1.92-0.791-3.05 0.431-5.472 0-7.92-1.39 3.01-2.45 6.35-3.36 9.84zm42.24-2.88c-1.174-0.999-2.805-0.285-4.08-0.479-0.308-0.047-0.315-0.354-0.72-0.48-0.869-0.27-2.129-0.229-2.88-0.479-1.283-0.429-2.345-1.777-3.841-1.44-2.663-3.176-10.177-3.575-14.88-1.92-1.962 2.117-4.282 3.877-6 6.24 0.647 0.473 1.771 0.47 1.92 1.439 1.282 0.504 2.778 0.485 4.32 0.961 1.507 0.464 2.8 1.625 4.32 1.92 3.062 0.592 7.498 0.342 10.56 0 1.848-0.207 3.338-1.036 4.561-1.44 2.49-0.822 4.443-1.039 5.76-2.4 1.238-0.071 2.956-0.735 3.359-0.96 0.717-0.397 1.933-0.267 1.681-1.199-0.84-0.35-3.59-0.56-4.08 0.24zm-218.88-0.96c-3.152-0.191-5.128 0.792-6.48 2.4h-1.68c-0.307 0.893-1.717 0.684-2.16 1.439-4.102 0.538-7.336 1.944-11.28 2.641-1.03 0.069-0.789-1.131-1.68-1.2-1.333 1.547-4.51 1.25-5.76 2.88-0.368 0.005 0.12 1.133 0.24 1.44 3.626 0.899 7.979-1.419 11.76-1.92 2.491-0.331 3.781 0.275 4.56 1.68 0.14 0.939-0.206 1.394-0.48 1.92 1.533 1.107 2.978 2.303 5.04 2.88 1.294-0.546 2.157-1.522 3.6-1.92 2.782-3.298 6.994-5.167 9.84-8.4 2.895-1.665 6.687-2.433 8.16-5.52-0.391-0.489-0.504-1.256-0.96-1.68-5.8-0.44-9.16 1.56-12.72 3.36zm-43.2-1.44c-4.43-0.43-5.068 2.932-8.64 3.359-0.575 0.897-2.229 1.467-2.88 1.92-0.839 0.585-1.583 0.997-2.64 0.961-0.635 1.364-2.402 1.598-3.84 2.159-0.853 1.308-3.031 1.289-4.08 2.4-3.276 0.768-4.753 3.828-7.44 5.28-0.67 0.362-1.477 0.365-2.16 0.72-1.38 0.717-2.648 2.377-4.32 2.64-0.137 0.743-0.854 0.906-1.2 1.44-0.943-0.223-0.605 0.834-1.68 0.479-0.158 0.962-0.84 1.4-1.92 1.44-0.801 1.198-1.88 2.119-3.6 2.4 0.053 0.933-0.099 1.661-1.2 1.439 0.104 1.336 0.762 2.118 1.44 2.88 5.071-3.329 11.26-5.54 15.12-10.08 5.118 1.198 4.811-3.029 8.4-3.359 0.627 0.861 0.009 2.137-0.24 2.88-0.95-0.311-0.49 0.79-1.44 0.479-0.507 1.813-2.631 2.009-4.08 2.88-0.206-0.674-1.298-0.462-2.16-0.479-1.146 2.295-4.178 2.702-4.56 5.76h-0.96c-0.468 1.372-1.479 2.201-2.88 2.641-0.038 0.282 0.041 0.681-0.24 0.72-2.263 1.336-4.51 2.689-6.24 4.56 1.883 0.597 2.816 2.145 5.04 2.4-0.125-1.325 0.514-1.886 1.2-2.4 2.637-0.003 2.711-2.568 5.04-2.88 0.114-0.846 0.764-1.156 1.2-1.68 2.522-0.203 3.86 0.78 5.52 1.439 1.284-0.833 4.19-4.949 6.96-4.08 0.926 0.291 1.113 1.689 0.96 3.12-1.717 1.563-3.456 3.104-5.28 4.561v2.399c0.908-0.347 0.461 0.66 1.2 0.48 1.821-0.979 1.906-3.694 3.6-4.8-0.319-2.239 1.759-2.081 1.44-4.32 3.697-2.703 7.64-5.16 11.28-7.92 1.085-3.155 4.672-3.808 5.28-7.44 1.119-0.749 1.646-1.493 3.36-1.68 0.572-0.062 1.092 0.459 1.68 0.48 2.614 0.095 5.319-1.024 5.28-3.12-1.86-0.431-2.685 1.334-4.08 1.439-2.289 0.175-3.057-1.706-4.8-2.88-0.798 0.19-1.823 1.039-3.12 1.44-1.101 0.34-0.806 0.315-1.44 0.72-0.432 0.275-1.535 0.655-1.92 0.72-1.447 0.245-2.013 0.572-2.88 0.721-1.038 0.177-1.919-1.325-2.16-2.16 1.078-1.488 2.976-2.678 4.56-3.84 0.583-0.429 1.452-0.967 2.16-0.961 0.711-1.209 1.858-1.981 3.36-2.399 0.005-1.034 0.53-1.55 0.96-2.16-0.46-0.1-1.03-0.08-0.96-0.72zm175.68 5.28c-0.234 2.598-1.724 5.914-1.92 8.16-0.412 4.721 0.871 9.889-3.359 11.761-0.49 1.747-2.338 3.156-1.921 5.04 3.637-0.844 8.195-0.766 12-1.44-0.385-3.431 0.715-6.97 0.48-9.36-0.145-1.478-0.988-2.805-0.96-4.319 0.024-1.343 0.608-3.205 0.96-4.801 0.562-2.555 1.146-5.242 1.92-6.96-3.49-0.45-4.43 1.65-7.2 1.92zm-23.76 0h0.48v-0.479h-0.48v0.48zm-3.6 2.4c-0.384 2.017-2.475 2.326-2.88 4.32-1.302 0.779-2.654 1.506-3.601 2.64-6.053 2.748-7.733 9.866-8.16 18.24 0.556 0.325 0.796 0.965 1.92 0.72 0.686-0.754 1.507-1.374 2.641-1.68 0.763-1.077 1.356-2.323 2.88-2.641-0.119-0.919 0.33-1.27 0.96-1.439-0.264-2.184 1.314-2.525 0.96-4.8 0.538-0.822 0.949-1.771 0.96-3.12 1.237-0.843 1.039-3.121 2.4-3.84 0.255-3.266 2.654-4.386 3.119-7.44 0.974-0.707 1.787-1.573 1.921-3.12-0.054-0.187-0.201-0.279-0.48-0.24-0.94 0.74-1.38 1.98-2.64 2.4zm-5.28-1.92c-1.54-0.28-0.53 0.74 0 0zm25.44 1.68c-0.753 0.843-1.726 1.356-2.399 2.16-0.365 0.435-0.647 1.118-0.96 1.44-0.653 0.672-1.674 0.984-2.16 1.68-0.356 0.509-0.098 1.5-0.96 1.68v1.681c-0.641 0.456-0.604 0.647-0.96 0.96-0.115 0.102 0.086 0.586 0 0.72-0.049 0.075-0.409-0.062-0.48 0-0.121 0.107 0.105 0.593 0 0.72-0.172 0.209-0.835 0.307-0.96 0.48-0.15 0.21 0.11 0.722 0 0.96-0.092 0.199-0.884 0.357-0.96 0.479-0.17 0.275 0.361 1.229-0.479 0.96-0.963 3.171-0.902 7.187 0.96 9.36-0.074 1.139-0.27 1.371-0.48 2.16-0.064 0.242-0.443 0.142-0.479 0.24-0.134 0.36 0.092 1.041 0 1.439-0.083 0.36-0.567 1.104-0.72 1.44-0.631 1.389-1.647 3.244 0 4.319 1.278-0.561 2.552-1.127 2.64-2.88 1.546-0.134 2.16-1.2 3.12-1.92 1.454 0.095 2.656-0.063 3.12-0.96-1.5-0.694-3.128 0.548-4.32 0.96-0.768-0.753-0.404-2.636-0.48-4.08 0.887-0.875 1.708-2.175 2.16-2.88 0.56-0.871 0.614-1.192 1.2-1.92 0.686-0.851 0.946-1.512 1.44-2.64 0.252-0.577 0.761-1.074 0.72-1.681 0.776 0.297 0.184-0.776 0.96-0.479-0.174-0.733 0.245-0.875 0.24-1.44 2.943-2.987 3.705-10.334 1.439-14.64-0.71 0.56-0.67 1.08-1.2 1.68zm-27.36-0.72c0.385-0.668-1.037-0.664-0.96-0.24 0.45-0.05 0.53 0.27 0.96 0.24zm-6 1.92c-1.316 0.527-2.714 1.004-3.36 1.92 2.729-0.87 5.596-1.604 7.44-3.359-1.64-0.19-2.84 0.94-4.08 1.44zm-30.24 2.88c0.785 0.487 2.605 0.305 3.12-0.24v-2.64c-1.58 0.43-2.6 1.4-3.12 2.88zm129.6-0.72h1.44c0.198-0.679-0.338-0.622-0.24-1.2h-1.2v1.2zm-17.52 0.48c-0.675 0.045-1.022 0.418-0.96 1.2 0.896 0.257 0.684-0.596 1.44-0.479 1.131 0.469 1.054 2.146 2.159 2.64 1.061-1.497 1.493-3.449 1.681-4.8-1.36 1.31-4.38-1.45-4.32 1.44zm-79.68 1.2c0.436 0.196 2.015-0.745 2.399-1.2-0.61-0.36-2.16 0.4-2.4 1.2zm15.36 0.96c-2.031 3.329-2.998 7.722-4.319 11.761-0.999 0.214-0.841 1.215-1.44 1.92-1.221 1.435-3.302 2.204-3.36 4.56 2.413 0.787 5.42 0.98 8.641 0.96 0.898 0.195 1.262 1.191 2.16 0.72-0.381-1.726 0.224-3.232 0-4.8-0.146-1.019-0.829-1.888-0.96-2.88-0.231-1.753 0.004-4.412 0.479-5.28 0.448-0.817 0.955-1.632 1.44-2.399 0.47-0.744 0.686-0.83 0.96-1.681 0.094-0.291 0.377-0.228 0.479-0.479 0.516-1.266 0.768-2.562 1.2-3.84-2.08 0.16-2.86 1.62-5.28 1.44zm-138.72-0.24c-2.441 2.119-4.009 5.11-5.52 8.159 1.138 0.75 2.618 0.432 3.84 0 0.623-1.938 1.919-3.201 3.84-3.84-0.078-2.318 3.084-1.396 3.84-2.88-1.48-1.13-4.19-0.29-6-1.44zm239.52 5.52c-1.496-0.065-2.953-0.445-4.561-0.24-0.646-0.723-1.695-1.084-2.88-1.92-0.808-0.569-1.733-1.828-2.64-2.16-3.175-1.16-9.275 0.188-14.4 0.48-1.386 0.079-2.65-0.094-3.84 0-1.431 0.113-2.781 0.635-3.84 0.72-2.109 0.17-3.364-0.362-4.32 0.72 0.142 0.861-0.279 1.161-0.48 1.681 0.865-0.382 0.204 0.593 0.48 0.96 0.354 0.47 1.312 0.863 1.92 0.96 0.376 0.06 0.393 0.456 0.48 0.479 0.845 0.232 2.158 0.027 3.359 0.48 0.042 0.016 0.125 0.416 0.24 0.479 4.676 2.599 9.632 2.183 15.6 1.92 3.598-0.157 7.326 0.478 9.12-0.479h2.641c1.62-1.899 4.983-2.057 7.199-3.36-0.83-1.27-2.6-0.65-4.08-0.72zm-252.96 18.72h2.64c-0.091-0.73 0.872-0.407 0.96-0.96 2.066-0.334 3.635-1.164 5.76-1.439 2.167-2.232 4.123-4.678 6-7.2 1.204-0.877 2.181-1.979 2.64-3.6 1.441-0.124 3.24-2.84 4.32-3.841 1.234-1.143 2.784-1.786 3.12-2.399 0.932-1.703-0.099-3.487-1.68-3.36-2.84 1.8-4.045 5.234-8.16 5.76 0.379 1.114-0.445 0.732-0.72 0.96-0.378 0.314-0.736 1.259-0.96 1.44-0.787 0.637-1.847 1.068-2.64 1.44-1.321 1.799-2.747 3.493-5.04 4.319-0.98 1.58-2.717 2.402-3.84 3.84 0.075 1.596-0.769 2.271-1.92 2.641 0.307 1.267-0.917 1.003-0.96 1.92 0.29 0.03 0.57 0.07 0.48 0.48zm212.16-20.64c0.689-0.03 1.14-0.301 0.96-1.2-0.69 0.03-1.14 0.3-0.96 1.2zm-179.52-0.24c-2.78-0.7-2.494 1.667-2.4 3.84-0.907-0.347-0.46 0.66-1.2 0.48-0.377-0.104-0.205-0.755-0.96-0.48-0.377 0.104-0.205 0.755-0.96 0.48-0.374 0.853 0.815 0.145 0.72 0.72-0.41 1.351-1.675 1.845-3.6 1.68-0.804 0.889-1.483 2.499-2.16 3.601-0.105 0.171-0.693 0.666-0.72 0.72-0.125 0.248 0.144 0.725 0 0.96-0.119 0.195-0.581 0.286-0.72 0.48-0.167 0.231-0.043 0.708-0.24 0.96-0.172 0.219-0.853 0.292-0.96 0.479-0.288 0.507-0.102 1.45-0.48 1.92 0.271 0.289 0.685 0.436 0.48 1.2 1.114 0.087 1.623 0.777 3.12 0.48 0.053-0.188 0.201-0.279 0.48-0.24 0.977-2.304 3.146-3.413 4.08-5.76 2.61-1.87 4.643-4.317 7.2-6.24 0.454-0.106 1.447 0.326 1.2-0.48-1.416-0.104-3.439 0.399-3.84-0.72 0.373-0.507 0.273-1.486 1.44-1.2 0.41-1.62 0.36-1.76-0.48-2.88zm81.6 1.68c-0.201-0.279-0.316-0.644-0.24-1.2-0.413 0.013-0.615-0.185-0.72-0.48h-0.96c-2.51 2.53-5.254 4.826-10.32 4.8-0.437-0.715-1.13-0.999-1.68-1.68-0.563-0.697-0.555-2.209-1.92-2.16-0.625 1.125 0 2.807 0 4.08-0.291 0.829-0.838 1.402-1.2 2.16 0.416 0.865 1.732 0.828 1.92 1.92 4.21 0.749 8.396 1.523 11.76 3.12 2.177-0.364 5.065 1.401 6.24-0.24-1.035-0.965-2.502-1.498-4.56-1.439-1.141-0.558-2.817-1.819-3.84-2.641-0.498-0.399-0.124-1.445-0.24-2.16 1.725-0.835 2.811-2.31 4.32-3.359 1.372 0.309 1.944 1.416 3.6 1.439 0.06-1.5-1.52-1.36-2.16-2.16zm-109.92-0.72c0.23 1.19-0.72 1.2-1.44 1.44-0.18 1.98-2.244 2.076-2.64 3.84-1.051-0.012-1.086 0.993-2.16 0.96 0.179 0.739-0.828 0.293-0.48 1.2-1.432 0.545-2.318 1.887-3.36 2.88-1.809 1.724-3.806 3.274-5.28 5.04-0.697 0.589-2.513 1.319-1.92 2.399 2.348-0.932 3.646-2.913 6.24-3.6 0.472 0.408 1.024 0.736 1.2 1.44-0.677 2.843-3.075 3.964-3.36 7.199 1.445 0.594 1.802 0.289 3.36 0 0.446-1.065 1.438-2.514 1.68-3.119 0.25-0.627 0.056-0.348 0.48-0.721 0.115-0.101-0.085-0.586 0-0.72 0.125-0.197 0.572-0.501 0.72-0.72 0.622-0.921 1.078-1.871 1.68-2.4 0.115-0.102-0.086-0.587 0-0.72 0.048-0.075 0.409 0.062 0.48 0 0.119-0.105-0.097-0.589 0-0.72 0.197-0.269 0.856-0.389 0.96-0.48 0.122-0.107-0.109-0.597 0-0.72 0.17-0.193 0.793-0.042 0.96-0.24 0.211-0.251-0.018-0.512 0.24-0.72 0.687-0.555 1.612-1.141 2.64-1.2-0.155-2.155 0.939-3.061 1.2-4.8-0.29-0.751-0.89-1.19-0.72-2.4 0.894-0.946 1.417-2.263 1.92-3.6-1.27-0.31-1.22 0.7-2.4 0.48zm122.88 1.44c-0.191 1.488-0.736 2.623-0.72 4.319-2.574 1.347-4.605 3.235-5.76 6 3.016 0.042 4.491 1.139 7.201 0.961 0.631-1.89 0.6-4.378 0.96-5.521 0.865-2.749 1.952-5.534 3.6-7.44-1.63-0.16-3.66 1.07-5.28 1.68zm-71.28 2.4c0.087 2.007-1.697 2.144-1.44 4.32-0.747 0.293-1.074 1.006-0.96 2.16 1.148 0.269 1.168-0.592 1.92-0.72 0.158-3.044 3.039-4.641 2.4-7.681-0.58 0.7-0.83 1.74-1.92 1.92zm32.16 1.44c1.14-0.46 0.209-2.682-0.48-2.88 0.25 0.87-0.54 2.79 0.48 2.88zm-25.92-1.44c-0.57 1.673-3.529 2.229-2.64 4.561 0.862-0.897 2.123-1.397 2.64-2.641 0.974-0.706 2.099-1.26 2.64-2.399-1.4-0.35-1.34 0.75-2.64 0.48zm24 0c0.425-0.055 1.202 0.242 0.96-0.479h-0.96v0.48zm-13.68 3.6c1.03 0.562-0.266 0.57 0 1.68 1.748-0.092 2.073-1.607 2.16-3.36h-0.72c-0.03 1.01-1.32 0.76-1.44 1.68zm-2.88 7.68c-0.583-3.379-0.948-6.444-2.88-8.88-5.142 0.892-0.315 8.797-5.28 9.36-0.322 0.036-0.917-0.436-1.2-0.48-1.058-0.166-1.741 0.465-2.88 0.48-1.386 0.018-2.421-0.653-3.84-0.96-1.087 0.499-2.807 2.431-1.44 3.84 0.696-0.264 1.224-0.696 1.92-0.96 1.32 0.901 2.448 0.053 4.08 0 1.458 0.702 2.508 1.812 3.6 2.88 0.872-0.089 1.145-0.775 2.4-0.48 0.143 1.138 1.156 1.404 1.68 2.16 0.178 2.622 1.835 3.766 1.92 6.48 1.378-0.062 2.344-0.536 2.88-1.44-0.932-0.752-2.476-4.07-0.48-4.8 0.681-0.041 0.468 0.812 1.44 0.479 0.067 1.133 1.193 1.208 1.92 1.681 0.571 2.335 4.703 3.892 5.52 0.72-0.438-0.361-0.564-1.035-0.96-1.44-3.833 0.154-5.476-1.884-7.44-3.6 0.363-2.19 2.178-3.639 3.84-3.6 0.032 0 1.515 0.39 1.68 0.479 0.256 0.139 0.786 0.895 1.2 1.2 0.562 0.415 0.676 1.088 1.68 0.72 0.937-0.503 0.93-1.95 1.92-2.399 1.708 0.027 2.926-0.435 2.88-2.16-1.173-1.387-3.308-1.812-4.8-2.88 0.882 0.23 0.954-1.18 0.24-1.2-1.42 3.61-5.31 4.66-9.6 4.8zm18.48 0c1.044 0.004 2.159 0.079 2.88-0.24 1.745-2.56-1.073-4.604-3.36-5.279-0.01 2.01 0.81 3.19 0.48 5.52zm128.4 3.6c-0.453-0.486-1.062-1.595-1.44-1.921-0.228-0.196-1.691-0.801-1.92-0.96-0.149-0.104-0.368-0.657-0.479-0.72-0.512-0.287-1.372-0.196-1.92-0.479-0.683-0.354-0.985-1.001-1.44-1.2-0.322-0.142-1.107-0.057-1.68-0.24-1.32-0.423-2.406-0.822-4.08-1.2-1.035-0.233-2.081-0.625-2.88-0.72-2.956-0.352-5.456 0.438-8.16 0.96-1.782 0.344-2.735 0.326-4.08 0.72-0.771 0.227-2.168 0.208-2.4 1.2 2.271 3.489 6.065 5.455 10.561 6.72 0.776 0.297 0.184-0.776 0.96-0.479-0.044 0.535 0.255 0.424 0.72 0.479 1.991 0.242 4.684-0.479 6.721 0 0.46 0.108 0.495 0.437 0.96 0.48 3.24 0.303 6.688-0.227 10.079 0 0.37-0.591 1.42-0.501 1.921-0.96-0.25-0.73-0.84-1.03-1.44-1.68zm-170.64-2.64h-1.92c-2.121-1.017-7.126-2.976-8.4 0 1.442 0.569 3.786 0.677 4.8 0.96 1.327 0.371 3.195 0.711 4.32 0.72 0.585 0.005 1.912 0.076 2.16-0.72 0.23-0.87-1.08-0.2-0.96-0.96zm94.08 1.92c0.761 0.157 1.616 1.041 2.159 0.24-1.022-0.497-2.504-0.536-3.84-0.72-0.06 0.9 1.13 0.37 1.68 0.48zm36.72 0.48c0.227 2.333 1.813 3.307 2.399 5.279 2.511-0.21 3.076-2.364 5.28-2.88-0.209-1.169 0.328-1.592 0.48-2.399-1.83-1.63-6.07-0.88-8.16 0zm-64.8 0.96c0.183 0.377 0.762 0.358 0.72 0.96 2.843-0.044 5.944-0.345 6.24 2.16-0.04 0.279-0.379 0.261-0.72 0.239 0.281 1.165 2.439 1.167 1.44 2.881 0.387 0.493 1.203 0.557 2.16 0.479-0.081-0.8-0.696-1.064-0.48-2.16 1.13-0.989 3.092 0.144 3.36-1.439-1.251-0.922-2.083 0.63-3.6 0.239-0.988-1.571-0.844-4.275-2.64-5.04-2.88 0.33-4.5 0.1-6.48 1.68zm-126.96 0.48c0.661-0.299 1.164-0.756 1.2-1.68-0.92 0.04-1.16 0.76-1.2 1.68zm157.92-1.2c0.45 0.898 2.291 0.718 3.84 1.199 0.387 0.121 0.198 0.409 0.72 0.48 1.101 0.15 2.205-0.113 3.36 0 0.27-1.091 2.938 0.219 2.88-1.2-3.6 0.14-7.16-0.82-10.8-0.48zm-107.28 1.2c0.367 1.647-0.698 1.862-0.48 3.36 1.322 0.362 1.274-0.646 2.4-0.48 0.03-1.569 2.167-1.032 2.4-2.399-0.53-1.74-3.31-1.66-4.32-0.48zm62.16 0.96c0.104 0.536 0.424 0.856 0.96 0.96 0.833-0.926 3.322-0.197 3.36-1.92-1.71 0.05-2.78 0.74-4.32 0.96zm5.04-0.48c0.425-0.055 1.202 0.242 0.96-0.48h-0.96v0.48zm72.48 30.72c-0.2-0.818-0.766-1.609-0.96-2.399-0.504-2.054-0.153-3.754 0-5.28 0.086-0.856-0.234-1.659-0.24-2.4-0.01-1.403 0.611-2.992 0.721-3.6 0.102-0.566-0.113-1.341 0-1.92s0.814-1.197 0.96-1.92c0.098-0.491-0.146-1.204 0-1.681 0.02-0.065 0.413-0.074 0.479-0.239 0.774-1.936 0.383-4.176 0.48-6.721-1.432-1.448-1.384-4.376-3.601-5.04h-0.479c-0.396 1.125-1.496 1.545-1.68 2.88-1.318 0.202-1.459 1.582-2.641 1.921-1.277 2.28-3.039 4.121-3.359 7.439-0.159 1.638 0.115 3.459 0 5.521 1.536 2.678 0.443 5.769 0.72 8.64 0.134 1.385 0.864 2.393 0.72 3.84 1.367 1.513 3.103 2.657 3.84 4.8 1.161 0.52 2.614 0.747 3.12 1.92 1.765-0.483 1.395 1.166 2.88 0.96 0.027-0.292 0.072-0.568 0.48-0.479-1.14-1.64-0.91-4.07-1.44-6.24zm-124.8-29.28h-1.2c-0.388 0.759-1.05 1.418-1.68 1.92-1.747 1.395-4.404 2.106-5.28 4.08 5.75 1.536 7.141-5.299 12.24-6v-1.439c-2.15-0.31-3.38 0.3-4.08 1.44zm111.6-0.48v1.439c1.162-0.678 3.484-0.195 3.601-1.92-1.72-0.36-2.08 0.64-3.6 0.48zm-48.72 4.08c0.462 0.486 0.966 0.558 1.68 0.24-0.624-1.66 0.357-1.896 0.48-3.36-1.82-0.05-1.91 1.61-2.16 3.12zm-20.4-0.24c0.881-0.238 1.44-0.8 2.4-0.96 2.265 3.271 2.265 8.92 2.4 13.68 0.733 0.387 1.182 1.059 1.44 1.92 1.446 0.191 2.612 1.586 4.08 1.92 0.466 0.106 1.048-0.149 1.44 0 1.049 0.402 1.711 1.477 2.88 1.44 0.481 1.278 1.852 1.668 3.12 2.16 0.604-2.149-0.001-4.593-0.24-6-0.123-0.727 0.151-1.584 0-2.16-0.578-2.2-2.682-3.659-2.88-5.76-1.082-0.758-1.941-1.739-2.4-3.12-3.499-1.621-5.928-4.312-10.8-4.561-0.599-0.201-0.505-1.095-1.44-0.96h-0.48c-0.22 1.22-0.2 1.67 0.48 2.4zm39.84-1.92c0.453-0.106 1.446 0.326 1.2-0.48h-1.2v0.48zm11.52 1.44h-1.2c-0.104-0.536-0.424-0.856-0.96-0.961-0.027 0.293-0.071 0.568-0.479 0.48 0.624 2.496 2.298 3.941 4.8 4.56 0.896-2.072-1.421-2.64-1.92-4.079 1.817 0.021 3.992-0.312 4.56 0.96 0.521-0.573 0.986-1.468 0.48-2.4-2.253 0.199-3.276-0.976-5.04 0-0.14 0.42 0.29 1.41-0.24 1.44zm40.56-0.96c0.432 0.608 1.265 0.815 2.16 0.961 0.128-0.752 0.988-0.771 0.72-1.921h-2.641c0.05 0.46-0.27 0.53-0.24 0.96zm6.96 0.72c0.434 0.446 0.88 0.879 1.92 0.72v0.96c1.701 0.618 2.643 1.998 3.84 3.12 2.448 0.912 5.053 1.668 7.2 2.88 2.234 0.527 3.908 0.213 5.76 0.48 2.452 0.354 4.438 2.589 7.92 1.92 0.255-2.016-1.633-1.888-2.88-2.4-0.212-0.663-1.021-1.068-1.44-1.68-0.15-0.221 0.132-0.726 0-0.96-0.021-0.038-0.691-0.16-0.96-0.48-0.294-0.352-0.28-1.014-0.479-1.2-0.218-0.203-0.717-0.064-0.96-0.239-0.211-0.151-0.19-0.568-0.48-0.721-0.99-0.52-2.177-0.331-3.359-0.72-0.685-0.225-1.208-0.774-1.92-0.96-0.464-0.12-0.891 0.097-1.44 0-1.774-0.312-4.498-1.598-6.48-1.44-0.584 0.047-1.122 0.491-1.68 0.48-1.784-0.034-3.162-0.901-4.56-1.44 0.2 0.86-0.54 1.16 0 1.68zm-133.44-0.24c-0.991 1.168-2.709 1.61-3.6 2.88-0.457 0.104-0.603 0.518-1.2 0.48-1.396 1.563-2.995 2.925-4.8 4.08-0.324 1.576-1.854 1.81-2.64 2.88-0.395 0.537-0.662 1.897-0.96 2.399-0.111 0.187-0.635 0.34-0.72 0.48-0.222 0.365-0.182 1.068-0.48 1.439-0.513 0.64-1.555 0.679-1.68 1.44 1.871-0.369 2.241-2.239 4.32-2.4 0.033-0.446 0.158-0.802 0.48-0.96 4.838-3.481 9.199-7.44 13.68-11.279 0.798-0.562 1.892-0.828 1.92-2.16-1.52-0.73-2.57 0.9-4.32 0.72zm94.8 10.32c1.747 2.812 3.739 5.381 6.48 7.199 0.019 1.362 1.146 2.278 2.399 1.681-0.996-2.684-0.249-7.11-0.479-10.561-0.973-0.787-1.654-1.865-1.92-3.359-2.488-1.112-2.598-4.603-6-4.8h-0.48c-0.54 3.02 0.54 6.91 0 9.84zm-124.32-7.92c-0.033 0.446-0.158 0.802-0.48 0.96-1.582 0.978-2.968 2.151-4.32 3.359-4.146 1.854-6.447 5.554-10.56 7.44-0.409 1.431-1.633 2.047-2.16 3.359 1.716-0.043 2.289-1.23 4.32-0.96 0.233-0.537 0.783-0.746 1.2-0.96 0.622-0.318 1.723-0.881 1.92-0.96 0.73-0.292 0.556-0.248 0.96-0.479 0.702-0.403 1.175-0.482 1.92-0.48 0.692-1.067 2.523-0.996 3.36-1.92 2.249-0.15 3.303-1.497 5.76-1.439 0.576-0.705 1.745-0.815 2.88-0.96 0.027-0.293 0.072-0.568 0.48-0.48-0.296-2.824-2.521-3.719-2.88-6.479-0.79-0.4-1.53-0.14-2.4 0zm58.8 1.2v5.28c-0.92 0.12-0.9 1.18-1.68 1.44-2.622 0.178-4.05 1.55-5.04 3.359-2.556 0.316-1.692-2.788-3.12-3.6-1.449 0.746-1.279 2.009-1.92 3.6-0.045 0.112-0.398 0.036-0.48 0.24-0.528 1.32-0.585 1.502-1.2 2.4-0.627 0.915-1.025 1.245-1.2 2.399-0.454-0.054-0.529 0.271-0.96 0.24v2.16c3.58-1.7 7.347-3.213 11.76-4.08 2.208-2.272 4.716-4.244 5.76-7.68 1.924-1.369 2.231-3.565 1.92-6.721-1.57-0.85-3.05 0.26-3.84 0.96zm-5.04 5.28c0.452-1.228 0.616-2.743 2.64-2.399 0.613-3.132-2.695-2.793-5.52-3.12-0.16 2.08 0.92 4.78 2.88 5.52zm-15.36 3.84c2.284 0.804 2.898-1.172 4.32-1.92-0.157-1.517 0.846-1.874 0.48-3.6-2.895-1.309-3.923 3.011-5.04 5.04 0.19 0.06 0.28 0.2 0.24 0.48zm-26.4-1.44c0.02 0.843 1.232 1.288 1.92 0.72 0.46-1.46-1.78-1.95-1.92-0.72zm-13.92 6.24c0.04 0.76-0.638 0.803-0.48 1.681 3.147-1.573 6.583-2.856 8.64-5.521-3.8 0.21-5.38 2.62-8.16 3.84zm10.56 3.84c-1.244 2.036-3.257 3.303-3.36 6.479 0.955 0.245 1.29 1.11 2.64 0.96 2.127-1.263 3.084-5.059 1.44-7.439h-0.72zm31.68 4.56c0.227-0.493 0.944-0.496 0.96-1.2-0.414-0.227-0.393-0.887-1.2-0.72-0.24 0.62-0.42 1.61 0.24 1.92z"/>
	<path d="m428.88 0.702c0.594 0.591-0.681 0.538-0.48 1.44 0.341-0.021 0.68-0.04 0.721 0.24 0.648 0.24 2.399-0.473 3.359-0.72 0.687 0.193 0.957 0.803 1.681 0.96 5.322 0.393 10.246 0.301 14.88 0.96 0.418 0.059 0.802 0.439 1.199 0.48 2.603 0.268 4.542 0.292 6.721 0.96 0.669 0.77 1.477 1.403 2.16 2.16 0.139 0.779-0.164 1.117-0.24 1.68-2.461 0.301-2.965-1.355-4.08-2.4-0.6 0.472-1.033-0.367-1.68-0.48-1.521-0.266-3.684 0.601-4.561-0.48-1.449 0.55-2.431 1.569-4.56 1.44-0.088 0.552-1.051 0.229-0.96 0.96h-1.681c-5.47 2.771-14.039 2.44-18.479 6.24 1.013 1.426 3.271 0.298 4.8 0.48 0.698 0.083 1.343 0.5 1.92 0.48 0.832-0.027 1.336-0.539 2.16-0.72 0.591-0.13 1.306 0.103 1.92 0 0.494-0.083 0.959-0.617 1.44-0.72 1.886-0.405 3.592-0.602 6-0.96 1.732-0.257 3.438-1.114 5.279-1.44 1.678-0.297 3.494-0.194 5.04-0.48 0.484-0.089 0.358-0.424 0.721-0.48 0.664-0.102 1.374 0.088 2.159 0 0.81-0.091 1.65-0.672 2.4-0.72 0.607-0.039 1.1 0.3 1.68 0.24 2.075-0.214 4.083-1.098 6.24-0.96 0.632-0.218 0.466 0.66 0.96 0.96 1.266 0.768 4.057 0.292 6.48 0.48 1.851 0.144 3.492 0.766 4.8 0.96 2.003 0.298 3.589 0.21 4.8 1.44 0.223 0.817 0.672 1.408 0.48 2.64 2.146-0.147 3.817 0.183 4.079 1.92 5.39 1.341 15.727-1.021 14.88 5.76-1.796 0.833-3.43-0.64-5.279-0.96-0.909-0.157-1.918 0.102-2.88 0-2.92-0.31-5.765-1.535-8.4-1.92-0.741-2.676-4.462-2.362-6.479-0.96-3.495-0.872-6.762-0.433-11.04-0.48-0.637-0.804-1.159-1.721-1.921-2.4-6.863-0.304-10.664 2.456-16.8 2.88-3.014 0.903-6.172 3.002-9.6 3.36-1.189 0.124-2.289-0.691-3.36 0.24-0.083 1.283 1.894 0.507 1.44 2.16 1.282-0.284 1.327 1.004 1.92 1.44 0.04 0.03 1.226 0.485 1.2 0.48 0.329 0.065 0.867 0.047 1.2 0 0.708-0.101 1.532-0.274 2.88-0.48 0.628-0.096 0.626-0.268 1.68-0.48 0.485-0.098 0.353-0.407 0.72-0.48 1.032-0.206 1.771-0.141 2.641-0.48 1.56-1.909 4.483-2.228 7.68-1.92 0.531 0.051 0.326 0.383 0.72 0.48 3.242 0.795 7.238-0.836 10.08 0 0.292 0.988 1 1.561 1.44 2.4 1.96 0.201 3.077-0.443 4.319-0.96 1.942 0.976 5.496-1.186 6.96 0.96 1.02 0.299 0.643-0.798 1.2-0.96 2.457-0.617 2.405 1.275 4.561 0.96 0.72-0.24 0.455-1.464 1.92-0.96 0.867-0.228 0.334 0.945 0.479 1.44 4.698 0.182 8.89 0.871 13.681 0.96 0.408 0.712 0.963 1.277 0.72 2.64 1.327 1.393 2.765 2.675 4.56 3.6 2.979 0.14 3.851 2.389 6.48 2.88 0.26 0.78 1.319 0.76 1.439 1.68 1.574 0.11 2.933 1.703 4.801 0.72 0.087-0.807-1.04-0.4-1.44-0.72-0.725-2.075-3.011-2.589-4.32-4.08-1.046 0.006-2.223 0.143-2.64-0.48 0.002-0.638-0.091-1.371 0.24-1.68 1.017-0.274 2.158 0.127 3.12 0.48 2.099 0.771 3.362 2.082 5.04 3.36 0.855 0.652 1.94 0.968 2.399 1.92 2.475 0.326 4.036 1.564 5.521 2.88 0.128 0.928-0.429 1.171-0.24 2.16 0.593 0.767 1.43 1.291 2.4 1.68 0.548 2.12 0.841 4.642 0.479 6.48-2.295 0.503-4.827 0.801-6.96 0.72-1.159-0.044-2.436-0.726-3.6-0.72-1.248 0.006-2.055 0.666-3.12 0.48-1.322-0.23-2.097-1.66-4.32-1.44-2.433 0.24-4.003 2.574-7.2 1.68-1.598-1.603-3.445-2.955-6.24-3.36-2.188 0.477-5.715 1.066-8.399 0.72-1.396-0.18-2.196-1.278-3.36-1.2 0.297-0.776-0.776-0.183-0.479-0.96-2.948-0.973-5.502-2.338-7.44-4.32-1.609-0.231-2.963-0.718-4.08-1.44-2.819 0.1-4.265-1.176-6.479-1.68-0.729-1.912-2.443-2.837-4.8-3.12-0.609-1.071-1.796-1.564-2.881-2.16-4.737 1.422-6.847-3.629-9.84-5.52-4.048 1.804-9.539 2.932-13.68 5.04-0.369 0.188-0.716 0.084-0.96 0.24-2.259 1.44-6.192 2.224-9.12 3.36h-1.68c-1.729 0.591-2.971 1.67-5.04 1.92-1.206 1.035-2.638 1.842-4.8 1.92-1.072 1.648-4.153 1.287-5.28 2.88-2.89 0.471-5.095 1.625-7.92 2.16-0.606 0.594-1.083 1.317-2.4 1.2-2.055 2.345-6.52 2.28-7.92 5.28-1.788 0.691-2.793 2.167-4.8 2.64-1.361 1.599-4.162 1.758-5.04 3.84h-1.2c-0.33 0.95-1.896 0.664-1.92 1.92-2.573 0.947-4.829 2.21-6.96 3.6-0.86 0.316-0.88-0.016-1.68 0.24-0.484 0.476-0.965 0.956-1.44 1.44-3.33 1.14-6.692 3.292-9.84 3.84-2.01 1.011-3.621 1.735-6.24 2.4-1.514 0.384-3.274 1.355-5.04 1.68-7.861 1.447-17.484-1.175-24.72 0-1.557 0.253-2.564 0.98-3.36 2.4-1.265 0.585-2.639 1.208-3.84 1.92-0.458 0.271-1.451 0.496-2.16 0.96-0.634 0.415-0.537 0.599-1.439 0.96-0.37 0.148-0.533 0.222-1.44 0.48-0.845 0.24-2.619 1.61-3.6 1.92-0.359 0.114-0.849-0.133-1.2 0-2.358 0.892-4.554 2.465-7.2 2.88 0.082 0.482-0.049 0.751-0.479 0.72 0.4 3.088 5.897 0.695 8.64-0.24 1.135-0.387 2.165-1.281 3.84-1.2 1.674-2.006 5.21-2.15 6.96-4.08 5.597 0.651 13.401-0.869 18.48 0 1.426 0.244 2.524 1.127 3.359 1.92 2.158 0.044 4.351 0.577 6.721 0.48 2.224-0.091 4.983-1.124 6 0.96-0.819 1.936-3.418 0.612-5.28 0.72-1.436 0.083-2.428 0.813-3.6 0.72-0.566 0.428 0.694 1.049 0.239 2.16-1.106 1.133-2.844 1.636-4.08 2.64-1.654-0.492-3.108-0.829-3.359-2.16-0.283-1.496 1.695-2.521 1.439-4.32-0.562-0.737-2.313-1.104-3.12-1.2-3.419-0.411-6.341 0.802-10.319 0.48-1.533-0.124-2.86-0.7-4.32-0.48-1.157 0.174-2.61 1.392-3.84 1.92-0.269 0.116-0.695-0.122-0.96 0-0.146 0.067-0.185 0.461-0.24 0.48-1.191 0.398-2.515 0.135-3.6 0.48-1.051 0.334-1.646 1.167-2.641 1.68-3.335 1.723-7.318 2.136-10.08 3.84-0.541 0.179-0.094 1.346-0.239 1.92-2.36 1.32-6.358 1.002-9.601 1.44-1.5 0.899-2.542 2.258-2.88 4.32-4.844 0.124-9.398-0.042-12.72-1.44v-2.4c2.041-0.039 3.629-0.531 4.8-1.44-3.015-2.826-6.826-4.854-9.84-7.68-0.801-0.001-0.819 0.781-1.68 0.72-3.336-0.952-7.049 1.155-9.36-0.72-0.054-0.906 0.252-2.172-0.48-2.4-0.62-0.979-1.981-0.144-3.12-0.24-0.074 1.434 0.351 2.369 1.68 2.4 0.23 1.129 0.714 2.006 0.48 3.6-1.054 0.467-2.137 0.903-2.88 1.68 1.176 1.784 2.895 3.025 4.8 4.08v4.08c-0.819 0.221-1.838 0.242-2.399 0.72-0.799-1.201-1.801-2.199-3.12-2.88-0.492 1.756 2.166 3.966 3.12 3.6 1.285 0.554 1.281 2.398 1.92 3.6-0.334 0.546-0.475 1.286-0.96 1.68-2.581-0.379-4.068-1.852-5.76-3.12h-1.68c-1.91-1.13-4.679-1.401-5.76-3.36-0.165-0.965 0.23-1.37 0.24-2.16-1.387-1.973-3.399-3.321-5.04-5.04-0.643-3.518-3.52-4.801-5.28-7.2 0.019-7.939-2.848-12.993-5.28-18.48-0.861-0.943-1.336-1.887-2.16-2.88-0.058-0.07-0.181-0.684-0.24-0.72-0.124-0.076-0.634 0.109-0.72 0-0.158-0.2 0.14-0.744 0-0.96-0.239-0.37-1.018-0.55-1.44-0.96-0.417-0.406-0.554-0.921-0.96-1.2-0.828-0.57-1.615-1.04-2.64-1.68-1.984-1.239-4.211-2.656-5.28-5.04-2.246-0.955-2.842-3.558-5.28-4.32v-0.96c-1.505-0.414-2.596-1.244-3.36-2.4h-1.44c0.027-0.828-0.987-0.612-0.96-1.44-2.175 0.255-2.045-1.795-4.32-1.44 0.297-0.777-0.776-0.184-0.48-0.96-2.514-0.446-3.215-2.705-5.52-3.36-0.372-1.228-1.667-1.532-2.4-2.4-1.062-0.114-1.193 0.331-1.92 0-0.472-0.728-0.577-1.823-0.48-3.12-3.247 0.791-5.381-1.595-7.68-2.4-0.873-0.306-2.017-0.244-2.88-0.48-2.392-0.654-4.502-1.596-6.96-2.4-0.572-1 0.386-1.4 0.48-2.4 1.601 0.56 3.395 0.925 5.52 0.96-0.353 0.913 1.073 0.047 0.72 0.96 3.699 0.221 5.808 2.032 8.88 2.88v0.96c1.114 0.006 1.434 0.807 2.88 0.48 0.613 0.987 1.654 1.546 2.88 1.92 2.412 2.788 5.94 4.46 8.64 6.96 2.388 0.252 3.139 2.141 5.52 2.4 3.505 3.695 7.753 6.646 11.28 10.32 4.317 0.083 5.535 3.265 8.64 4.56 0.479 1.281 1.484 2.036 1.92 3.36 0.074 0.326 0.601 0.199 0.96 0.24 1.753 3.207 3.444 6.476 5.28 9.6 1.922 0.308 2.973-2.079 5.04-2.4v-1.2c1.744-0.896 2.038-3.242 3.84-4.08-0.126-1.406 1.23-1.33 0.96-2.88 1.843-0.801 2.3-2.956 3.6-4.32 0.189-0.199 0.695-0.25 0.96-0.48 0.537-0.466 0.932-1.423 1.92-1.68-0.283-0.702 0.385-1.153 0.72-1.68 0.785-1.236 1.532-3.055 3.6-3.12 0.605 0.595 0.506 1.894 0.48 3.12 0.792-0.325 1.632-0.8 2.399-1.44 0.498-0.415 0.893-0.567 1.44-1.2 2.311-0.33 4.171-1.109 5.04-2.88-0.757-0.974-2.872 0.67-3.6-0.72 0.446-0.434 1.671-0.089 1.439-1.2 1.483-0.116 2.088-1.113 2.88-1.92 1.059 0.013 1.766-0.73 2.641-1.2 0.805-0.432 1.903-0.713 2.64-1.2 0.797-0.527 1.483-1.491 2.16-2.16 1.116-1.104 1.771-1.672 3.12-2.64 0.668-0.48 1.087-0.797 1.92-1.44 1.756-1.356 4.267-2.972 6.96-4.08 0.825-0.105 1.345 0.095 1.92 0.24 7.563-1.716 12.285-6.275 19.92-7.92 1.195-1.765 4.69-1.229 6-2.88 2.536-0.096 4.166-0.371 5.52 0.96 7.253 0.253 12.978-3.176 19.44-2.16 1.193-0.192 1.834-1.438 2.88-1.92 1.254-0.577 3.309-0.69 4.8-1.2 1.054-0.36 2.962-0.385 4.801-0.72 1.894-0.345 3.084-1.177 5.52-1.44 0.991-0.107 1.809-0.687 2.88-0.96 2.706-0.688 5.597-1.152 8.16-1.92 0.78 0.02 1.293 0.307 1.44 0.96 0.907-1.333 3.908-0.571 4.8-1.92 2.105-0.328 4.418-0.711 6.239-1.44 0.752-0.301 0.98-0.269 2.16-0.48 0.509-0.091 0.337-0.363 0.721-0.48 0.366-0.112 0.826 0.088 1.199 0 0.466-0.11 0.366-0.411 0.721-0.48 0.738-0.145 1.888 0.319 2.16-0.48 4.443-0.276 8.137-1.303 13.199-0.96 1.444-0.957 3.307-1.494 4.801-2.4 1.699 0.788 3.083-0.649 4.8-0.96 0.986-0.178 2.337 0.154 3.6 0 0.605-0.074 1.357-0.465 1.92-0.48 0.606-0.016 1.114 0.421 1.681 0.48 1.449 0.15 3.563 0.089 4.8 0 0.714-0.051 1.48-0.539 2.16-0.48 1.606 0.141 2.517 1.623 4.079 1.44 0.68 0.04-0.199-1.479 0.48-1.44 0.46-0.449 0.44 0.144 1.2 0.002zm-19.2 3.36c-1.043 0.717-1.648 1.872-3.36 1.92-0.514 0.975-0.085 2.061 0.24 2.88h2.16c1.447-1.993 4.373-2.507 6.479-3.84 1.21 0.169 1.649-0.431 2.4-0.72 0.518 0.342 1.878-0.076 2.16-0.72-3.16-2.129-6.36 0.42-10.08 0.48zm24.96 1.92c-1.025-0.065-2.042-0.123-1.92 0.96h4.08c-0.004-1.124 1.585-0.655 1.68-1.68-1.28-0.638-3.1 0.044-3.84 0.72zm-4.32 1.44c0.454-0.106 1.446 0.326 1.2-0.48h-1.2v0.48zm-11.28 2.4c-2.568 1.779-6.622 1.742-10.32 2.4-1.05 0.187-2.108 0.817-3.12 0.96-1.987 0.281-2.953 0.142-3.84 1.2 3.022 0.337 5.553 1.167 9.12 0.96 1.262-0.658 2.461-1.378 4.56-1.2 1.071-1.569 2.635-2.645 4.08-3.84 1.169-0.111 2.522-0.038 2.88-0.96-1.33-0.052-1.73 0.825-3.36 0.48zm-38.88 0.96c-3.964 1.717-9.562 1.798-11.04 6 1.562 0.953 2.264-1.369 3.6-1.44 1.787-0.095 2.483 1.442 3.36 3.12 2.183 0.218 3.89 0.939 5.76 0.24 0.239-1.039-0.269-1.332-0.48-1.92 0.776-0.823 1.45-1.75 1.44-3.36 0.431 0.031 0.562-0.238 0.479-0.72 0.974-0.867 2.537-1.144 3.12-2.4-3.03-0.025-2.89 0.53-6.24 0.48zm77.52 1.92c-1.82-0.157-2.474 0.634-3.6 0.96-1.002 0.29-2.212 0.184-3.12 0.48-1.179 0.385-2.216 1.354-3.36 1.68-0.89 0.254-2.068-0.261-2.64 0.72 1.661 1.552 3.956-0.007 6.72 0.24 1.388-1.172 4.278-0.842 6-1.68 0.138-0.422-0.29-1.41 0.24-1.44 4.271-0.107 8.423-0.291 11.04-1.44-3.39-0.38-8.66-1.182-11.28 0.48zm-92.88 9.84c-0.041 0.359 0.086 0.886-0.24 0.96-1.036 0.644-2.877 0.483-4.56 0.48-0.027-0.293-0.072-0.568-0.48-0.48-0.657-2.518 0.488-3.764 1.44-5.28-0.583-1.399 1.16-2.705 0-3.12-5.652 1.309-11.655 2.265-13.92 6.96-1.343 0.818-2.15 2.169-4.561 1.92 0.072-0.472-0.324-0.476-0.479-0.72v-2.64c-1.402-0.277-2.524-0.836-3.601-1.44-0.733 1.698-3.251 1.162-5.04 1.44-1.886 0.294-3.552 0.959-5.04 1.2 0.321 1.281-0.801 1.119-0.479 2.4 0.534 0.346 0.696 1.063 1.439 1.2 0.626-0.654 2.084-0.476 3.36-0.48 0.152 0.808 0.689 1.23 0.48 2.4-0.704 0.016-0.707 0.733-1.2 0.96-3.424 0.303-5.886-0.354-6.96-2.4-1.843-0.127-1.182-0.315-2.88 0-0.196 0.604-1.096 0.505-1.92 0.48 0.012-0.733-0.865-0.576-0.721-1.44-0.107-0.988 1.016-0.745 0.721-1.92-0.992 0.288-1.885 0.676-3.36 0.48-0.098-0.943-0.984-1.096-1.2-1.92-2.312 0.007-3.562 1.078-5.04 1.92-2.237-0.237-2.533 1.467-5.04 0.96-0.818 1.501-2.679 1.961-5.04 1.92-0.921 1.205-2.595 1.452-3.84 2.16-0.828 0.471-1.295 1.552-2.4 1.44-0.676 1.164-1.428 2.252-2.88 2.64-0.416 1.744-1.856 2.463-3.12 3.36 0.192 0.833-0.357 0.922-0.239 1.68-1.351 0.41-2.651 0.869-3.36 1.92 0.817-0.178 0.396 0.884 0.96 0.96 1.159-0.841 2.209-1.791 3.6-2.4 0.493-1.187 1.431-1.93 3.12-1.92-0.071 0.472 0.324 0.476 0.48 0.72-1.118 5.96 6.066 1.543 6.72 5.04 0.041 0.681-0.812 0.468-0.479 1.44h3.359c0.422-0.699 0.857-1.383 0.96-2.4 1.006 0.046 0.742-1.178 1.92-0.96 0.975-1.597 2.27-3.264 3.841-4.32 0.995-0.67 1.527-1.275 2.64-1.44 0.697-1.999 3.233-2.062 5.28-2.64 1.651-0.466 4.366-1.437 6-1.44 0.63-0.001 1.324 0.423 1.92 0.48 1.996 0.193 3.83-0.765 5.76-0.48-0.208-0.928 0.401-1.039 0.72-1.44 2.525-0.066 4.358-0.242 4.32 1.44-0.036 1.585-3.66 2.339-5.04 1.68-0.797 0.803-1.604 1.597-2.4 2.4 2.117 1.355 1.574 3.295 0.24 4.32-0.761 0.584-1.692 0.551-2.16 0.96-1.071 0.938-2.579 1.631-3.84 1.44-1.571-1.622-0.37-4.636 1.44-5.04-3.105-0.683-6.101 1.367-7.681 2.64-0.602 0.485-1.298 1.074-1.92 1.44-0.176 0.103-0.549-0.11-0.72 0-0.236 0.151-0.331 0.842-0.72 0.96-1.201 0.363-1.62 1.259-2.4 1.92-1.698-0.098-2.15 1.049-2.88 1.92-0.634 0.006-1.504-0.224-1.2 0.72 0.696 0.641 1.338-0.494 1.92-0.72 0.918-0.357 1.396-0.169 1.92-0.48 0.725-0.429 1.332-0.623 2.4-0.48-0.041-0.602 0.537-0.583 0.72-0.96 1.873-0.272 2.48 0.719 3.84 0.96 0.916-1.165 3.131-1.03 4.32-1.92 0.086 0.794 1.311 0.449 1.44 1.2 0.255 1 0.062 1.059 0 2.16 2.066-0.733 3.599-2.001 5.04-3.36 2.135-0.345 2.904-2.055 4.8-2.64 0.701 0.259 0.777 1.143 0.72 2.16-3.624 3.255-7.094 6.666-10.08 10.56 0.354 1.085 1.305 1.575 0.96 3.36-1.91 2.189-5.269 0.721-7.68 2.16-0.146-0.415-1.139 0.018-1.2-0.48v-1.92c0.911-0.048 0.432-1.489 1.44-1.44 0.562-4.078 4.103-5.177 5.52-8.4h-5.28c-1.871 1.568-4.215 2.665-6.479 3.84 0.212 0.588 0.719 0.881 0.479 1.92-0.714 0.565-0.646 1.915-1.68 2.16-3.925-1.291-7.262 1.102-9.6 2.88-2.184 0.558-3.675 1.751-4.801 3.12-0.484 0.59-1.373 1.145-0.96 2.16 2.207-0.034 2.717-1.764 4.32-2.4 0.881 0.739 2.521 0.451 3.36 1.44 0.844 0.995 0.844 2.668 0 3.84-1.392-0.2-1.614 0.33-2.16 0.96-0.722 0.833-1.356 0.832-2.16 1.44-0.15 0.114-0.306 0.566-0.479 0.72-1.505 1.334-3.409-0.544-3.36-3.12-0.703 0.062-0.737-0.542-1.44-0.48-0.313 1.207-1.584 1.456-1.439 3.12-2.021 0.38-1.905 2.895-3.84 3.36 0.65 0.949 1.095 2.105 1.92 2.88 0.341-1.659 0.376-3.624 1.92-4.08 0.447 0.353 0.637 0.963 1.439 0.96 0.409-0.631 0.908-1.172 1.92-1.2 0.251 0.949 1.262 1.139 0.96 2.64-0.588 0.212-0.88 0.719-1.92 0.48 0.496 2.84-1.272 4.239-3.359 3.12-0.776 0.984-1.09 2.431-2.4 2.88-0.821-0.747-0.665 0.257-2.16 0-1.352 1.848-1.634 4.766-4.8 4.8-0.253 1.107-1.511 1.209-1.68 2.4-0.675 0.526-1.274 1.126-1.92 1.68-0.279 0.441-1.566-0.126-1.2 0.96 1.271 0.701 2.595 0.071 3.84 0.96 0.737-0.623 1.522-1.198 2.16-1.92-0.138-1.394-0.358-2.499 0.96-2.88 1.903 0.176 1.481 2.678 2.16 4.08h1.2c1.051-2.006-0.957-5.788 0.479-8.16 0.916-0.204 1.611-0.629 2.4-0.96-0.057 0.856 1.354 0.246 1.2 1.2 0.11 1.309-1.406 3.012-0.24 3.84 1.351-1.609 1.534-4.385 1.439-7.44 1.375-0.386 1.846-1.675 3.84-1.44 0.37 0.591 1.071 0.849 0.961 1.92 1.204-0.521 0.671-3.101 2.399-3.36 0.699-0.104 1.295 0.007 1.92 0.72 0.15 0.729-0.307 2.067 0.24 2.4 1.147-0.933 1.836-2.324 2.4-3.84 2.441-0.518 3.083-2.836 4.8-4.08v-1.68c1.054-0.637 2.184-0.4 3.359 0-0.316 1.117 0.797 0.803 0.48 1.92-1.333 1.147-2.397 2.562-2.88 4.56 5.248 0.907 6.277-6.171 12-4.08 0.796-0.404 1.688-0.712 2.64-0.96 0.22 0.421 0.446 0.834 1.2 0.72 0.753-1.225 4.189-1.894 4.56 0.24 1.924-0.833 4.283-0.22 6-0.96 1.175-0.506 1.308-1.998 2.641-1.92 0.903-0.104 1.093 0.507 1.439 0.96 1.765-0.997 3.87 0.83 6.48 0.48 0.635-1.525 1.589-2.73 2.16-4.32 2.66-0.604 4.953 0.869 7.68 0.96 0.55-0.25 0.496-1.104 1.44-0.96-0.532-4.532 4.148-3.852 8.159-3.84 0.29-1.791 1.188-2.972 2.881-3.36 0.616 0.503 0.699 1.54 1.92 1.44 0.991-2.128 2.358-3.881 5.04-4.32 0.827 0.212 0.445 1.634 1.439 1.68 1.823-2.498 2.532-6.107 6.72-6.24 0.964-1.036 2.613-1.387 4.08-1.92 1.194 0.167 1.345 1.375 1.2 2.88 3.774-0.626 4.661-4.139 8.4-4.8 0.137-0.743 0.854-0.906 1.2-1.44 1.836-0.244 2.369-1.791 4.319-1.92 0.033-0.447 0.158-0.802 0.48-0.96 4.238-0.881 6.641-3.599 11.04-4.32 0.687-1.119 2.362-0.965 3.6-1.44 0.271-0.104 0.236-0.403 0.48-0.48 2.206-0.694 4.807-0.816 6.72-1.92 1.29 0.17 1.966-0.274 2.88-0.48-0.167-0.807 0.493-0.787 0.72-1.2-0.809-0.951-1.838-1.682-2.88-2.4-1.044 0.876-3.112 0.727-4.32 1.44-0.68-0.04-1-0.44-1.68-0.48-2.312 0.488-4.081 1.519-6.96 1.44-1.146 0.613-1.903 1.617-3.84 1.44-1.796 1.907-4.823 3.294-6.96 4.56-0.799 0.474-1.607 0.601-2.88 0.48-0.171-1.109-1.642-0.918-1.44-2.4-1.006 0.034-0.98 1.1-0.96 2.16-1.485 2.354-5.649 2.03-8.88 2.64-1.101 1.379-2.051 2.909-2.64 4.8-2.32 0.48-3.614 1.986-6.48 1.92-2.03-2.386 1.238-4.32 1.92-6.24-0.821-0.859-0.368-2.992-0.479-4.56 2.677-1.744 6.447 0.044 9.84-0.72 2.151-0.484 3.255-2.678 5.04-3.12-4.185-1.163-7.955 1.046-11.521 0.48-1.24 0.949-1.964 2.428-3.84 2.88-0.942 0.227-2.143-0.146-3.359 0.24 0.071-0.472-0.324-0.476-0.48-0.72-0.329-2.649 2.012-2.628 2.88-4.08-2.312-2.549-9.835 0.571-11.52-1.44-0.261-0.311-0.496-0.938-0.48-1.2 0.185-3.116 6.758-1.485 9.84-1.92 0.245-0.035 1.311-0.931 2.16-0.48 0.292-0.828 1.165-1.075 2.4-0.96-0.099-1.059 1.341-0.579 1.439-1.44-0.985-0.812-3.514 0.306-4.56 0.96-2.276 0.043-3.844 0.796-6.48 0.48-0.289 0.271-0.435 0.685-1.199 0.48-1.272-0.648-1.965-1.875-2.4-3.36-1.45-0.327-1.76 0.474-2.88 0.48zm21.84-4.8c1.264 0.269 1.628-0.042 3.12 0 0.1-2.227-2.27-0.343-3.12 0zm49.2 0.24c0.021 0.378 0.612 0.188 0.479 0.72 1.266 0.146 1.817-0.422 2.16-1.2-1.08 0.15-2.4-0.831-2.64 0.48zm-44.4 2.64c-1.366 0.341-3.108 0.218-3.6 1.44 0.093 1.106 1.157 1.7 0.479 2.88 1.376 0.255 1.903-0.337 2.4-0.96h1.2c1.275-1.764 4.3-1.781 5.52-3.6-1.78-1.232-4.1-0.236-6 0.24zm27.84 0.96c-1.782 0.103-2.419-0.941-3.84-1.2-1.522 0.493-2.917 1.672-4.56 1.68-1.37 0.006-2.492-1.233-4.08-0.96-0.346 0.375-0.604 0.835-1.2 0.96-2.631 0.613-4.743 2.371-6.96 3.36-0.469 0.209-1.43-0.518-1.2 0.72 1.44 0.537 2.849 0.119 4.08 0.24 0.343 0.034 0.256 0.391 0.72 0.48 5.175 0.988 8.466-2.95 13.921-2.4 0.348-0.852 2.052-0.348 3.119-0.48 0.027-0.293 0.072-0.568 0.48-0.48v-1.44c-0.29-0.027-0.57-0.072-0.48-0.48zm9.36 2.4c0.603-0.198 2.066 0.466 1.92-0.48-0.6 0.198-2.07-0.467-1.92 0.48zm2.64 6.72c1.229-0.212 2.372-0.508 2.641-1.68-0.022-0.378-0.612-0.188-0.48-0.72-1.39 0.027-2.98 0.942-2.16 2.4zm41.76 0.72c0.563 0.077 0.9 0.379 1.68 0.24v-0.96c-0.97-0.168-1.11 0.492-1.68 0.72zm-76.08 0.48c-0.864-0.062-2.757 0.497-0.96 0.48 0.003 0.317 0.42 0.219 0.479 0.48-0.017 0.897 0.386 1.375 0.96 1.68-0.113-1.394 1.561-1 1.92-1.92-0.51 0.161-1.36-0.645-2.4-0.72zm-116.88 5.76c-0.92 3.034-1.193 5.228-2.4 7.92 1.37 0.213 1.785-1.482 2.4-1.68 0.884-0.285 0.912-1.266 1.439-1.92 0.536-0.664 1.898-1.721 2.4-1.92-0.97-0.71-0.484-2.876-0.96-4.08-0.73 0.79-1.65 1.386-2.88 1.68zm200.88 0c0.206-1.486-1.548-1.012-2.4-1.44 0.29 0.993 1.07 1.491 2.4 1.44zm9.84 0.48c2.371 0.909 3.265 3.295 6.479 3.36 0.478-1.233-0.54-1.518-1.199-2.16-1.307-1.271-2.884-2.158-4.801-2.64h-0.479v1.44zm15.12 4.32c1.913 0.087 2.316 1.683 4.08 1.92-0.425-1.256-1.626-1.734-2.16-2.88-3.366-0.714-3.686-4.475-7.44-4.8 1.17 2.594 4.2 3.321 5.52 5.76zm-235.2 1.44h-0.72c-0.316 3.081-1.827 6.122-2.641 7.92-1.205 0.074-1.045 1.515-2.399 1.44 0.139 1.408-1.665 1.653-0.24 2.4 0.331-1.311 1.159-0.633 2.4-0.96 0.729-0.871 1.507-1.693 2.159-2.64h0.721c1.341-2.179 2.592-4.448 2.88-7.68 0.681 0.041 0.468-0.812 1.439-0.48-0.076-1.037 0.403-1.517 1.44-1.44v-1.44c-1.97 0.674-4.16 1.12-5.04 2.88zm210.96-1.44c0.825-0.025 1.724-0.124 1.92 0.48 0.087-1.287-0.918-1.482-2.16-1.44-0.05 0.454 0.27 0.529 0.24 0.96zm41.28 4.08c0.395-1.159-0.618-1.447-1.2-1.68-0.173-0.069-0.186-0.459-0.24-0.48-0.251-0.097-1.016 0.18-1.2 0-0.043-0.042 0.049-0.466 0-0.48-0.496-0.139-1.053 0.149-1.439 0-0.056-0.021 0.056-0.457 0-0.48-0.888-0.375-1.979-0.414-2.88-0.48-0.46 3.065 4.16 3.001 6.96 3.6zm-225.84-2.64c0.494-0.146 1.667 0.387 1.439-0.48h-1.439v0.48zm-6.24 1.44c-0.104 0.857-1.083 0.838-1.681 1.2-1.499 2.101-3.677 3.523-4.319 6.48 2.119 2.721-1.062 4.759-1.2 7.44 1.276 0.324 0.849 2.352 1.44 3.36 1.261-0.305 1.353-1.9 1.92-2.88 0.796-1.376 0.811-3.825 1.92-4.8 0.11-0.098-0.076-0.586 0-0.72 0.683-1.196 0.034-3.417 0.479-4.8 0.556-1.724 2.263-1.896 3.84-2.88-0.251-0.869 0.545-2.784-0.479-2.88 0.15 0.947-1.32 0.282-1.92 0.48zm230.64 4.08c0.575 0.145 1.095 0.345 1.92 0.24-0.202-0.678-0.668-1.092-1.439-1.2 0.18 0.655-0.48 0.483-0.48 0.96zm-252 9.6c-0.135 2.152 0.313 3.536 0.48 4.8 0.406-0.393 0.596-1.004 1.439-0.96 0.305-2.416 2.986-2.454 3.36-4.8 0.702 0.062 0.737-0.543 1.439-0.48 0.271-1.572 2.166-2.79 1.44-4.56-1.76 2.962-4.97 4.469-8.16 6zm-20.16 1.68c0.176 0.624 1.142 0.458 1.2 1.2 1.239-0.681 2.708-1.132 2.88-2.88h0.96c0.644-1.597 2.712-1.768 3.84-2.88 0.072-0.472-0.323-0.476-0.479-0.72 0.589-0.588 1.384 0.521 1.439-0.48-3.54 0.704-8.25 2.309-9.84 5.76zm10.8-2.16c-1.614 1.427-2.888 3.193-4.32 4.8 0.292 0.027 0.568 0.072 0.48 0.48 1.075-0.125 1.542-0.857 2.16-1.44 0.378 0.021 0.188 0.612 0.72 0.48 0.887-2.234 4.547-1.693 5.521-3.84-0.304-0.21-2.228 0.001-2.64 0.48-0.27-0.691-1.17-0.747-1.92-0.96zm15.6 5.76c-2.186 1.015-2.818 3.582-4.8 4.8-0.935 2.518-5.21 7.534 1.439 6.96 0.552-0.648 0.163-2.237 1.44-2.16-0.295-1.255 0.392-1.528 0.479-2.4-0.903-0.457-0.312-2.407-0.479-3.6 0.776 0.296 0.184-0.777 0.96-0.48v-1.2c0.906-0.613 2.276-3.367 1.439-3.36 0.04 0.681-0.81 0.468-0.48 1.44zm5.76 5.76c0.339 1.539-0.662 1.737-0.479 3.12 0.472-0.072 0.476 0.324 0.72 0.48 0.705-0.815 0.708-2.332 2.64-1.92 0.026-1.466-0.809-2.071-0.96-3.36-0.57 0.631-0.95 1.447-1.92 1.68zm-38.16 8.88c0.047-1.072 1.179-1.061 1.44-1.92 2.954-0.727 3.736-3.624 3.84-7.2-0.346-0.134-0.585-0.375-0.72-0.72-2.25 0.047-3.034 1.883-3.84 3.12-0.233 0.358-0.813 0.698-0.96 0.96-0.33 0.59-0.25 1.425-0.48 1.92-0.029 0.062-0.45-0.062-0.48 0-0.21 0.435-0.083 0.856-0.24 1.2-0.367 0.806-1.095 1.398-1.2 2.4 0.377 0.183 0.358 0.762 0.96 0.72 0.2-0.517 0.88-0.557 1.68-0.48zm30 1.92h0.48v-0.48h-0.48v0.48z"/>
</g>
<metadata><rdf:RDF><cc:Work><dc:format>image/svg+xml</dc:format><dc:type rdf:resource="http://purl.org/dc/dcmitype/StillImage"/><cc:license rdf:resource="http://creativecommons.org/licenses/publicdomain/"/><dc:publisher><cc:Agent rdf:about="http://openclipart.org/"><dc:title>Openclipart</dc:title></cc:Agent></dc:publisher><dc:title>eagle with branch</dc:title><dc:date>2013-11-08T12:41:38</dc:date><dc:description>from The Evening Herald 1919</dc:description><dc:source>http://openclipart.org/detail/188478/eagle-with-branch-by-johnny_automatic-188478</dc:source><dc:creator><cc:Agent><dc:title>johnny_automatic</dc:title></cc:Agent></dc:creator><dc:subject><rdf:Bag><rdf:li>eagle</rdf:li><rdf:li>branch</rdf:li><rdf:li>laurel</rdf:li><rdf:li>bird</rdf:li><rdf:li>animal</rdf:li></rdf:Bag></dc:subject></cc:Work><cc:License rdf:about="http://creativecommons.org/licenses/publicdomain/"><cc:permits rdf:resource="http://creativecommons.org/ns#Reproduction"/><cc:permits rdf:resource="http://creativecommons.org/ns#Distribution"/><cc:permits rdf:resource="http://creativecommons.org/ns#DerivativeWorks"/></cc:License></rdf:RDF></metadata></svg>
