<?xml version="1.0" encoding="UTF-8" standalone="no"?>
<svg xmlns:rdf="http://www.w3.org/1999/02/22-rdf-syntax-ns#" xmlns="http://www.w3.org/2000/svg" height="1719" viewBox="0 0 2019 1719" width="2019" version="1.1" xmlns:cc="http://creativecommons.org/ns#" xmlns:dc="http://purl.org/dc/elements/1.1/">
<path d="m500.36 1717.5c-1.1466-0.8031-2.6379-2.7957-3.3141-4.4281-2.1013-5.073-7.7711-4.8034-19.084 0.9074-11.19 5.6485-23.962 2.9827-23.962-5.001 0-3.293-1.9813-4.3559-5.5738-2.99-7.0749 2.6898-8.6059 1.0402-5.3248-5.7377 2.3179-4.7882 1.6362-6.901-2.4138-7.4804-3.4891-0.4991-3.1181-3.4131 1.2714-9.9865 5.438-8.1435 4.5116-8.9708-6.1911-5.5284-10.918 3.5117-15.347 4.089-20.768 2.7072-2.475-0.631-7.4867-1.7135-11.137-2.4057-4.1779-0.7923-8.4098-2.4328-11.421-4.4276-4.3164-2.8591-5.5256-3.169-12.363-3.169-7.8013 0-20.666-2.1876-22.264-3.786-0.53627-0.5363-0.45404-3.7032 0.20273-7.8081 1.0413-6.5084 0.98631-6.9849-0.9559-8.2779-2.0779-1.3833-2.7473-3.6782-1.2526-4.2947 1.859-0.7667 7.1918-9.8971 7.1918-12.313 0-3.8707 2.1904-7.3777 8.423-13.486 3.0674-3.0063 5.577-5.9901 5.577-6.6308 0-5.6089 26.261-25.475 35.845-27.116 6.6209-1.134 7.9516-1.758 12.176-5.7097 3.0452-2.8484 6.3066-4.8326 9.1111-5.5429 2.4024-0.6084 6.393-1.8034 8.868-2.6556 2.475-0.8521 6.975-2.1035 10-2.781 7.8542-1.759 8.4415-2.1556 11.492-7.7609 1.5108-2.7757 4.9392-7.9433 7.6187-11.483 2.6795-3.5401 5.1585-7.6553 5.5089-9.145 0.35039-1.4896 1.422-4.0584 2.3812-5.7084 0.95929-1.65 2.0369-4.9442 2.3946-7.3204 0.35775-2.3762 1.2451-5.3012 1.9719-6.5 0.72677-1.1988 1.8644-5.3296 2.5281-9.1796 0.66366-3.85 1.6084-8.8 2.0994-11s1.1496-9.4 1.4635-16c0.31394-6.6 1.0329-14.868 1.5977-18.372 0.77712-4.8224 0.6745-8.9568-0.42197-17-0.79686-5.8453-1.5125-14.678-1.5902-19.628-0.0778-4.95-0.60843-11.925-1.1792-15.5-0.97144-6.0844-3.5615-27.53-4.4081-36.5-0.83919-8.8909-5.3655-30.506-7.3074-34.896-1.7047-3.8536-1.8674-5.1286-0.92003-7.2079 0.87237-1.9146 0.86291-3.6031-0.0391-6.9756-0.65453-2.4472-1.1901-7.3793-1.1901-10.96 0-4.024-0.78079-8.6973-2.0443-12.236-1.4115-3.9529-2.3329-10.138-2.9766-19.982-0.51276-7.8416-1.8428-17.916-2.9557-22.387-1.1129-4.4714-2.0234-9.9735-2.0234-12.227 0-7.3436-4.2729-36.222-7.9348-53.628-1.0992-5.225-2.936-15.35-4.0818-22.5-1.1457-7.15-2.7848-16.6-3.6424-21-0.85758-4.4-1.9371-10.925-2.3988-14.5-0.46178-3.575-1.3333-9.2-1.9366-12.5-0.60338-3.3-1.5272-8.925-2.053-12.5-0.52575-3.575-1.3854-8.975-1.9104-12-0.52496-3.025-1.4694-9.1-2.0989-13.5-0.62942-4.4-1.5823-10.7-2.1176-14-1.1473-7.0735-1.7377-13.305-2.2074-23.298-1.6516-35.136-4.0119-53.882-8.2868-65.815-1.95-5.37-4.11-11.84-4.79-14.32-0.6897-2.475-2.8372-7.425-4.7722-11s-4.722-9.65-6.1932-13.5-3.0982-7.675-3.6154-8.5c-3.8056-6.0698-8.4119-16.479-11.972-27.054-2.3046-6.8451-5.3204-15.371-6.7016-18.946-9.5208-24.642-12.902-34.176-15.782-44.5-2.0544-7.365-5.3012-16.777-9.7091-28.146-1.6213-4.1815-2.5287-5.2523-4.8432-5.7152-2.89-0.57-5.95-7.31-5.95-13.07 0-1.9187-3.8758-8.1663-9.1549-14.757-1.1904-1.4863-2.7317-5.3113-3.425-8.5-0.69336-3.1887-1.7222-7.1477-2.2863-8.7977-0.56411-1.65-1.5216-5.7-2.1277-9-0.60614-3.3-1.6198-8.25-2.2525-11-1.3646-5.9306-1.2394-19.975 0.24064-27 0.57938-2.75 1.4473-7.7 1.9288-11 0.48145-3.3 1.3087-7.125 1.8383-8.5 1.5962-4.144 2.88-17.777 3.5784-38 0.23744-6.875 0.87208-13.625 1.4103-15 2.0775-5.3073-1.2977-46.291-4.2887-52.075-0.76955-1.4881-1.8858-5.3426-2.4805-8.5655-0.59473-3.2229-1.4577-7.8848-1.9177-10.36-1.1666-6.2763-3.7434-15.321-5.9369-20.839-1.0191-2.5636-2.3904-6.9111-3.0472-9.6611-0.65688-2.75-1.7943-6.2082-2.5276-7.685-0.73328-1.4768-1.899-5.0768-2.5905-8-0.69147-2.9232-2.4907-8.69-3.9982-12.815-1.5076-4.125-3.2138-9.3-3.7916-11.5-1.61-6.1303-6.1326-21.199-8.7041-29-1.4821-4.4965-2.7179-11.828-3.4553-20.5-0.63141-7.425-1.5516-15.3-2.0448-17.5-0.49321-2.2-1.4366-6.7-2.0964-10-0.65981-3.3-1.7202-7.125-2.3565-8.5-0.63626-1.375-1.2547-6.775-1.3742-12-0.43407-18.971-3.9377-43.868-7.1067-50.5-1.5768-3.3-3.8674-9.15-5.0903-13-4.9-15.43-13.69-26.62-22.94-29.2-10.43-2.9178-12.031-2.8113-17.52 1.165-13.817 10.009-42.934 15.202-53.508 9.5435-1.2107-0.64797-3.5111-0.6541-6.6605-0.0178-2.6461 0.53464-11.786 1.4424-20.311 2.0172-16.504 1.1129-23.768 2.3256-28.326 4.7289-1.5546 0.81966-4.9296 1.4338-7.5 1.3648s-6.4735-0.17379-8.6735-0.23283c-2.2-0.0591-15.25 0.0282-29 0.19399-25.875 0.3119-29.797-0.11014-37.494-4.0355-4.544-2.32-18.527-7.01-20.878-7.01-0.99894 0-3.7231-2.0345-6.0537-4.521-2.3306-2.4866-6.4036-5.6187-9.051-6.9602-5.0986-2.58-7.037-5.85-7.037-11.84 0-1.6621-0.72822-3.8267-1.6183-4.8102-3.9892-4.4081-3.0246-13.714 2.0513-19.789 1.8956-2.2688 3.705-4.9025 4.0209-5.8526 0.64681-1.945 6.3592-6.2582 14.208-10.727 6.7794-3.8605 19.888-13.995 28.974-22.399 21.413-19.808 32.984-29.084 36.295-29.096 1.5732-0.006 10.538-5.6303 21.923-13.755 4.0462-2.8875 7.9437-5.25 8.661-5.25 0.71734 0 4.4385-2.5875 8.2692-5.75s9.7118-7.433 13.069-9.4899c4.5197-2.7692 6.2469-4.4563 6.6542-6.5 0.30253-1.5181 0.97087-4.0578 1.4852-5.6438 0.60978-1.8804 0.5714-3.5634-0.11032-4.8372-1.6833-3.1452-0.005-11.751 3.234-16.579 3.5761-5.3316 3.5723-5.6522-0.11573-9.8526-4.26-4.87-2.95-13.35 2.08-13.35 2.6658 0 9.2526-3.3618 15.434-7.8775 7.438-5.4333 20.844-13.851 27-16.955 1.65-0.83176 4.35-2.5084 6-3.7258s5.025-3.2264 7.5-4.4644 5.772-3.3144 7.3267-4.6142c1.55-1.3 3.64-2.364 4.63-2.364 0.99357 0 3.3128-1.9621 5.1538-4.3603s6.7311-6.5614 10.867-9.2516l7.5195-4.8912 0.74572-8.9574c3.2999-39.637 28.582-62.238 49.061-43.858 2.0938 1.8792 6.1438 4.9962 9 6.9267s7.3814 5.0585 10.056 6.9511c3.1453 2.2257 6.0161 3.4411 8.1276 3.4411 1.7955 0 3.864 0.72226 4.5966 1.605 1.0945 1.3188 2.4093 1.4695 7.3724 0.84532 9.6748-1.2168 34.474-0.5316 36.933 1.0205 1.1592 0.73167 4.5304 1.8332 7.4916 2.4479l5.384 1.1176 5.116-3.9042c5.3056-4.0489 16.609-9.3907 22.508-10.637 1.8659-0.39417 5.3589-2.5292 7.7622-4.7446 5.2526-4.8417 11.102-4.9076 20.458-0.23026 5.1095 2.5543 7.0613 4.0728 12.887 10.026 1.375 1.4051 5.1861 5.1194 8.469 8.254 3.283 3.1346 7.6643 7.363 9.7363 9.3964s5.686 4.6365 8.031 5.7846c6.53 3.197 10.184 5.3255 12.908 7.5182 23.299 18.758 4.7802 69.372-26.435 72.251-6.8906 0.63547-8.8912 2.7955-6.2799 6.7807 0.86409 1.3188 1.5711 3.737 1.5711 5.3739s0.45856 3.2596 1.019 3.606c0.56045 0.34638 2.1883 2.9604 3.6174 5.809s4.0908 7.2764 5.915 9.8396c3.9503 5.5509 7.4487 12.208 7.4487 14.175 0 1.4899 8.6703 19.638 14.65 30.665 3.5358 6.52 5.9509 12.757 11.423 29.5 1.6179 4.95 3.4762 9.9 4.1295 11 4.4611 7.5109 6.7634 12.279 6.7791 14.039 0.01 1.1212 0.97471 3.8212 2.1439 6s2.4672 5.9864 2.8846 8.4614c0.79364 4.7062 2.4179 9.7679 4.4924 14 0.67401 1.375 1.516 3.7209 1.8712 5.2132 0.35513 1.4922 2.1655 5.3172 4.0231 8.5s4.096 7.919 4.9743 10.525c0.87828 2.606 2.0009 5.531 2.4946 6.5 0.49377 0.96905 1.4145 3.9566 2.0461 6.6391 0.63157 2.6825 2.9501 7.9624 5.1524 11.733 4.6492 7.9606 9.9356 19.422 9.9356 21.542 0 0.80598 1.3138 3.1265 2.9194 5.1568 1.6057 2.0302 5.789 8.4164 9.2964 14.191 3.5073 5.775 8.156 12.3 10.331 14.5 2.1745 2.2 5.3853 6.1069 7.1352 8.6821 3.912 5.7571 6.9685 7.8388 12.53 8.534 2.3585 0.29481 5.795 1.4434 7.6367 2.5524 1.9344 1.1648 6.3687 2.3536 10.5 2.8148 3.9333 0.4391 10.301 1.349 14.151 2.0219 3.85 0.67298 9.1208 1.1366 11.713 1.0302 2.592-0.10637 6.348 0.48983 8.3466 1.3249 2.2238 0.92915 8.5436 1.7529 16.287 2.123 8.5035 0.40635 15.277 1.3444 20.653 2.8603 10.478 2.9542 19.172 4.5793 27.905 5.2158 3.9024 0.28444 9.1203 1.1258 11.595 1.8696 6.6759 2.0064 19.847 2.6689 34.5 1.7354 13.057-0.83184 31.395-0.14776 43.5 1.6227 36.979 5.4087 83.973 7.3082 92.218 3.7276 2.0448-0.88809 6.1854-1.6147 9.2012-1.6147 5.5534 0 14.775-1.9634 18.444-3.9268 1.103-0.59029 3.7225-1.0811 5.8211-1.0906 2.0987-0.01 6.9657-0.69346 10.816-1.5198 3.85-0.82634 9.925-1.9379 13.5-2.4702 12.625-1.8797 24.576-3.9842 31-5.4589 3.575-0.82064 8.3-1.5174 10.5-1.5484 5.7481-0.0809 20.479-2.521 24-3.9756 2.7446-1.1337 15.476-2.3242 37.5-3.5065 4.675-0.25097 10.75-0.73117 13.5-1.0671 2.75-0.33595 10.4-0.80225 17-1.0362 6.6-0.23398 16.275-0.87831 21.5-1.4318 16.377-1.7349 29.216-2.0021 37.295-0.77606 6.1141 0.92789 9.4066 0.91214 15.27-0.0731 9.7509-1.6384 68.033-2.4836 79.935-1.1592 4.95 0.5508 13.5 1.6763 19 2.501 5.5 0.82476 15.625 2.1994 22.5 3.0549 23.453 2.9181 28.501 3.5682 35.5 4.5712 3.85 0.55178 8.575 1.0207 10.5 1.0421s7.775 0.95162 13 2.0671c14.967 3.1954 23.216 4.8489 27 5.412 6.2721 0.93342 20.392 4.5084 24.998 6.3295 7.2112 2.8506 11.836 4.2044 17.347 5.0773 2.8351 0.44912 8.3047 2.0098 12.155 3.4683 3.85 1.4584 8.125 3.0086 9.5 3.4449 1.375 0.43624 4.7256 2.2059 7.4458 3.9325 2.8086 1.7827 6.2872 3.1393 8.05 3.1393 1.7073 0 3.5317 0.42459 4.0542 0.94352 0.8416 0.83587 9.9981 4.1644 23.45 8.5243 2.475 0.80219 9.2219 2.6578 14.993 4.1235 5.7712 1.4657 13.871 4.1326 18 5.9263 4.1289 1.7937 8.632 3.574 10.007 3.9562 7.9235 2.2022 27.86 11.447 43 19.941 4.675 2.6226 11.806 6.0896 15.846 7.7045s9.89 4.6587 13 6.764 7.0045 4.5307 8.6545 5.3897 6.825 4.64 11.5 8.4022 12.888 9.7089 18.25 13.215c5.3625 3.506 9.75 6.7508 9.75 7.2108 0 0.45998 2.5875 2.7216 5.75 5.026 5.3634 3.9079 8.353 6.4421 22.835 19.356 3.073 2.7403 6.9429 7.0153 8.5998 9.5 1.6568 2.4847 4.3181 5.5628 5.914 6.8402s2.9016 2.7467 2.9016 3.2651c0 0.51847 2.7 4.3403 6 8.493s6 8.0023 6 8.5547c0 2.6757 6.3705 9.9389 10.273 11.712 7.5994 3.4534 17.193 14.261 22.308 25.13 0.9001 1.9126 2.8753 5.2876 4.3894 7.5 4.4401 6.4876 21.03 40.962 21.03 43.701 0 3.3709 3.0835 12.13 6.825 19.387 1.6829 3.264 3.3548 7.1535 3.7155 8.6435 0.3606 1.4899 1.2866 3.2325 2.0576 3.8724 0.7711 0.6399 1.4019 2.1526 1.4019 3.3616s0.9388 6.4414 2.0862 11.628c1.1475 5.1862 2.4076 12.129 2.8003 15.429 0.3926 3.3 1.233 6.9439 1.8673 8.0976 0.6344 1.1537 1.619 4.7537 2.1879 8 1.0446 5.9601 3.7584 18.457 6.602 30.402 0.8511 3.575 2.0469 9.425 2.6575 13 0.6105 3.575 1.9647 9.65 3.0092 13.5 2.8091 10.354 3.5007 13.193 5.3593 22 0.9285 4.4 2.3079 9.9361 3.0652 12.302 0.7573 2.3663 1.1059 5.3822 0.7747 6.7019-0.3313 1.3198 0.096 4.5587 0.9501 7.1976 0.8538 2.639 2.0564 8.6042 2.6725 13.256 0.6161 4.6519 1.51 9.1866 1.9866 10.077 0.4765 0.89044 1.1532 4.0593 1.5037 7.042 0.3504 2.9826 1.0689 6.773 1.5965 8.423 1.2081 3.778 3.6418 16.343 3.6801 19 0.016 1.1 0.7294 9.2 1.5856 18s1.5699 22.331 1.586 30.068c0.021 9.9774 0.4995 15.648 1.6461 19.5 1.1204 3.7636 1.4463 7.4274 1.0614 11.931-0.5903 6.9082 1.0241 18.533 3.6108 26 0.8573 2.475 2.089 7.2 2.737 10.5 3.1034 15.804 3.8524 18.713 5.2256 20.296 0.8128 0.937 1.7317 3.3682 2.042 5.4026 0.3102 2.0344 1.3094 5.2695 2.2203 7.1891s1.4735 4.3051 1.2503 5.3011c-0.2233 0.996 0.5806 3.8359 1.7864 6.3109s3.0057 8.1 3.9999 12.5c0.9941 4.4 2.4743 9.35 3.2892 11 0.815 1.65 2.0992 6.15 2.8539 10 0.7546 3.85 1.6373 8.2647 1.9616 9.8105s1.8845 3.768 3.4672 4.9381c1.6767 1.2396 2.8776 3.0599 2.8776 4.3617 0 1.2288 1.5621 4.1817 3.4714 6.562 1.9092 2.3802 4.4029 6.0339 5.5415 8.1192 3.1274 5.728 9.3762 11.467 13.776 12.652 2.1417 0.5767 4.7102 1.9505 5.7078 3.0528s2.6183 2.0042 3.6016 2.0042 3.2761 0.8503 5.095 1.8895c4.3527 2.4868 19.343 3.4854 22.883 1.5244 1.3334-0.7387 4.2243-1.3664 6.4243-1.3949 2.3003-0.03 5.5554-1.001 7.6603-2.2855 2.0131-1.2284 5.8381-3.5522 8.5-5.164 10.893-6.5961 26.027-20.532 31.263-28.788 4.6551-7.3403 17.703-13.153 24.335-10.842 1.672 0.5828 5.153 1.0597 7.7356 1.0597 6.7919 0 17.386 5.4609 17.816 9.1836 0.7289 6.3094-5.1437 11.816-12.601 11.816-10.416 0-29.396 15.835-39.31 32.797-1.06 1.8135-3.989 4.5135-6.509 6-2.5199 1.4865-6.7719 4.5028-9.4487 6.7028-2.6769 2.2-6.1213 4.9456-7.6543 6.1014-5.1235 3.8628-16.094 9.1537-21.469 10.354-2.9249 0.6533-6.3267 1.6795-7.5595 2.2805-1.5113 0.7367-2.9771 0.7733-4.5 0.1121-1.2422-0.5392-4.5085-0.8742-7.2585-0.7444-2.75 0.1299-6.575-0.1507-8.5-0.6236-1.925-0.4728-6.65-1.617-10.5-2.5427-8.5956-2.0668-11.105-3.3165-17.482-8.7078-9.504-8.0339-11.542-9.4782-17.869-12.663-7.896-3.9752-7.8567-4.054-2.2697 4.5483 2.5415 3.9132 5.7459 8.9999 7.1209 11.304 13.53 22.672 35.588 51.936 48.05 63.747 2.9974 2.841 7.697 8.016 10.444 11.5 9.6594 12.253 15.925 19.365 19.716 22.376 2.1058 1.673 5.4217 5.4074 7.3687 8.2984 1.9469 2.8911 4.6166 5.7471 5.9326 6.3466 2.4377 1.1107 5.489 6.2694 5.489 9.28 0 0.9155 0.4615 2.527 1.0257 3.5812 0.702 1.3116 0.6906 7.0494-0.036 18.184-1.242 19.028-1.2461 15.739 0.042 33.268 0.5657 7.7 1.3823 20.075 1.8146 27.5 0.599 10.289 1.306 14.752 2.9719 18.765 1.2022 2.896 2.1909 6.721 2.1971 8.5 0.1085 31.036-1.9831 67.966-4.0652 71.777-0.7385 1.3516-1.9001 6.2826-2.5813 10.958-0.6812 4.6749-1.7693 10.975-2.418 14-1.3922 6.4922-0.637 31.364 1.1387 37.5 1.7 5.8748 1.882 24.259 0.2821 28.5-0.7262 1.9249-2.6265 10.025-4.2229 18-3.6644 18.306-8.8825 30.2-13.601 31.002-1.9552 0.3322-3.8135 1.7498-5.5 4.1958-2.2731 3.2967-17.676 15.928-22.704 18.619-5.2845 2.8282-20.844 6.3025-25.411 5.6743-3.8598-0.5308-5.5798-0.1959-9.6897 1.8867-12.123 6.1432-21.098 5.2857-19.931-1.9042 0.6513-4.0136-0.5396-4.6795-5.0286-2.8118-1.7698 0.7364-6.45 1.3388-10.4 1.3388-5.7593 0-8.267 0.5306-12.656 2.678-3.0105 1.4729-7.7804 2.8644-10.6 3.0922l-5.126 0.4142-3.2902-7.1227c-1.8095-3.9175-3.0345-7.5363-2.7222-8.0417 0.3124-0.5055-0.7945-1.9264-2.4598-3.1576-3.3378-2.4677-3.7523-4.383-1.6104-7.441 2.7316-3.8999 3.1205-9.468 0.7054-10.1-2.567-0.6713-2.8031-3.9056-0.5228-7.1612 0.88-1.2564 1.6-3.776 1.6-5.5991 0-3.045 18.487-23.562 21.231-23.562 2.3692 0 11.792-8.0353 13.537-11.543 4.2334-8.5123 11.234-12.451 22.149-12.462 11.917-0.012 21.245-9.3865 19.422-19.518-0.3326-1.8488 0.027-3.8388 0.926-5.122 4.9457-7.061 7.9253-41.593 4.1913-48.574l-1.9895-3.7194 2.5574-2.5574c4.1892-4.1893 5.6477-30.896 2.3485-43.004-0.7493-2.75-1.6459-8.375-1.9924-12.5-0.3464-4.125-1.2738-9.3-2.0608-11.5-0.7871-2.2-1.4508-5.5055-1.4749-7.3456-0.024-1.8401-0.9295-4.5894-2.0119-6.1094-2.808-3.9436-10.032-19.128-10.032-21.087 0-0.9064-0.8377-2.406-1.8615-3.3326-1.0238-0.9265-2.6442-3.5837-3.6009-5.9049-4.5641-11.074-8.8435-18.186-15.041-24.998-2.7481-3.0204-7.4715-8.7593-10.496-12.753-3.025-3.9939-6.7312-8.1759-8.236-9.2934s-5.0808-5.6643-7.9467-10.104c-2.8659-4.4398-8.2351-11.088-11.932-14.775-3.6965-3.6863-7.015-7.6294-7.3746-8.7624s-2.1874-3.1021-4.0618-4.3758c-4.1528-2.8219-15.449-15.449-15.449-17.269 0-1.221-1.9153-3.4625-11.9-13.926-2.1182-2.2199-5.4828-6.5866-7.4769-9.7038-1.994-3.1172-5.4497-7.1337-7.6794-8.9255-4.2287-3.3983-17.574-18.537-21.698-24.614-1.312-1.9333-5.548-6.7113-9.4133-10.618-3.8654-3.9065-10.626-11.48-15.024-16.829-4.3976-5.3493-9.5285-10.673-11.402-11.831-1.8736-1.1579-4.991-4.039-6.9276-6.4024-3.5722-4.3593-4.3902-4.9811-19.479-14.807-4.675-3.0443-10.237-7.6367-12.359-10.205-2.1227-2.5685-4.8262-5.1105-6.0079-5.649-1.1817-0.5384-4.1463-3.7076-6.588-7.0426-4.8866-6.6746-18.504-20.836-20.036-20.836-0.5323 0-1.9278-1.9125-3.101-4.25-1.1733-2.3375-2.9609-5.1561-3.9726-6.2636-1.0117-1.1076-2.5874-3.8076-3.5016-6-0.9141-2.1925-2.5414-5.2241-3.6161-6.7369-1.8287-2.574-6.3906-10.9-13.013-23.75-1.5589-3.025-5.9777-9.6656-9.8195-14.757-3.8417-5.0913-6.986-9.8163-6.9873-10.5 0-0.6838-3.5167-6.1932-7.8121-12.243-10.253-14.442-15.838-24.125-17.374-30.123-1.4612-5.7079-5.2892-12.377-7.1043-12.377-5.673 0-4.3132 53.372 1.7405 68.319 0.7085 1.7494 1.5774 5.7761 1.9309 8.9484 0.7017 6.298 5.3043 20.911 8.565 27.194 1.1308 2.1788 2.056 4.7792 2.056 5.7786 0 0.9993 1.35 4.4914 3 7.76s3 6.4326 3 7.0311c0 0.5984 1.8 4.8594 4 9.4689s4 8.6448 4 8.9674 2.4472 4.6459 5.4382 9.6074c2.991 4.9614 5.9662 10.687 6.6115 12.723 0.6452 2.0362 1.8972 4.8272 2.7821 6.2022s2.2972 3.7282 3.1385 5.2293c8.093 14.44 10.716 18.73 13.188 21.572 1.5795 1.8159 4.6681 6.7659 6.8636 11 5.4948 10.597 7.5458 14.087 9.7351 16.569 1.0333 1.1712 4.094 5.434 6.8015 9.4729 2.7074 4.0389 5.6804 7.749 6.6067 8.2447 0.9262 0.4957 3.3672 3.6722 5.4245 7.0589 2.0573 3.3866 5.6914 8.354 8.0756 11.039 2.3843 2.6846 4.3351 5.2783 4.3351 5.7638s1.8353 2.833 4.0784 5.2166c2.2431 2.3837 4.7228 5.5581 5.5104 7.0543 0.7875 1.4962 2.282 3.1753 3.321 3.7313 1.039 0.5561 3.8007 3.8318 6.1372 7.2797 2.3365 3.4477 5.769 7.9709 7.6278 10.052 1.8588 2.0806 4.4274 6.1306 5.708 9 1.2806 2.8693 3.2934 6.0742 4.4728 7.122 1.1794 1.0477 2.1444 2.5037 2.1444 3.2354s1.4016 4.0043 3.1148 7.2725c5.4169 10.334 3.9377 29.478-3.0224 39.117-2.1971 3.0426-7.1497 14.376-9.6003 21.97-0.9762 3.025-2.3863 7.1966-3.1335 9.2702-0.7472 2.0737-1.3586 5.2657-1.3586 7.0935 0 3.6919-2.7265 12.032-5.9167 18.098-1.1458 2.1788-2.0833 5.3539-2.0833 7.0558 0 1.745-1.1089 4.5961-2.5432 6.5385-1.3988 1.8944-3.2097 5.7344-4.0242 8.5333-0.8145 2.799-3.4962 7.951-5.9594 11.449-2.4631 3.498-5.3772 8.7621-6.4757 11.698-1.2064 3.2245-3.6951 7.0062-6.2854 9.551-2.3584 2.317-5.3675 5.7878-6.6868 7.7128-1.3192 1.925-4.4758 5.975-7.0145 9-4.5409 5.4106-10.485 14.09-13.013 19-0.7079 1.375-3.0038 4.75-5.1021 7.5-10.9 14.286-18.896 26.414-18.896 28.661 0 0.9272-1.0617 2.9578-2.3593 4.5125s-3.0689 4.1767-3.9363 5.8267c-0.8673 1.65-3.6263 5.7-6.131 9-2.5048 3.3-5.2581 8.1029-6.1186 10.673-0.8604 2.5702-2.2875 5.2702-3.1713 6-0.8838 0.7299-2.6106 3.577-3.8373 6.327-1.2268 2.75-3.4582 6.125-4.9589 7.5-1.5006 1.375-3.6063 4.525-4.6793 7-2.1382 4.9319-9.0408 14.473-12.499 17.276-1.205 0.9768-2.4857 2.7051-2.8461 3.8405-0.674 2.1235-9.462 6.8557-12.765 6.8736-0.991 0.01-3.466 0.8606-5.5 1.9004-8.4133 4.3012-15.387 7.1094-17.655 7.1094-1.327 0-3.6795 0.5171-5.2278 1.1492-3.1136 1.271-11.455 2.0909-39.9 3.9219-24.069 1.5493-28.107 0.641-26.774-6.0226l0.5748-2.8741-8.3575 0.5253c-5.7736 0.3629-9.4397 1.1457-11.858 2.5317-17.381 9.9636-30.832 4.2352-21.54-9.1729 3.2587-4.7024 3.1968-5.6341-0.4595-6.9087-4.6771-1.6304-1.3441-9.6211 6.6608-15.969 1.8595-1.4745 4.4477-4.2849 5.7515-6.2454s3.6572-4.8855 5.2298-6.5c5.0334-5.1676 11.783-14.861 13.966-20.057 1.0593-2.5214 2.2095-3.3473 5.9861-4.2982 2.5711-0.6475 6.3964-2.0555 8.5006-3.1289 2.1415-1.0926 5.8368-1.9518 8.3941-1.9518 3.1205 0 6.5129-0.9816 10.704-3.0972 7.3555-3.713 14.152-5.8772 18.505-5.892 1.7584-0.01 5.3129-1.1358 7.8989-2.5108s6.1492-2.5 7.9181-2.5c4.6172 0 17.486-13.613 17.486-18.497 0-0.4006 1.1569-2.1401 2.571-3.8656 3.3517-4.09 6.5484-8.8465 10.509-15.637 1.7644-3.025 4.8829-7.3 6.93-9.5 4.5196-4.8572 8.9898-11.476 8.9898-13.312 0-0.7411 1.9332-5.2491 4.2959-10.018 2.3628-4.7688 5.3597-11.596 6.6599-15.17 1.3002-3.575 2.9993-7.2461 3.7758-8.158 2.8862-3.3894 9.0214-19.696 12.286-32.655 1.0133-4.0224 2.2947-7.8584 2.8476-8.5245 1.5535-1.8719 4.4574-10.763 4.7885-14.662 0.1635-1.925 0.9529-9.8 1.7541-17.5 3.553-34.142 1.8162-42.818-11.811-59-1.3895-1.65-4.9047-6.1123-7.8116-9.9162s-7.5353-9.4721-10.285-12.596c-7.3271-8.323-10.922-13.337-17.445-24.334-3.2123-5.4153-8.4399-12.734-11.617-16.265-3.1769-3.5304-8.7377-11.724-12.357-18.209-3.6196-6.4847-8.0435-13.556-9.831-15.713-1.7875-2.1575-3.2524-4.3827-3.2553-4.9448 0-0.5622-4.1654-5.3695-9.25-10.683-5.0846-5.3133-11.134-12.288-13.444-15.5-2.3098-3.2117-6.1348-8.3769-8.5-11.478-2.3651-3.1014-7.1541-9.5139-10.642-14.25-3.488-4.7362-6.6915-8.6112-7.1188-8.6112-0.4274 0-3.1985-2.9907-6.1582-6.6461-2.9596-3.6554-7.2113-8.7179-9.4482-11.25s-5.2528-7.0789-6.7021-10.104c-1.4492-3.025-4.344-7.3453-6.4329-9.6006-7.3788-7.9669-17.811-21.467-18.835-24.374-0.5705-1.6193-1.9637-3.9751-3.096-5.2351-4.5208-5.0306-15.577-21.104-19.46-28.291-1.1887-2.2-4.0424-6.0258-6.3417-8.5017-2.2992-2.476-6.1408-7.8015-8.5367-11.835-2.396-4.033-5.4614-8.0568-6.8121-8.9418-2.9869-1.9571-16.61-19.29-24.439-31.094-3.1474-4.7456-7.0862-10.474-8.7527-12.73-1.6666-2.2558-3.8836-6.5309-4.9268-9.5001s-3.3333-8.7736-5.0892-12.899c-1.7558-4.125-3.5223-9.075-3.9254-11-0.4032-1.925-1.3068-4.5669-2.008-5.8709s-1.8617-5.804-2.5789-10-2.0261-10.253-2.9087-13.461c-0.8826-3.2074-1.3431-6.255-1.0233-6.7725 0.3198-0.51746-0.1524-3.1504-1.0494-5.8509-1.0327-3.1092-1.3898-6.1946-0.9738-8.4124 0.3614-1.9262 0.1425-5.0613-0.4864-6.9669-0.6289-1.9055-1.5143-5.6474-1.9676-8.3152-1.3505-7.9478-5.1401-21.437-7.8243-27.851-4.7576-11.368-3.7149-31.859 2.3553-46.284 0.76-1.8062 1.3918-4.9562 1.4039-7 0.012-2.0438 0.9138-5.6817 2.004-8.0842 4.7709-10.514 3.5189-23.07-3.0582-30.669-2.1823-2.5214-3.9678-5.0058-3.9678-5.5208 0-0.51496-1.6373-2.7486-3.6385-4.9637s-4.3643-5.4789-5.2512-7.2529c-2.7683-5.5369-9.3897-4.5322-28.309 4.2956-25.093 11.708-38.209 18.148-39.821 19.55-0.8362 0.72754-5.8207 3.5058-11.077 6.1739-5.2561 2.6681-11.322 6.2833-13.48 8.0337-2.1578 1.7504-5.9482 4.8345-8.4232 6.8534s-6.3926 4.5148-8.7058 5.5465c-2.3132 1.0316-4.7882 2.4497-5.5 3.1513-1.2698 1.2515-9.0028 6.6894-25.678 18.057-4.6111 3.1433-10.682 6.8798-13.492 8.3034-2.8093 1.4236-7.0983 4.5506-9.5311 6.9491-2.4328 2.3984-4.9699 4.3608-5.6381 4.3608s-3.8228 2.025-7.0101 4.5-6.2323 4.5-6.7666 4.5-3.0917 1.9832-5.6832 4.4072c-2.5914 2.424-6.688 5.3985-9.1037 6.61-2.4156 1.2116-5.517 3.2544-6.892 4.5397s-4.172 3.0354-6.2155 3.889c-2.0435 0.85363-5.996 3.5775-8.7834 6.053-2.7873 2.4755-5.7548 4.501-6.5943 4.501-0.8396 0-3.9056 2.25-6.8133 5s-5.6492 5-6.0923 5c-0.443 0-2.6495 1.3679-4.9033 3.0398-2.2539 1.6719-7.9229 5.3123-12.598 8.0898-4.675 2.7775-9.4 5.8563-10.5 6.8417-1.1 0.98544-6.275 3.8726-11.5 6.416s-11.525 5.9508-14 7.5721c-6.25 3.84-28.37 14.83-30.34 14.83-0.88323 0-1.8299 0.36248-2.1037 0.80552-1.1147 1.8036-28.573 14.779-42.62 20.14-2.475 0.94461-5.625 2.1928-7 2.7739-1.375 0.58102-4.75 1.4944-7.5 2.0298-5.3822 1.0478-12.592 3.4103-19 6.226-2.2 0.9667-5.8 2.4851-8 3.3741-4.6097 1.8629-17.677 4.6483-21.812 4.6495-1.5467 0.00045-4.9217 0.64628-7.5 1.4352-2.5784 0.7889-6.3622 1.7068-8.4085 2.0398-2.0463 0.33299-5.0363 1.7126-6.6444 3.0656-3.2869 2.7657-5.6568 3.1489-6.4641 1.0451-0.43953-1.1454-3.8431-1.4129-17.857-1.4035-9.5227 0.01-22.264-0.4485-28.314-1.011-21.69-2.0165-32.816-3.2474-33.571-3.7143-0.83273-0.51465-9.7136-1.5465-16.929-1.9669-2.475-0.14421-8.0271-0.98827-12.338-1.8757-11.542-2.376-11.41-2.5292-6.662 7.7285 3.5494 7.6686 3.6061 8.5833 1 16.158-1.1 3.1972-2 6.8126-2 8.0341 0 1.2216-0.675 2.7812-1.5 3.4659s-1.5 1.8166-1.5 2.5155c0 0.6988 0.675 1.5295 1.5 1.8461 2.4278 0.9317 1.7353 3.2946-1.8511 6.3156-4.2318 3.5646-8.3366 14.154-9.2346 23.823-0.35759 3.85-1.513 9.0058-2.5677 11.457-1.5966 3.7112-1.7203 4.9334-0.73929 7.3018 0.91794 2.2161 0.89463 3.7719-0.10551 7.0427-2.5671 8.395-4.1444 18.488-5.0258 32.158-0.49502 7.6775-1.3889 16.228-1.9864 19-0.95388 4.426-2.4293 24.594-2.3074 31.541 0.0241 1.375 0.25963 9.7 0.52334 18.5 0.26372 8.8 0.13052 16.962-0.29601 18.139-0.42652 1.1764-1.0405 11.526-1.3644 23s-0.85925 29.186-1.1897 39.361c-0.33041 10.175-0.48144 20.975-0.33562 24 0.24274 5.0357 0.36821 24.542 0.28624 44.5-0.0181 4.4-0.041 11.6-0.0509 16-0.01 4.4-0.29318 21.725-0.62948 38.5s-0.55638 32.075-0.48906 34c0.23741 6.7894 0.0761 25.733-0.39182 46-0.26539 11.496-0.03 23.355 0.53581 27 1.9592 12.621 1.1011 39.602-1.4632 46-1.8145 4.5277-7.1066 7.983-13.441 8.7755l-5.7902 0.7245-4.8194 8c-2.6506 4.4-5.2566 8.9-5.7909 10-0.53437 1.1-1.3776 2.675-1.874 3.5-2.8058 4.6639-10.102 21.985-10.102 23.981 0 0.9568-1.0684 3.3139-2.3741 5.2381-1.3058 1.9241-2.6308 5.0244-2.9445 6.8895s-1.0249 5.4161-1.5805 7.8911c-2.7589 12.291-5.0007 23.735-5.0481 25.77-0.0291 1.2484-1.1434 3.9974-2.4763 6.1088-1.3329 2.1115-2.906 5.6311-3.4958 7.8214-0.58978 2.1902-1.9475 4.7743-3.0172 5.7424-1.2267 1.1101-2.1916 3.7342-2.6128 7.1057-0.49765 3.9831-1.4948 6.3148-3.9123 9.1487-1.7844 2.0917-3.974 5.221-4.8658 6.9539-0.89175 1.7329-3.9954 5.1283-6.897 7.5453-15.928 13.268-31.727 17.354-60.466 15.639-2.0663-0.1233-4.5513 0.7529-7.0538 2.4871-4.4897 3.1114-13.287 3.7452-16.896 1.2173zm36.567-110.17c1.1399-1.4491 2.0726-3.5278 2.0726-4.6191 0-1.0914 1.5536-4.5418 3.4524-7.6676 1.8988-3.1257 4.095-8.5846 4.8805-12.131 1.4316-6.4632 2.743-10.605 5.2978-16.732 1.8926-4.5387 1.76-9.129-0.28636-9.9142-2.056-0.789-5.3442 2.9974-5.3442 6.1539 0 1.2288-0.87229 3.0236-1.9384 3.9885-1.0661 0.9648-2.422 4.0088-3.0129 6.7644-0.60927 2.841-2.775 7.4524-5.0022 10.651-4.9409 7.0955-8.91 22.944-6.3798 25.474 1.4374 1.4375 4.2864 0.5419 6.2608-1.9682z"/>
</svg>
