<?xml version="1.0" encoding="UTF-8" standalone="no"?>
<svg
   xmlns:dc="http://purl.org/dc/elements/1.1/"
   xmlns:cc="http://creativecommons.org/ns#"
   xmlns:rdf="http://www.w3.org/1999/02/22-rdf-syntax-ns#"
   xmlns:svg="http://www.w3.org/2000/svg"
   xmlns="http://www.w3.org/2000/svg"
   enable-background="new 0 0 288.018 212.128"
   version="1.1"
   viewBox="0 0 288.018 212.128"
   overflow="visible"
   xml:space="preserve"
   id="Layer_1"><title
     id="title9169">Lion Outline</title><defs
     id="defs7741" /><path
     id="path6943"
     d="m 45.886719,0.0078125 c -3.346342,0.22112891 -3.71761,4.8705938 -7.00586,5.4804687 -1.755,0.3260001 -3.167781,-0.6842343 -4.800781,-0.2402343 -2.189103,0.5954321 -4.225046,2.8286519 -4.832031,5.1308591 -0.0949,-0.02926 -0.189514,-0.05853 -0.248047,0 -0.05893,0.05892 0.05892,0.19107 0,0.25 -0.117851,0.117851 -0.382149,-0.117852 -0.5,0 -0.05893,0.05892 0.05892,0.19107 0,0.25 -0.117851,0.117851 -0.382149,-0.117852 -0.5,0 -0.05893,0.05892 0.05892,0.19107 0,0.25 -0.08776,0.08775 -1.077317,-0.08634 -1.25,0 -0.105409,0.0527 -0.144591,0.1973 -0.25,0.25 -0.0093,0.0047 -0.02131,0.0012 -0.03125,0.0039 0.302505,-0.278926 0.548029,-0.614644 0.650391,-1.09375 -2.136,0.505006 -4.406297,2.951532 -5.279297,5.519532 0.571,1.523 0.154765,2.077609 -0.240235,3.599609 1.471,2.711 5.280454,1.603563 7.439453,3.601563 -1.711998,1.967 -4.422,2.937062 -6,5.039062 -1.926998,6.393 -8.083218,8.556766 -13.1992182,11.759766 -1.8430034,2.698 -5.3612969,3.464703 -5.2792969,6.720703 0.073,2.924 4.5979062,6.545375 2.8789062,9.359375 -1.728,-0.468 -3.5115937,-0.918453 -4.5585937,-1.439453 l 0,1.199219 c 1.698,0.14 5.2660625,0.06086 5.0390625,2.880859 l -3.359375,0 c -0.01,-0.33 0.1132344,-0.527703 0.2402343,-0.720703 C 3.8777815,59.125606 0.406,57.894514 0,59.728516 c 1.869,-0.004 5.3351593,-1.430469 8.1601562,-0.480469 0.4520003,1.868 1.2421788,3.398781 2.1601558,4.800781 -0.752977,-0.113 -0.6351714,0.646703 -1.2011714,0.720703 -1.138,5.845 1.6630784,9.64675 4.0800784,12.71875 0.592,0.032 1.157406,0.03577 1.441406,-0.240234 -0.048,0.687 -0.03125,1.311172 0.71875,1.201172 0.94,-0.236 -0.167531,-1.030453 0.480469,-1.439453 -0.206,1.005 1.073453,0.523984 1.439453,0.958984 0.376,-0.344 0.189937,-1.250219 0.960937,-1.199219 0.023,0.377 -0.03153,0.83075 0.480469,0.71875 0.64,-2.329 1.987078,-3.432906 4.080078,-2.878906 -2.765,0.968 -2,5.068234 0,6.240234 -0.778,2.443 0.317157,5.976766 2.160157,5.759766 -1.028,-1.154 -0.437001,-4.176766 0,-5.759766 0.780999,5.778 2.324515,10.793219 6.478515,13.199219 -1.322,0.598 -2.522609,1.318156 -3.599609,2.160156 1.035541,1.222515 3.60113,0.03055 4.535156,-0.195312 0.01221,0.08619 0.03203,0.176172 0,0.240234 -0.02635,0.05271 -0.09865,0.0723 -0.125,0.125 -0.01863,0.03727 0,0.08333 0,0.125 l 0,0.121094 c -1.97334,3.323253 -3.975521,7.34883 -2.730469,12.06445 0.983,3.723 4.260766,7.35608 5.759766,10.08008 -0.232,-2.888 -1.241922,-5.00033 -1.919922,-7.44141 2.203,2.997 2.170531,8.22808 5.519531,10.08008 -0.838,-2.522 -2.23114,-4.48698 -3.11914,-6.95898 l 1.199218,0 c -2.149559,-2.36848 -3.285262,-6.9272 -1.849609,-10.57031 0.0047,-0.001 0.01194,0.004 0.01563,0 0.01013,-0.0101 2.08e-4,-0.0286 0,-0.043 0.0108,-0.027 0.01821,-0.0552 0.0293,-0.082 0.03474,0.007 0.07315,0.0226 0.0957,0 0.02946,-0.0295 -0.01863,-0.0877 0,-0.125 0.075,-0.15 0.3,-0.225 0.375,-0.375 0.01863,-0.0373 -0.01863,-0.0877 0,-0.125 0.02486,-0.0498 0.172397,-0.18024 0.279297,-0.2793 -0.643954,4.23202 -0.550068,9.93533 2.015625,12.08008 1.067,4.556 2.221359,9.8027 4.318359,12.7207 0.305,0.424 0.0072,1.75199 1.201172,0.95899 -1.938,-3.90001 -1.488766,-11.11738 0.240235,-15.35938 0.245567,1.03228 0.451233,1.98119 0.625,2.86133 0.06072,-0.27389 0.123356,-0.54997 0.195312,-0.83399 0.0018,-0.007 -0.0023,-0.0164 0,-0.0234 0.0012,-0.003 0.0062,-0.005 0.0078,-0.008 0.04356,-0.17113 0.06936,-0.32728 0.117188,-0.50195 9.83e-4,0.0507 -1.87e-4,0.0682 0,0.11524 -0.01074,0.10002 -0.01414,0.19415 -0.02344,0.29296 -0.02976,0.0322 -0.07456,0.0553 -0.09375,0.0937 -0.0027,0.0107 -0.0051,0.0206 -0.0078,0.0313 -0.04713,0.18482 0.06016,0.4211 0,0.60157 -0.01863,0.0559 -0.09865,0.0723 -0.125,0.125 -0.01863,0.0373 0,0.0833 0,0.125 l 0,0.25 0,0.11914 c 0.416169,2.18307 0.612202,3.86151 0.673828,5.13281 1.035377,4.22667 3.307214,7.43881 4.63086,11.53906 0.387,1.199 0.845687,2.43956 1.679687,3.60156 -1.789072,-7.86108 -1.984375,-9.14257 -1.984375,-9.14257 0.924449,2.14583 1.672681,5.02306 2.220703,7.22265 0.955,-0.485 0.133172,-2.74814 1.201172,-3.11914 0.129,2.03 0.394689,3.92383 1.679687,4.79883 -0.155,-1.222 -1.156765,-3.69336 0.240235,-4.31836 -0.744,4.092 0.74214,7.41514 3.119141,9.11914 -0.613,-2.588 -2.806157,-4.87192 -2.160157,-7.91992 1.091,0.495 0.780155,4.45714 2.160157,3.11914 0.771,1.949 1.847374,3.59278 3.359374,4.80078 0.679001,-0.378 -0.541765,-1.28469 0.240235,-1.67969 2.502,2.488 3.192687,6.96007 1.679687,11.03907 1.53,-0.711 1.643157,-2.83655 2.160157,-4.56055 0.466,2.891 -1.753688,4.293 -1.679688,6 1.155,0.344 1.063688,-1.79922 1.679688,-1.19922 -0.089,1.271 -1.030985,1.68714 -0.958985,3.11914 1.938,-1.102 1.688375,-4.39076 3.359375,-5.75976 0.797,1.907 -2.597703,4.12548 -0.720703,5.52148 -0.044,-1.484 0.347938,-2.53433 0.960938,-3.36133 0.676,3.501 0.979218,7.03831 1.199218,10.32031 0.19,2.826 0.898172,5.68663 1.201172,8.64063 0.376,3.672 -0.542234,7.87871 -0.240234,11.75977 0.437,5.62099 2.738765,9.81292 -0.240234,13.91992 -1.056,-1.216 -2.189844,-0.86746 -3.839844,-1.43946 -0.705,0.389 -1.713219,0.73969 -1.199219,1.67969 0.06907,0.021 0.111731,0.0153 0.166016,0.0215 0.01039,0.0508 0.01793,0.10244 0.03711,0.15039 0.01094,0.0274 0.04932,0.0361 0.0625,0.0625 0.0041,0.008 0.0014,0.10071 0,0.1875 -0.03867,-0.0129 -0.07216,-0.0383 -0.109375,-0.0547 -0.406936,-0.24732 -0.804426,-0.50394 -1.113281,-0.84961 -0.350313,-0.0253 -0.682581,-0.033 -1,-0.0254 -1.793102,0.0428 -3.079696,0.59184 -4.078125,1.42969 -0.0037,8.5e-4 -0.0082,-0.002 -0.01172,0 -0.103643,0.10364 -0.08796,0.096 -0.07031,0.0742 0.01765,-0.0218 0.03728,-0.0577 -0.05469,-0.0117 -0.075,0.0375 -0.1125,0.15 -0.1875,0.1875 -0.01863,0.009 -0.04777,-0.0147 -0.0625,0 -0.02532,0.0254 0.007,0.0745 0,0.10742 -0.0062,0.006 -0.01332,0.0114 -0.01953,0.0176 -0.01554,-0.003 -0.03284,-0.0101 -0.04297,0 -0.0029,0.003 9.19e-4,0.0313 0,0.041 -1.36774,1.38347 -2.164302,3.33894 -3.113281,5.14063 -4.228,0.552 -1.696844,8.35522 2.160156,7.19922 0.186,1.654 1.857391,1.82214 2.400391,3.11914 1.959,-0.491 4.152468,-1.02252 6.480468,-0.47852 0.156484,-0.54499 0.02842,-0.80731 -0.134765,-1.0332 0.003,0.003 0.006,0.006 0.0098,0.008 0.01345,0.007 0.110957,0 0.13086,0 l 0.310547,0 0.308593,0 c 0.01473,0 0.03451,0.0104 0.04492,0 0.01042,-0.0104 -0.01042,-0.0326 0,-0.043 0.01042,-0.0104 0.03019,0 0.04492,0 0.04162,0 0.195563,0.008 0.220703,0 0.01976,-0.007 0.02434,-0.0356 0.04297,-0.0449 0.02635,-0.0132 0.06901,0.0208 0.08984,0 0.01042,-0.0104 -0.01042,-0.0345 0,-0.0449 0.01474,-0.0147 0.07315,0.0147 0.08789,0 0.01042,-0.0104 -0.01042,-0.0326 0,-0.043 0.01042,-0.0104 0.03256,0.0104 0.04297,0 0.01042,-0.0104 -0.01042,-0.0345 0,-0.0449 0.01473,-0.0147 0.07511,0.0147 0.08984,0 0.01042,-0.0104 0,-0.0283 0,-0.043 0.01473,0 0.02979,0.007 0.04297,0 0.01863,-0.009 0.02629,-0.0356 0.04492,-0.0449 0.01009,-0.005 0.06267,-0.002 0.09961,0 0.249803,0.97243 2.095624,1.18048 2.603515,1.09375 -0.0059,-0.028 -0.01635,-0.0512 -0.02344,-0.0781 l 0.01563,0 0.04492,0 c 0.01473,0 0.03256,0.0104 0.04297,0 0.01042,-0.0104 -0.01042,-0.0326 0,-0.043 0.01042,-0.0104 0.03451,0.0104 0.04492,0 0.01042,-0.0104 -0.01042,-0.0345 0,-0.0449 0.01042,-0.0104 0.03175,0.007 0.04492,0 0.01863,-0.009 0.02434,-0.0337 0.04297,-0.043 0.01752,-0.009 0.123778,0.009 0.132813,0 0.01042,-0.0104 -0.01042,-0.0345 0,-0.0449 0.01042,-0.0104 0.03451,0.0104 0.04492,0 0.01042,-0.0104 -0.01042,-0.0345 0,-0.0449 0.01042,-0.0104 0.03256,0.0104 0.04297,0 0.01042,-0.0104 -0.01042,-0.0326 0,-0.043 0.02083,-0.0208 0.069,0.0208 0.08984,0 0.01042,-0.0104 -0.01042,-0.0345 0,-0.0449 0.01042,-0.0104 0.03256,0.0104 0.04297,0 0.01042,-0.0104 -0.01042,-0.0345 0,-0.0449 0.01042,-0.0104 0.03451,0.0104 0.04492,0 0.01042,-0.0104 -0.01042,-0.0326 0,-0.043 0.01042,-0.0104 0.03451,0.0104 0.04492,0 0.02083,-0.0208 -0.02083,-0.0691 0,-0.0899 0.01042,-0.0104 0.03256,0.0104 0.04297,0 0.01042,-0.0104 -0.01042,-0.0326 0,-0.043 0.01042,-0.0104 0.03451,0.0104 0.04492,0 0.01209,-0.0121 -0.01199,-0.15375 0,-0.17773 0.0093,-0.0186 0.03366,-0.0244 0.04297,-0.043 0.0066,-0.0132 0,-0.0302 0,-0.0449 l 0,-0.0449 0,-0.26367 0,-0.2129 c 0.145931,-0.13962 0.321153,-0.2696 0.648437,-0.27929 0.098,0.578 -0.438234,0.52122 -0.240234,1.19922 2.524,0.067 4.321172,-1.23871 7.201172,-0.72071 0.763,-1.237 2.526375,-1.47362 3.359375,-2.64062 -0.311802,-3.63863 1.272362,-5.38031 1.822266,-8.15625 0.0027,-0.003 0.0062,-0.005 0.0078,-0.008 0.0049,-0.01 0.0031,-0.0211 0,-0.0332 0.0019,-0.01 0.004,-0.0194 0.0059,-0.0293 0.0082,-4.9e-4 0.01938,0.006 0.02539,0 0.0074,-0.007 0,-0.0203 0,-0.0313 l 0,-0.0937 c -0.175532,-0.3987 0.08507,-0.15068 0.298828,-0.5293 2.232,-3.869 3.005141,-8.48469 3.119141,-13.67969 0.011,-0.503 -0.524516,-1.11464 -0.478516,-1.68164 0.126,-1.543 1.423922,-4.05728 1.919922,-6.23828 1.232,-5.418 2.219906,-12.069 2.878906,-18 1.402,-3.078 3.437782,-5.52363 4.800781,-8.64063 -0.024,0.74002 -0.821484,2.4324 0.478516,2.4004 0.178,-1.102 0.08547,-2.47533 0.480469,-3.36133 2.423,2.929 -1.351156,3.68847 -2.160156,6.48047 -1.299,4.485 -1.858594,7.64306 1.441406,11.03906 0.68383,-0.0527 -0.122245,-0.60285 -0.0078,-0.8457 0.0449,0.0244 0.125174,-0.0389 0.164063,0 0.04167,0.0417 -0.04167,0.13607 0,0.17773 0.04167,0.0417 0.12503,-0.0264 0.177734,0 0.0017,8.3e-4 0.0023,0.003 0.0039,0.004 0.206674,0.62176 0.339426,1.31628 0.380859,2.10351 5.294008,2.787 10.113628,6.04956 14.640628,9.60156 0.023,-0.377 -0.0315,-0.8327 0.48047,-0.7207 4.063,0.896 11.88016,0.9003 14.16016,-0.7207 -0.12381,-0.0347 -0.25863,-0.0538 -0.38868,-0.0801 0.009,-0.007 0.0187,-0.0137 0.0234,-0.0234 0.007,-0.0132 -0.007,-0.0298 0,-0.043 0.009,-0.0186 0.0359,-0.0263 0.0449,-0.0449 0.007,-0.0132 -0.005,-0.029 0,-0.043 0.0104,-0.0313 0.0326,-0.0585 0.043,-0.0898 0.005,-0.014 -0.007,-0.0298 0,-0.043 0.009,-0.0186 0.0359,-0.0263 0.0449,-0.0449 0.01,-0.0192 0.005,-0.0459 0,-0.0723 0.15849,0.001 0.3081,0.0111 0.47656,0.002 2.234,-2.19 5.258,-4.11144 6,-8.39844 -0.13161,-0.006 -0.21014,-0.0647 -0.28906,-0.12305 0.001,-0.033 0.006,-0.10361 0,-0.11523 -0.009,-0.0186 -0.0359,-0.0263 -0.0449,-0.0449 -0.0132,-0.0264 0.0208,-0.0671 0,-0.0879 -0.0104,-0.0104 -0.0326,0.0104 -0.043,0 -0.0104,-0.0104 0.007,-0.0298 0,-0.043 -0.009,-0.0186 -0.0359,-0.0263 -0.0449,-0.0449 -0.0118,-0.0236 0.0118,-0.0643 0,-0.0879 -0.009,-0.0186 -0.0359,-0.0263 -0.0449,-0.0449 -0.0153,-0.0305 0.0155,-0.2052 0,-0.2207 -0.0104,-0.0104 -0.0326,0.0104 -0.043,0 -0.0221,-0.0221 0.0221,-0.11071 0,-0.13281 -0.0104,-0.0104 -0.0345,0.0104 -0.0449,0 -0.0208,-0.0209 0.0208,-0.0671 0,-0.0879 -0.0104,-0.0104 -0.0326,0.0104 -0.043,0 -0.002,-0.002 3.5e-4,-0.0214 0,-0.0293 0.11573,0.0355 0.18764,0.0529 0.35352,0.10547 -0.453,-1.148 -0.54795,-2.65091 -1.91992,-2.87891 -0.285,0.789 -1.47665,0.40577 -1.68165,-0.24023 0.413,0.013 0.61571,-0.18447 0.72071,-0.48047 -1.763,-2.566 -8.32607,-2.35971 -11.03906,-0.72071 -1.737,-0.58296 -2.87049,-1.77045 -5.52149,-1.43945 -3.449,-5.492 7.68663,-10.51114 8.64063,-15.11914 -0.1938,-0.01 -0.37311,-0.0327 -0.54102,-0.0684 -0.002,-0.0245 0,-0.0482 0,-0.0723 0.0417,0 0.0955,0.0295 0.125,0 0.0295,-0.0295 -0.0295,-0.0955 0,-0.125 0.0589,-0.0589 0.1755,0.0373 0.25,0 0.0245,-0.0122 0.11614,-0.11405 0.18359,-0.1836 3.23559,0.84396 8.04364,-2.21402 12.46875,-1.47265 0.414,-0.145 -0.0185,-1.13722 0.48047,-1.19922 2.49,1.034 5.99916,0.0503 8.16016,-0.72071 -0.167,-0.472 -1.33845,0.0585 -1.43945,-0.48046 0.965,-0.165 1.37015,0.22923 2.16015,0.24023 2.769,-2.506 8.57024,-2.16362 12.24024,-2.64062 0.071,0.649 -1.00324,1.37192 -0.24024,1.91992 0.289,-0.917 1.30516,-2.36592 2.16016,-1.91992 -0.2,0.60095 -0.66066,0.94364 -0.72266,1.68164 0.33,4.55 1.60033,8.16029 3.36133,11.27929 0.447,0.033 0.80098,0.15652 0.95898,0.47852 2.033,7.326 5.03271,13.68837 12.72071,15.35937 2.323,4.958 7.05448,7.50732 11.52148,10.32032 -0.122,2.282 2.14714,2.17037 3.11914,3.35937 0.454,5.89 0.2583,14.00492 -6.7207,13.91992 -0.539,-0.581 -1.09869,-1.14069 -1.67969,-1.67969 -1.864,-0.024 -3.26378,0.41771 -4.80078,0.72071 -0.229,0.447 0.719,0.80098 0,0.95898 -3.514,-1.823 -8.05975,1.87549 -6.71875,5.52149 -1.311,0.554 -2.03617,1.89537 -1.20117,3.35937 -0.692,0.348 -1.73169,0.34747 -1.67969,1.43945 0.503,0.58404 1.06645,-0.21176 1.43945,0.24024 0.119,1.64 1.71191,1.80544 2.87891,2.39844 0.564,-0.076 0.14394,-1.13699 0.96094,-0.95899 -0.502,0.53 -0.18777,1.59892 0.24023,1.91992 0.69784,0.0163 1.34876,-0.0144 1.6836,-0.36132 0.03,-0.002 0.063,-0.0134 0.0898,0 0.0527,0.0264 0.0723,0.0986 0.125,0.125 0.0745,0.0373 0.19107,-0.0589 0.25,0 0.0295,0.0295 -0.0295,0.0955 0,0.125 0.0181,0.0181 0.13475,0.009 0.25391,0 -0.28293,0.16153 -0.47593,0.4692 -0.48243,1.07031 1.47162,0.14367 5.51235,1.15943 7.42579,-0.94531 0.0113,2.7e-4 0.0278,-3.7e-4 0.043,0 0.47892,0.14992 0.75511,0.66192 1.16993,0.22656 -0.0253,-0.18691 -0.0711,-0.33434 -0.11914,-0.47656 l 0.084,0 0.625,0 c 0.0306,0 0.0625,0.003 0.0918,0 0.0129,0.0764 0.0298,0.14075 0.0391,0.23632 3.004,-0.116 5.76867,-0.4707 8.63867,-0.7207 0.1107,-0.23137 0.24778,-0.43578 0.38477,-0.64062 0.0938,8e-5 0.2187,0.002 0.2207,0 0.0295,-0.0295 -0.0295,-0.0955 0,-0.125 0.0417,-0.0417 0.20833,0.0417 0.25,0 0.0295,-0.0295 -0.0295,-0.0955 0,-0.125 0.0295,-0.0295 0.0877,0.0186 0.125,0 0.52022,-0.26011 -0.13363,0.009 0.125,-0.25 0.0295,-0.0295 0.0955,0.0295 0.125,0 0.0295,-0.0295 -0.0295,-0.0955 0,-0.125 0.0295,-0.0295 0.0955,0.0295 0.125,0 0.0589,-0.0589 -0.0589,-0.19108 0,-0.25 0.0295,-0.0295 0.0955,0.0295 0.125,0 0.0589,-0.0589 -0.0589,-0.19108 0,-0.25 0.003,-0.003 0.01,0.001 0.0137,0 0.10931,0.22158 0.27676,0.38456 0.66602,0.32617 0.028,-0.47416 0.15131,-0.81762 0.29687,-1.20117 l 0.27344,0 c 0.0338,0 0.0672,0.003 0.10156,0 -0.0663,0.0781 -0.12461,0.16458 -0.19726,0.23632 0.184,0.776 0.6664,1.25446 1.4414,1.43946 0.375,-0.505 0.84046,-0.91822 1.43946,-1.19922 -0.016,-1.483 0.24829,-3.65186 -0.72071,-2.88086 -0.255,-0.895 0.90071,-0.37922 0.72071,-1.19922 2.309,-6.41 7.80036,-9.63784 10.31836,-15.83984 1.494,-1.706 2.39684,-4.00472 3.83984,-5.76172 -0.156,-1.978 0.43972,-3.26755 -0.23828,-4.56055 -5.275,-3.745 -10.05143,-10.87406 -13.43946,-17.03906 -0.48195,-0.878 -1.21545,-2.11994 -1.43945,-3.1211 -0.072,-0.31496 0.49352,-0.42475 0.47852,-0.71874 -0.04,-0.82804 -0.97852,-1.84363 -0.47852,-2.64063 0.547,0.067 0.89999,-0.0585 0.95899,-0.48047 -0.356,-0.204 -0.51452,-0.60222 -0.47852,-1.19922 3.099,-3.062 6.41091,-5.90861 8.87891,-9.59961 3.601,3.439 8.13864,5.94246 13.68164,7.43946 0.636,1.045 1.3529,2.0052 2.8789,2.1582 2.92,2.442 4.97016,6.08839 8.16016,8.40039 3.626,2.627 8.45446,3.78523 12.48047,6.24023 0.3524,0.0701 0.79357,-0.25344 1.10156,-0.35156 0.0112,0.004 0.0295,-10e-4 0.0371,0.008 0.0417,0.0417 -0.0417,0.13412 0,0.17579 0.0612,0.0612 0.17863,-0.009 0.26953,-0.0195 -0.10854,0.2635 -0.50908,0.23622 -0.68945,0.42774 2.016,3.505 5.75862,5.28192 8.64062,7.91992 2.033,1.99 1.22444,4.99622 2.39844,7.19922 0.501,0.941 1.79686,0.90692 2.88086,1.91992 1.927,1.8 1.65484,4.74849 3.83984,5.52149 0.7,1.542 2.16447,3.59276 1.43946,5.75976 -0.68799,-0.431 -1.12139,-1.11894 -2.40039,-0.96094 -0.425,0.275 -1.09352,0.82941 -0.47852,1.44141 0.21537,0.0869 0.35148,0.0954 0.44922,0.0644 l 0,0.0957 c 0.0417,0 0,0.16666 0,0.125 l 0,0.125 0,0.375 c 0.0417,0 0,0.16666 0,0.125 l 0,-0.125 c -0.0833,0 0.0589,0.1911 0,0.25 -0.0295,0.0295 -0.0955,-0.0295 -0.125,0 -0.005,0.005 9.6e-4,0.0134 0,0.0195 -0.29756,-0.21583 -0.62986,-0.30292 -0.98438,-0.27344 -1.56702,0.13031 -3.49921,2.31688 -4.13671,3.54688 0.014,0.86698 0.5987,1.16192 0.7207,1.91992 -0.97901,0.701 -1.83069,1.52837 -1.67969,3.35937 0.092,0.0716 0.20738,0.11948 0.33008,0.16016 -0.002,0.18083 -0.008,0.37567 0,0.39258 0.0264,0.0527 0.0986,0.0723 0.125,0.125 0.0186,0.0373 -0.0186,0.0877 0,0.125 0.0264,0.0527 0.0986,0.0723 0.125,0.125 0.0373,0.0745 -0.0589,0.1911 0,0.25 0.0295,0.0295 0.0955,-0.0295 0.125,0 0.008,0.008 -0.003,0.0364 0,0.0508 -0.51265,0.55592 -0.71593,1.25291 -0.46484,2.13086 1.79001,0.85523 4.25445,2.23113 6.44336,1.92187 0.007,0.007 0.0124,0.017 0.0215,0.0215 0.038,0.019 0.31869,0 0.375,0 l 0.75,0 c 0,-0.0417 0.16667,0 0.125,0 0.0527,-0.0264 0.0723,-0.0986 0.125,-0.125 0.0245,-0.0122 0.0536,-0.004 0.082,0 9.9e-4,0.0348 -0.004,0.0662 -0.002,0.10156 3.361,-0.558 4.75169,-2.27769 7.67969,-1.67969 0.101,-0.459 0.0877,-1.03294 0.7207,-0.96094 0.106,0.454 -0.32653,1.44522 0.48047,1.19922 0.35869,-1.02661 1.34084,-1.42829 1.74414,-2.41015 l 0.16992,0 c 0.0417,0 0.0955,0.0295 0.125,0 0.0295,-0.0295 -0.0295,-0.0955 0,-0.125 0.0469,-0.0469 0.18164,-0.006 0.28125,0 -0.18253,0.37397 -0.2552,0.80818 -0.16602,1.33398 1.273,0.073 0.72393,-1.67569 1.91993,-1.67969 -0.037,0.596 -0.0455,1.16422 0.47851,1.19922 1.18201,-1.67 3.22555,-1.79984 3.60157,-3.83984 0.672,-3.656 -4.48186,-6.92855 -2.88086,-10.56055 -1.858,-0.942 -0.85593,-4.74351 -1.91993,-6.47851 1.29947,-7.23288 -1.55464,-15.02427 -6.76562,-16.82618 -0.0266,-0.0307 -0.0501,-0.0661 -0.0859,-0.084 -0.0527,-0.0264 -0.11685,0 -0.17577,0 -0.0589,-0.0589 -0.10321,-0.14044 -0.17773,-0.17774 -0.0527,-0.0264 -0.12309,0.0264 -0.17579,0 -0.20973,-0.10486 -0.31802,-0.41386 -0.5254,-0.52343 -2.03253,-2.43134 -5.48205,-4.31019 -6.01367,-7.34961 -2.547,-1.292 -3.12405,-4.55447 -5.03906,-6.48047 -2.513,-11.341 -7.03578,-19.5223 -10.80078,-29.2793 0.08,-7.39 -4.69199,-12.72122 -6.95899,-19.19922 4.626,1.048 9.43316,0.48993 14.16016,1.91993 3.295,-0.378 7.03208,-0.25724 10.08008,-0.24024 0.706,-0.803 1.8339,-0.99217 2.8789,-1.20117 6.334,-1.267 11.62255,-3.87099 16.56055,-6.958985 1.677,-1.936 3.10583,-5.358469 4.79883,-6.480469 0.377,-3.019 1.77087,-6.092609 1.92187,-9.599609 0.576,-13.358 -12.78072,-25.227844 -23.76171,-27.839844 -3.193,-0.76 -6.30391,-0.635859 -8.87891,-2.880859 -1.792,0.113 -2.23285,-0.31275 -3.83985,-0.71875 -0.095,0.413 0.356,0.61375 0,0.71875 -1.21395,-0.938 -4.17807,-0.399453 -4.08007,-1.439453 -1.783,0.679 -5.01624,-0.859 -6.24024,0 0.146,0.415 1.13722,-0.01853 1.19922,0.480468 -4.721,0.798 -8.1103,2.929297 -11.2793,5.279297 0.524,0.021 1.55365,-0.657234 1.68165,-0.240234 -2.664,2.216 -5.47393,4.287703 -7.91993,6.720703 0.45498,-0.01361 0.99193,-0.202543 1.57422,-0.451172 0.006,0.01934 0.012,0.03875 0,0.05078 -0.0208,0.02083 -0.069,-0.02083 -0.0898,0 -0.0208,0.02083 0.0208,0.069 0,0.08984 -0.0417,0.04167 -0.13411,-0.04167 -0.17578,0 -0.0208,0.02083 0.0208,0.06705 0,0.08789 -0.0208,0.02083 -0.067,-0.02083 -0.0879,0 -0.0208,0.02083 0.0208,0.06705 0,0.08789 -0.0208,0.02083 -0.0691,-0.02083 -0.0898,0 -0.0208,0.02083 0.0208,0.06705 0,0.08789 -0.0417,0.04167 -0.13412,-0.04167 -0.17578,0 -0.0208,0.02083 0.0132,0.06349 0,0.08984 -0.0186,0.03727 -0.0712,0.05062 -0.0898,0.08789 -0.0132,0.02635 0,0.05842 0,0.08789 l 0,0.08789 0,0.330078 c -1.15121,0.204123 -2.1865,0.524596 -2.30274,1.763672 0.41039,-0.205044 0.93753,-0.408965 1.50782,-0.589844 0.0307,-0.0097 0.057,-0.02168 0.0879,-0.03125 0.003,0.01163 0.007,0.02384 0,0.03125 -0.0208,0.02083 -0.0671,-0.02083 -0.0879,0 -0.0208,0.02083 0.0132,0.06154 0,0.08789 -0.0186,0.03727 -0.0692,0.05062 -0.0879,0.08789 -0.0264,0.05271 0.0417,0.136066 0,0.177735 -0.0208,0.02083 -0.0671,-0.02083 -0.0879,0 -0.0208,0.02083 0.0208,0.06705 0,0.08789 -0.0203,0.02038 -0.0665,-0.01778 -0.0879,0 -0.003,0.03761 -0.0126,0.08789 -0.002,0.08789 0.0295,0 -0.0208,-0.06706 0,-0.08789 l 0.002,0 c 0.005,-0.05598 -0.002,-0.08746 -0.0898,0.08789 -0.0175,0.03505 0.0181,0.247556 0,0.265625 -0.0208,0.02083 -0.067,-0.02083 -0.0879,0 -0.0296,0.02955 -0.0356,0.04855 -0.0273,0.0625 -1.07914,0.06585 -1.6605,0.167602 -1.99805,1.412109 0.82513,-0.426253 1.93645,-0.566073 2.36719,-1.386719 l 0.35546,0 c 0.11601,0.422343 0.0937,0.567474 -0.084,1.148438 -1.176,0.584 -2.95637,0.562922 -3.35937,1.919922 2.723,-1.123 4.11892,-2.383406 7.91992,-1.441406 -0.393,1.093997 1.16451,0.759406 0.47851,1.441406 13.472,3.754 16.99302,-7.498407 29.04102,-7.441406 1.035,-0.926001 3.3483,-0.780235 5.2793,-0.240235 6.66,1.863 16.59948,11.206156 17.52148,20.160156 0.527,5.124 -2.6603,9.736766 -5.2793,11.759766 -2.266,1.75 -6.03086,3.360797 -8.88086,3.841797 -1.588,0.268 -3.57829,-0.04472 -5.27929,0.238281 -2.126,0.354 -4.17971,0.817469 -6.72071,0.480469 -7.782,-1.031 -13.2452,-5.562141 -19.19922,-9.119141 -10.94399,-6.538 -22.21085,-13.103484 -32.88085,-17.521484 l 0,-0.71875 c -5.151,0.14 -9.88791,-2.00886 -14.87891,-2.880859 -7.62,-1.332 -15.46847,-1.805985 -24.48047,-0.958985 -6.66,0.626 -14.74933,1.519922 -21.36133,1.919922 -4.965,0.3 -12.67761,0.479844 -15.59961,-2.160156 -0.14,-0.127 0.41124,-0.462703 0.24024,-0.720703 -1.126,-1.698 -3.485,-2.513672 -6,-2.638672 0.825,-0.528 2.45537,-0.156 3.35937,0 0.043,-1.323 -1.96067,-0.599172 -2.63867,-1.201172 0.535,-0.585 1.74327,-2.662141 0.24023,-3.119141 0.26602,0.667 0.43754,2.030157 -0.48046,2.160157 1.068,-3.138 -2.57163,-4.434469 -2.64063,-6.480469 -0.405,-0.476 -1.10169,-0.658938 -1.67969,-0.960938 -0.58,-2.997 -5.75798,-3.30075 -6.95898,-0.71875 1.639,-1.653 5.729,-1.16825 6,0.71875 -0.779,-0.139 -1.11864,0.163235 -1.68164,0.240235 -0.968,-2.189 -3.86953,-0.744235 -5.51953,-0.240235 -0.125,-0.355 -0.35547,-0.603984 -0.48047,-0.958984 2.419,-0.932 6.44439,-4.221703 8.40039,-0.720703 -0.906,-6.236 -7.95553,0.844937 -11.51953,0.960937 -0.125,-0.355 -0.35547,-0.605937 -0.48047,-0.960937 0.547,-0.33 0.90294,0.619 0.96094,0 -0.359,-0.281 -0.98317,-0.29775 -1.20117,-0.71875 0.80898,0.081 2.42009,0.607 3.12109,0 -1.477,-0.606 1.79845,-0.160172 1.43945,-1.201172 -2.928,0.685 -7.43869,0.800078 -7.67969,-1.919922 1.481,1.691 6.93042,2.702234 8.40039,0.240234 -2.08897,0.59 -5.33693,1.297766 -6.96093,-0.240234 2.911,1.068 5.01266,-0.700219 7.67969,-1.199219 -3.23101,0.125 -8.71315,2.96361 -9.11915,-2.40039 0.477,0.003 0.30399,0.655468 0.95899,0.480468 1.021,-2.529 3.19639,-3.859703 2.40039,-6.720703 -0.648,-2.329 -2.93683,-2.685078 -4.79883,-4.080078 0.13904,-0.01334 0.25676,-0.04789 0.38867,-0.06836 l 0.0156,0 0.0664,0 c 0.007,0 0.0145,0.0023 0.0215,0 0.0156,-0.0052 0.0289,-0.01749 0.0449,-0.02148 0.1574,-0.03935 -0.11306,0.0675 0.10938,-0.02148 0.003,-0.0011 0.005,-0.0028 0.008,-0.0039 1.37817,-0.518539 2.35428,-1.284222 2.91015,-2.240234 0.97533,-0.322839 1.88517,-0.169658 2.67383,1.396485 0.055,-0.936 -0.51475,-1.244922 -0.71875,-1.919922 -2.345,-1.297 -3.62653,1.014219 -5.51953,1.199219 -6.422958,0.628 -3.836166,-6.371547 -7.201166,-10.560547 0.423,0.209 0.743938,0.803 0.960938,0 -1.455459,-2.911687 -3.55149,-5.183184 -6.703125,-6.398438 -0.0048,-0.01242 0.0015,0.01422 -0.01367,-0.03125 -0.02295,-0.069 0.03988,0.0086 -0.03125,-0.0625 -0.0047,-0.0093 0.0047,-0.02195 0,-0.03125 -0.01318,-0.02635 -0.04932,-0.03615 -0.0625,-0.0625 -0.0047,-0.0093 0.0058,-0.02255 0,-0.03125 -0.01634,-0.02451 -0.04616,-0.03798 -0.0625,-0.0625 -0.0058,-0.0087 0.0047,-0.02195 0,-0.03125 -0.0066,-0.01318 -0.02465,-0.01807 -0.03125,-0.03125 -0.0047,-0.0093 0.0047,-0.02195 0,-0.03125 -0.065,-0.13005 0.0022,0.03341 -0.0625,-0.03125 -0.0074,-0.0074 0.0047,-0.02195 0,-0.03125 -0.0066,-0.01318 -0.02465,-0.01807 -0.03125,-0.03125 -5.87e-4,-0.0012 1.33e-4,-0.0026 0,-0.0039 0.498959,0.145196 0.945111,0.275293 1.238281,0.390625 -0.323,-1.997 -3.152547,-1.485437 -4.560547,-2.398437 0.627,0.068 1.030985,-0.0887 0.958985,-0.720704 -0.989,-0.273 -2.731594,0.571235 -4.558594,0.240235 -1.913,-0.887 -1.848844,-3.7505471 -3.839844,-4.5605471 C 75.018897,3.0909432 65.753474,1.4020927 61.503906,4.8125 61.512806,4.745755 61.54397,4.6728817 61.5,4.6289062 c -0.05893,-0.058925 -0.17547,0.037268 -0.25,0 -0.105409,-0.052705 -0.144591,-0.1972949 -0.25,-0.25 -0.07028,-0.035139 -0.174865,0.039736 -0.236328,0 1.370107,-0.5655602 2.618545,-1.2523147 4.037109,-1.7695312 -0.24,-0.54 -1.30964,0.5187656 -1.68164,-0.2402344 0.565,-0.298 1.728172,-0.7914531 1.201171,-1.4394531 -1.241517,1.1518799 -2.765961,2.0442514 -4.445312,2.4726563 0.0022,-0.00874 0.0055,-0.017912 0,-0.023438 -0.01473,-0.014731 -0.04387,0.00932 -0.0625,0 -0.02635,-0.013176 -0.04167,-0.041667 -0.0625,-0.0625 -0.02083,-0.020833 -0.03615,-0.049324 -0.0625,-0.0625 -0.01863,-0.00932 -0.04777,0.014731 -0.0625,0 -0.01473,-0.014731 0.01473,-0.047769 0,-0.0625 -0.01473,-0.014731 -0.04387,0.00932 -0.0625,0 -0.0247,-0.012352 -0.03571,-0.043717 -0.05859,-0.058594 1.290534,-0.062671 2.389598,-0.6782697 3.136719,-2.44335938 -1.557,0.43999998 -2.952781,1.64145308 -4.800781,1.43945308 -0.896,-0.098 -1.350156,-0.8832187 -2.160156,-1.1992187 C 54.304367,0.3921889 52.95804,0.13901978 51.6875,0.15625 49.033296,0.19224459 46.718891,1.4209749 45.136719,3.6914062 l -0.199219,0 -0.0625,0 c -0.02083,0 -0.04387,-0.00932 -0.0625,0 -0.02635,0.013176 -0.03615,0.049324 -0.0625,0.0625 -0.03727,0.018634 -0.08773,-0.018634 -0.125,0 C 45.507279,2.4891988 46.523207,1.3596219 47.519531,0.20898438 46.902906,0.03510919 46.364768,-0.02377734 45.886719,0.0078125 Z M 261.875,209.75391 l -0.125,0 c 0,0.0417 0.0877,0.0186 0.125,0 z m -1.75,-14.625 0,-0.125 c -0.0417,0 0,0.0833 0,0.125 z M 45.048828,121.63086 c -0.245524,-1.00229 -0.422867,-2.06132 -0.5,-3.20313 -0.01884,-0.0144 -0.03854,-0.0282 -0.04883,-0.0488 -0.03727,-0.0745 0.05893,-0.1911 0,-0.25 -0.02946,-0.0295 -0.09554,0.0295 -0.125,0 -0.02946,-0.0295 0,-0.0833 0,-0.125 l 0,-0.875 0,-0.63086 c -0.02549,-0.13373 -0.0432,-0.24938 -0.07031,-0.38672 -1.762625,7.95058 1.034947,11.51868 0.74414,5.51953 z M 46,3.4921875 c -2.37e-4,0.00381 0.0028,0.00896 0,0.011719 -0.0013,0.00133 -0.01552,-5.928e-4 -0.01953,0 0.0065,-0.00381 0.01306,-0.00789 0.01953,-0.011719 z M 8.1601562,60.449219 c -2.604997,0.274 -5.1579983,0.602625 -6,2.640625 1.9510014,-0.929 4.0340032,-1.726625 6,-2.640625 z M 225.30078,65.025391 c 0.001,0.0089 0.006,0.0195 0,0.02539 -0.0137,0.01365 -0.0509,0.0038 -0.082,0 0.0279,-0.0082 0.054,-0.01739 0.082,-0.02539 z M 30.960938,101.49023 c -0.053,3.117 0.830218,6.44985 1.199218,9.83985 -1.327,-2.29 -2.341239,-6.56985 -1.199218,-9.83985 z m 225.298832,98.51368 c 0.0371,0.008 0.088,-0.0272 0.11523,0 0.0207,0.0207 0.005,0.0564 0,0.0879 -0.0168,0.013 -0.0408,0.0261 -0.0566,0.0391 -0.0127,-0.0469 -0.0398,-0.0837 -0.0586,-0.12695 z"
     style="clip-rule:evenodd;fill-rule:evenodd" /><metadata
     id="metadata7737"><rdf:RDF><cc:Work><dc:format>image/svg+xml</dc:format><dc:type
           rdf:resource="http://purl.org/dc/dcmitype/StillImage" /><cc:license
           rdf:resource="http://creativecommons.org/publicdomain/zero/1.0/" /><dc:publisher><cc:Agent
             rdf:about="http://openclipart.org/"><dc:title>Openclipart</dc:title></cc:Agent></dc:publisher><dc:title>Lion Outline</dc:title><dc:date>2015-03-04</dc:date><dc:description>Lion outline based on johnny_automatic's a lion from &quot;Scan This Book&quot;</dc:description><dc:source>https://openclipart.org/detail/1461/lion-by-johnny_automatic</dc:source><dc:creator><cc:Agent><dc:title>Urs Roesch</dc:title></cc:Agent></dc:creator><dc:subject><rdf:Bag><rdf:li>animal</rdf:li><rdf:li>cat</rdf:li><rdf:li>externalsource</rdf:li><rdf:li>feline</rdf:li><rdf:li>lion</rdf:li><rdf:li>mammal</rdf:li></rdf:Bag></dc:subject><dc:contributor><cc:Agent><dc:title>johnny_automatic</dc:title></cc:Agent></dc:contributor></cc:Work><cc:License
         rdf:about="http://creativecommons.org/publicdomain/zero/1.0/"><cc:permits
           rdf:resource="http://creativecommons.org/ns#Reproduction" /><cc:permits
           rdf:resource="http://creativecommons.org/ns#Distribution" /><cc:permits
           rdf:resource="http://creativecommons.org/ns#DerivativeWorks" /></cc:License></rdf:RDF></metadata></svg>